<svg xmlns="http://www.w3.org/2000/svg" xmlns:xlink="http://www.w3.org/1999/xlink" xmlns:lucid="lucid" width="1663" height="563"><g transform="translate(1601.5000000252942 801.500000026615)" lucid:page-tab-id="0_0"><path d="M-3000-1000h4000v3500h-4000z" fill="#fff"/><path d="M-583.25-800c25.78 0 46.7 20.9 46.7 46.7v466.6c0 25.8-20.92 46.7-46.7 46.7h-373.5c-25.78 0-46.7-20.9-46.7-46.7v-466.6c0-25.8 20.92-46.7 46.7-46.7z" stroke="#4881b3" stroke-width="3" fill="#f5fbff"/><path d="M-1003.44-734h466.88" stroke="#4881b3" stroke-width="3" fill="none"/><use xlink:href="#a" transform="matrix(1,0,0,1,-956.75,-800) translate(177.06172839506172 40.15555555555555)"/><use xlink:href="#b" transform="matrix(1,0,0,1,-956.75,-724) translate(90.79753086419758 222.68888888888887)"/><use xlink:href="#c" transform="matrix(1,0,0,1,-956.75,-724) translate(195.94444444444446 222.68888888888887)"/><use xlink:href="#d" transform="matrix(1,0,0,1,-956.75,-724) translate(21.17993827160501 265.6222222222222)"/><use xlink:href="#e" transform="matrix(1,0,0,1,-956.75,-724) translate(239.62314814814812 265.6222222222222)"/><path d="M-1600-794a6 6 0 0 1 6-6h221.44a6 6 0 0 1 6 6v233a6 6 0 0 1-6 6H-1594a6 6 0 0 1-6-6z" stroke="#4881b3" stroke-width="3" fill="#f5fbff"/><use xlink:href="#f" transform="matrix(1,0,0,1,-1580,-800) translate(26.41666666666667 127.87777777777778)"/><use xlink:href="#g" transform="matrix(1,0,0,1,-1580,-800) translate(72.12777777777777 127.87777777777778)"/><path d="M-1600-479a6 6 0 0 1 6-6h221.44a6 6 0 0 1 6 6v233a6 6 0 0 1-6 6H-1594a6 6 0 0 1-6-6z" stroke="#4881b3" stroke-width="3" fill="#f5fbff"/><use xlink:href="#h" transform="matrix(1,0,0,1,-1580,-485) translate(30.599382716049405 111.74444444444445)"/><use xlink:href="#i" transform="matrix(1,0,0,1,-1580,-485) translate(18.6487654320988 144.01111111111112)"/><path d="M-1023.44-731.58v2l-99.28-.05v-2zm-223.84-.12v2l-116.78-.07v-2z" stroke="#224c72" stroke-width=".05" fill="#224c72"/><path d="M-1364.04-731.77v2h-1.02v-2z" fill="#224c72"/><path d="M-1364-731.8v2.06h-1.1v-2.05zm-1.04 2h.98v-1.94h-.98z" stroke="#224c72" stroke-width=".05" fill="#224c72"/><path d="M-1008.17-730.57l-14.27 4.63v-9.27z" fill="#224c72"/><path d="M-1004.94-730.57l-18.5 6v-12.02zm-16.5 3.25l10.03-3.25-10.04-3.27z" stroke="#224c72" stroke-width=".05" fill="#224c72"/><use xlink:href="#j" transform="matrix(1,0,0,1,-1247.283369763841,-757.6002565047875) translate(0.005000000000002558 17.95555555555555)"/><use xlink:href="#k" transform="matrix(1,0,0,1,-1247.283369763841,-757.6002565047875) translate(77.25129629629629 17.95555555555555)"/><use xlink:href="#l" transform="matrix(1,0,0,1,-1247.283369763841,-757.6002565047875) translate(19.332160493827168 44.88888888888887)"/><path d="M-1005.94-627.5v2l-81.9-.1v-2zm-276.23-.3v2l-64.4-.08v-2z" stroke="#224c72" stroke-width=".05" fill="#224c72"/><path d="M-1004.94-627.5v2h-1.02v-2z" fill="#224c72"/><path d="M-1004.9-627.53v2.05h-1.1v-2.05zm-1.04 2h.98v-1.95h-.98z" stroke="#224c72" stroke-width=".05" fill="#224c72"/><path d="M-1347.57-622.25l-14.26-4.65 14.27-4.62z" fill="#224c72"/><path d="M-1346.57-620.87l-18.5-6.03 18.52-6zm-12.02-6.02l10.04 3.28v-6.52z" stroke="#224c72" stroke-width=".05" fill="#224c72"/><use xlink:href="#m" transform="matrix(1,0,0,1,-1282.1657548826063,-640.1715222197873) translate(0 17.95555555555555)"/><use xlink:href="#n" transform="matrix(1,0,0,1,-1282.1657548826063,-640.1715222197873) translate(103.36913580246909 17.95555555555555)"/><path d="M-1242.95-361.6l-121.1.1v-2l121.1-.1zm219.5-.18l-103.6.08v-2l103.6-.08z" stroke="#224c72" stroke-width=".05" fill="#224c72"/><path d="M-1364.04-361.5h-1.02v-2h1.02z" fill="#224c72"/><path d="M-1364-361.48h-1.1v-2.04h1.1zm-1.04-2v1.96h.98v-1.96z" stroke="#224c72" stroke-width=".05" fill="#224c72"/><path d="M-1008.17-362.8l-14.27 4.65v-9.27z" fill="#224c72"/><path d="M-1004.94-362.8l-18.5 6.03v-12.02zm-16.5 3.28l10.03-3.27-10.04-3.24z" stroke="#224c72" stroke-width=".05" fill="#224c72"/><use xlink:href="#o" transform="matrix(1,0,0,1,-1242.950333641975,-389.58231770055426) translate(0.005000000000002558 17.95555555555555)"/><use xlink:href="#p" transform="matrix(1,0,0,1,-1242.950333641975,-389.58231770055426) translate(34.29512345679011 44.88888888888887)"/><path d="M-1234.16-450.1l-112.4.14v-2l112.4-.14zm228.22-.3l-129.9.17v-2l129.9-.16z" stroke="#224c72" stroke-width=".05" fill="#224c72"/><path d="M-1004.94-450.4h-1.02v-2h1.02z" fill="#224c72"/><path d="M-1004.9-450.37h-1.1v-2.05h1.1zm-1.04-2v1.95h.98v-1.95z" stroke="#224c72" stroke-width=".05" fill="#224c72"/><path d="M-1347.56-446.32l-14.27-4.62 14.26-4.65z" fill="#224c72"/><path d="M-1346.55-444.94l-18.5-6 18.48-6.03zm-12.04-6l10.04 3.25v-6.5z" stroke="#224c72" stroke-width=".05" fill="#224c72"/><use xlink:href="#q" transform="matrix(1,0,0,1,-1234.1596118781042,-464.63044318146314) translate(0 17.95555555555555)"/><use xlink:href="#r" transform="matrix(1,0,0,1,-1234.1596118781042,-464.63044318146314) translate(50.99876543209874 17.95555555555555)"/><path d="M-173.44-794a6 6 0 0 1 6-6H54a6 6 0 0 1 6 6v233a6 6 0 0 1-6 6h-221.44a6 6 0 0 1-6-6z" stroke="#4881b3" stroke-width="3" fill="#f5fbff"/><use xlink:href="#s" transform="matrix(1,0,0,1,-153.4375,-800) translate(45.08950617283951 111.74444444444445)"/><use xlink:href="#t" transform="matrix(1,0,0,1,-153.4375,-800) translate(18.6487654320988 144.01111111111112)"/><path d="M-173.44-479a6 6 0 0 1 6-6H54a6 6 0 0 1 6 6v233a6 6 0 0 1-6 6h-221.44a6 6 0 0 1-6-6z" stroke="#4881b3" stroke-width="3" fill="#f5fbff"/><use xlink:href="#u" transform="matrix(1,0,0,1,-153.4375,-485) translate(17.229629629629642 127.87777777777778)"/><use xlink:href="#v" transform="matrix(1,0,0,1,-153.4375,-485) translate(109.62283950617285 127.87777777777778)"/><path d="M-448.4-729.84l-85.66.05v-2l85.67-.04zm254.96-.13l-68.17.03v-2l68.16-.03z" stroke="#224c72" stroke-width=".05" fill="#224c72"/><path d="M-534.04-729.8h-1.02v-2h1.02z" fill="#224c72"/><path d="M-534-729.76h-1.1v-2.05h1.1zm-1.04-2v1.95h.98v-1.96z" stroke="#224c72" stroke-width=".05" fill="#224c72"/><path d="M-178.17-730.98l-14.27 4.64v-9.27z" fill="#224c72"/><path d="M-174.94-731l-18.5 6.04V-737zm-16.5 3.28l10.03-3.26-10.04-3.25z" stroke="#224c72" stroke-width=".05" fill="#224c72"/><use xlink:href="#w" transform="matrix(1,0,0,1,-448.39381363806245,-744.3531020157614) translate(0 17.95555555555555)"/><use xlink:href="#x" transform="matrix(1,0,0,1,-448.39381363806245,-744.3531020157614) translate(133.23271604938265 17.95555555555555)"/><path d="M-392.97-626.6l-123.6.14v-2l123.6-.13zm217.03-.23l-141.1.16v-2l141.1-.16z" stroke="#224c72" stroke-width=".05" fill="#224c72"/><path d="M-174.94-626.83h-1.02v-2h1.02z" fill="#224c72"/><path d="M-174.9-626.8h-1.1v-2.05h1.1zm-1.04-2v1.95h.98v-1.95z" stroke="#224c72" stroke-width=".05" fill="#224c72"/><path d="M-517.56-622.82l-14.27-4.62 14.26-4.65z" fill="#224c72"/><path d="M-516.55-621.45l-18.5-6 18.48-6.02zm-12.04-6l10.04 3.25v-6.5z" stroke="#224c72" stroke-width=".05" fill="#224c72"/><use xlink:href="#y" transform="matrix(1,0,0,1,-392.96848285953627,-641.1004403079847) translate(0 17.95555555555555)"/><path d="M-193.44-417.1v2l-83.1-.08v-2zm-240.02-.25v2l-100.6-.1v-2z" stroke="#224c72" stroke-width=".05" fill="#224c72"/><path d="M-534.04-417.46v2h-1.02v-2z" fill="#224c72"/><path d="M-534-417.5v2.06h-1.1v-2.05zm-1.04 2h.98v-1.94h-.98z" stroke="#224c72" stroke-width=".05" fill="#224c72"/><path d="M-178.17-416.07l-14.27 4.62v-9.27z" fill="#224c72"/><path d="M-174.94-416.07l-18.5 6v-12.03zm-16.5 3.24l10.03-3.25-10.04-3.27z" stroke="#224c72" stroke-width=".05" fill="#224c72"/><use xlink:href="#z" transform="matrix(1,0,0,1,-433.4620235323455,-429.7338156158578) translate(0 17.95555555555555)"/><use xlink:href="#r" transform="matrix(1,0,0,1,-433.4620235323455,-429.7338156158578) translate(109.60370370370366 17.95555555555555)"/><path d="M-413.5-361.5h-103.06v-2h103.05zm237.56 0H-296.5v-2h120.56z" stroke="#224c72" stroke-width=".05" fill="#224c72"/><path d="M-174.94-361.5h-1.02v-2h1.02z" fill="#224c72"/><path d="M-174.9-361.48h-1.1v-2.04h1.1zm-1.04-2v1.96h.98v-1.96z" stroke="#224c72" stroke-width=".05" fill="#224c72"/><path d="M-517.56-357.87l-14.27-4.63 14.27-4.63z" fill="#224c72"/><path d="M-516.56-356.5l-18.5-6 18.5-6zm-12.03-6l10.04 3.26v-6.52z" stroke="#224c72" stroke-width=".05" fill="#224c72"/><g><use xlink:href="#A" transform="matrix(1,0,0,1,-413.51139475308645,-375.96666666666664) translate(0 17.95555555555555)"/></g><path d="M-1022.7-279.46l-.02 2-110.23-.33v-2zm-213.62-.63v2l-127.75-.37v-2z" stroke="#224c72" stroke-width=".05" fill="#224c72"/><path d="M-1364.03-280.47v2h-1.03v-2z" fill="#224c72"/><path d="M-1364-280.5l-.02 2.06h-1.07v-2.06zm-1.04 2h.97v-1.94h-.97z" stroke="#224c72" stroke-width=".05" fill="#224c72"/><path d="M-1007.45-278.42l-14.28 4.6.03-9.28z" fill="#224c72"/><path d="M-1004.2-278.4l-18.53 5.95.03-12.02zm-16.52 3.2l10.03-3.23-10-3.28z" stroke="#224c72" stroke-width=".05" fill="#224c72"/><g><use xlink:href="#B" transform="matrix(1,0,0,1,-1236.3227040353277,-305.87329305988396) translate(0.005000000000002558 17.95555555555555)"/><use xlink:href="#p" transform="matrix(1,0,0,1,-1236.3227040353277,-305.87329305988396) translate(28.029382716049373 44.88888888888887)"/></g><path d="M-449-302.2h-67.56v-2H-449zm273.06 0H-261v-2h85.06z" stroke="#224c72" stroke-width=".05" fill="#224c72"/><path d="M-174.94-302.2h-1.02v-2h1.02z" fill="#224c72"/><path d="M-174.9-302.18h-1.1v-2.05h1.1zm-1.04-2v1.95h.98v-1.95z" stroke="#224c72" stroke-width=".05" fill="#224c72"/><path d="M-517.56-298.57l-14.27-4.63 14.27-4.64z" fill="#224c72"/><path d="M-516.56-297.2l-18.5-6 18.5-6.02zm-12.03-6l10.04 3.25v-6.5z" stroke="#224c72" stroke-width=".05" fill="#224c72"/><g><use xlink:href="#C" transform="matrix(1,0,0,1,-448.98607338694455,-316.672050467479) translate(0 17.95555555555555)"/><use xlink:href="#D" transform="matrix(1,0,0,1,-448.98607338694455,-316.672050467479) translate(82.17160493827157 17.95555555555555)"/></g><defs><path fill="#1d262b" d="M101-251c68 0 85 55 85 127S166 4 100 4C33 4 14-52 14-124c0-73 17-127 87-127zm-1 229c47 0 54-49 54-102s-4-102-53-102c-51 0-55 48-55 102 0 53 5 102 54 102" id="E"/><use transform="matrix(0.09938271604938267,0,0,0.09938271604938267,0,0)" xlink:href="#E" id="a"/><path fill="#1d262b" d="M185-189c-5-48-123-54-124 2 14 75 158 14 163 119 3 78-121 87-175 55-17-10-28-26-33-46l33-7c5 56 141 63 141-1 0-78-155-14-162-118-5-82 145-84 179-34 5 7 8 16 11 25" id="F"/><path fill="#1d262b" d="M210-169c-67 3-38 105-44 169h-31v-121c0-29-5-50-35-48C34-165 62-65 56 0H25l-1-190h30c1 10-1 24 2 32 10-44 99-50 107 0 11-21 27-35 58-36 85-2 47 119 55 194h-31v-121c0-29-5-49-35-48" id="G"/><path fill="#1d262b" d="M141-36C126-15 110 5 73 4 37 3 15-17 15-53c-1-64 63-63 125-63 3-35-9-54-41-54-24 1-41 7-42 31l-33-3c5-37 33-52 76-52 45 0 72 20 72 64v82c-1 20 7 32 28 27v20c-31 9-61-2-59-35zM48-53c0 20 12 33 32 33 41-3 63-29 60-74-43 2-92-5-92 41" id="H"/><path fill="#1d262b" d="M114-163C36-179 61-72 57 0H25l-1-190h30c1 12-1 29 2 39 6-27 23-49 58-41v29" id="I"/><path fill="#1d262b" d="M59-47c-2 24 18 29 38 22v24C64 9 27 4 27-40v-127H5v-23h24l9-43h21v43h35v23H59v120" id="J"/><g id="b"><use transform="matrix(0.09938271604938267,0,0,0.09938271604938267,0,0)" xlink:href="#F"/><use transform="matrix(0.09938271604938267,0,0,0.09938271604938267,23.85185185185184,0)" xlink:href="#G"/><use transform="matrix(0.09938271604938267,0,0,0.09938271604938267,53.56728395061726,0)" xlink:href="#H"/><use transform="matrix(0.09938271604938267,0,0,0.09938271604938267,73.4438271604938,0)" xlink:href="#I"/><use transform="matrix(0.09938271604938267,0,0,0.09938271604938267,85.27037037037033,0)" xlink:href="#J"/></g><path fill="#1d262b" d="M206 0h-36l-40-164L89 0H53L-1-190h32L70-26l43-164h34l41 164 42-164h31" id="K"/><path fill="#1d262b" d="M100-194c63 0 86 42 84 106H49c0 40 14 67 53 68 26 1 43-12 49-29l28 8c-11 28-37 45-77 45C44 4 14-33 15-96c1-61 26-98 85-98zm52 81c6-60-76-77-97-28-3 7-6 17-6 28h103" id="L"/><g id="c"><use transform="matrix(0.09938271604938267,0,0,0.09938271604938267,0,0)" xlink:href="#K"/><use transform="matrix(0.09938271604938267,0,0,0.09938271604938267,25.740123456790112,0)" xlink:href="#H"/><use transform="matrix(0.09938271604938267,0,0,0.09938271604938267,45.616666666666646,0)" xlink:href="#J"/><use transform="matrix(0.09938271604938267,0,0,0.09938271604938267,55.55493827160492,0)" xlink:href="#L"/><use transform="matrix(0.09938271604938267,0,0,0.09938271604938267,75.43148148148144,0)" xlink:href="#I"/></g><path fill="#1d262b" d="M117-194c89-4 53 116 60 194h-32v-121c0-31-8-49-39-48C34-167 62-67 57 0H25l-1-190h30c1 10-1 24 2 32 11-22 29-35 61-36" id="M"/><path fill="#1d262b" d="M177-190C167-65 218 103 67 71c-23-6-38-20-44-43l32-5c15 47 100 32 89-28v-30C133-14 115 1 83 1 29 1 15-40 15-95c0-56 16-97 71-98 29-1 48 16 59 35 1-10 0-23 2-32h30zM94-22c36 0 50-32 50-73 0-42-14-75-50-75-39 0-46 34-46 75s6 73 46 73" id="N"/><g id="d"><use transform="matrix(0.09938271604938267,0,0,0.09938271604938267,0,0)" xlink:href="#G"/><use transform="matrix(0.09938271604938267,0,0,0.09938271604938267,29.71543209876542,0)" xlink:href="#H"/><use transform="matrix(0.09938271604938267,0,0,0.09938271604938267,49.59197530864195,0)" xlink:href="#M"/><use transform="matrix(0.09938271604938267,0,0,0.09938271604938267,69.46851851851848,0)" xlink:href="#H"/><use transform="matrix(0.09938271604938267,0,0,0.09938271604938267,89.34506172839501,0)" xlink:href="#N"/><use transform="matrix(0.09938271604938267,0,0,0.09938271604938267,109.22160493827154,0)" xlink:href="#L"/><use transform="matrix(0.09938271604938267,0,0,0.09938271604938267,129.09814814814808,0)" xlink:href="#G"/><use transform="matrix(0.09938271604938267,0,0,0.09938271604938267,158.8135802469135,0)" xlink:href="#L"/><use transform="matrix(0.09938271604938267,0,0,0.09938271604938267,178.69012345679002,0)" xlink:href="#M"/><use transform="matrix(0.09938271604938267,0,0,0.09938271604938267,198.56666666666655,0)" xlink:href="#J"/></g><path fill="#1d262b" d="M135-143c-3-34-86-38-87 0 15 53 115 12 119 90S17 21 10-45l28-5c4 36 97 45 98 0-10-56-113-15-118-90-4-57 82-63 122-42 12 7 21 19 24 35" id="O"/><path fill="#1d262b" d="M179-190L93 31C79 59 56 82 12 73V49c39 6 53-20 64-50L1-190h34L92-34l54-156h33" id="P"/><g id="e"><use transform="matrix(0.09938271604938267,0,0,0.09938271604938267,0,0)" xlink:href="#O"/><use transform="matrix(0.09938271604938267,0,0,0.09938271604938267,17.888888888888882,0)" xlink:href="#P"/><use transform="matrix(0.09938271604938267,0,0,0.09938271604938267,35.777777777777764,0)" xlink:href="#O"/><use transform="matrix(0.09938271604938267,0,0,0.09938271604938267,53.66666666666664,0)" xlink:href="#J"/><use transform="matrix(0.09938271604938267,0,0,0.09938271604938267,63.60493827160491,0)" xlink:href="#L"/><use transform="matrix(0.09938271604938267,0,0,0.09938271604938267,83.48148148148144,0)" xlink:href="#G"/></g><path fill="#1d262b" d="M33 0v-248h34V0H33" id="Q"/><path fill="#1d262b" d="M100-194c62-1 85 37 85 99 1 63-27 99-86 99S16-35 15-95c0-66 28-99 85-99zM99-20c44 1 53-31 53-75 0-43-8-75-51-75s-53 32-53 75 10 74 51 75" id="R"/><path fill="#1d262b" d="M127-220V0H93v-220H8v-28h204v28h-85" id="S"/><g id="f"><use transform="matrix(0.07469135802469135,0,0,0.07469135802469135,0,0)" xlink:href="#Q"/><use transform="matrix(0.07469135802469135,0,0,0.07469135802469135,7.469135802469134,0)" xlink:href="#R"/><use transform="matrix(0.07469135802469135,0,0,0.07469135802469135,22.407407407407405,0)" xlink:href="#S"/></g><path fill="#1d262b" d="M30-248c118-7 216 8 213 122C240-48 200 0 122 0H30v-248zM63-27c89 8 146-16 146-99s-60-101-146-95v194" id="T"/><path fill="#1d262b" d="M108 0H70L1-190h34L89-25l56-165h34" id="U"/><path fill="#1d262b" d="M24-231v-30h32v30H24zM24 0v-190h32V0H24" id="V"/><path fill="#1d262b" d="M96-169c-40 0-48 33-48 73s9 75 48 75c24 0 41-14 43-38l32 2c-6 37-31 61-74 61-59 0-76-41-82-99-10-93 101-131 147-64 4 7 5 14 7 22l-32 3c-4-21-16-35-41-35" id="W"/><g id="g"><use transform="matrix(0.07469135802469135,0,0,0.07469135802469135,0,0)" xlink:href="#T"/><use transform="matrix(0.07469135802469135,0,0,0.07469135802469135,19.34506172839506,0)" xlink:href="#L"/><use transform="matrix(0.07469135802469135,0,0,0.07469135802469135,34.28333333333333,0)" xlink:href="#U"/><use transform="matrix(0.07469135802469135,0,0,0.07469135802469135,47.72777777777778,0)" xlink:href="#V"/><use transform="matrix(0.07469135802469135,0,0,0.07469135802469135,53.6283950617284,0)" xlink:href="#W"/><use transform="matrix(0.07469135802469135,0,0,0.07469135802469135,67.07283950617284,0)" xlink:href="#L"/><use transform="matrix(0.07469135802469135,0,0,0.07469135802469135,82.01111111111109,0)" xlink:href="#O"/></g><path fill="#1d262b" d="M205 0l-28-72H64L36 0H1l101-248h38L239 0h-34zm-38-99l-47-123c-12 45-31 82-46 123h93" id="X"/><g id="h"><use transform="matrix(0.07469135802469135,0,0,0.07469135802469135,0,0)" xlink:href="#X"/><use transform="matrix(0.07469135802469135,0,0,0.07469135802469135,17.925925925925924,0)" xlink:href="#N"/><use transform="matrix(0.07469135802469135,0,0,0.07469135802469135,32.86419753086419,0)" xlink:href="#N"/><use transform="matrix(0.07469135802469135,0,0,0.07469135802469135,47.802469135802454,0)" xlink:href="#I"/><use transform="matrix(0.07469135802469135,0,0,0.07469135802469135,56.69074074074072,0)" xlink:href="#L"/><use transform="matrix(0.07469135802469135,0,0,0.07469135802469135,71.62901234567899,0)" xlink:href="#N"/><use transform="matrix(0.07469135802469135,0,0,0.07469135802469135,86.56728395061725,0)" xlink:href="#H"/><use transform="matrix(0.07469135802469135,0,0,0.07469135802469135,101.50555555555552,0)" xlink:href="#J"/><use transform="matrix(0.07469135802469135,0,0,0.07469135802469135,108.97469135802466,0)" xlink:href="#R"/><use transform="matrix(0.07469135802469135,0,0,0.07469135802469135,123.91296296296292,0)" xlink:href="#I"/></g><path fill="#1d262b" d="M143 0L79-87 56-68V0H24v-261h32v163l83-92h37l-77 82L181 0h-38" id="Y"/><path fill="#1d262b" d="M106-169C34-169 62-67 57 0H25v-261h32l-1 103c12-21 28-36 61-36 89 0 53 116 60 194h-32v-121c2-32-8-49-39-48" id="Z"/><path fill="#1d262b" d="M24 0v-261h32V0H24" id="aa"/><path fill="#1d262b" d="M85-194c31 0 48 13 60 33l-1-100h32l1 261h-30c-2-10 0-23-3-31C134-8 116 4 85 4 32 4 16-35 15-94c0-66 23-100 70-100zm9 24c-40 0-46 34-46 75 0 40 6 74 45 74 42 0 51-32 51-76 0-42-9-74-50-73" id="ab"/><g id="i"><use transform="matrix(0.07469135802469135,0,0,0.07469135802469135,0,0)" xlink:href="#F"/><use transform="matrix(0.07469135802469135,0,0,0.07469135802469135,17.925925925925924,0)" xlink:href="#J"/><use transform="matrix(0.07469135802469135,0,0,0.07469135802469135,25.395061728395056,0)" xlink:href="#H"/><use transform="matrix(0.07469135802469135,0,0,0.07469135802469135,40.33333333333333,0)" xlink:href="#Y"/><use transform="matrix(0.07469135802469135,0,0,0.07469135802469135,53.77777777777777,0)" xlink:href="#L"/><use transform="matrix(0.07469135802469135,0,0,0.07469135802469135,68.71604938271604,0)" xlink:href="#Z"/><use transform="matrix(0.07469135802469135,0,0,0.07469135802469135,83.6543209876543,0)" xlink:href="#R"/><use transform="matrix(0.07469135802469135,0,0,0.07469135802469135,98.59259259259255,0)" xlink:href="#aa"/><use transform="matrix(0.07469135802469135,0,0,0.07469135802469135,104.49320987654318,0)" xlink:href="#ab"/><use transform="matrix(0.07469135802469135,0,0,0.07469135802469135,119.43148148148144,0)" xlink:href="#L"/><use transform="matrix(0.07469135802469135,0,0,0.07469135802469135,134.3697530864197,0)" xlink:href="#I"/><use transform="matrix(0.07469135802469135,0,0,0.07469135802469135,143.25802469135797,0)" xlink:href="#O"/></g><g id="j"><use transform="matrix(0.06234567901234565,0,0,0.06234567901234565,0,0)" xlink:href="#F"/><use transform="matrix(0.06234567901234565,0,0,0.06234567901234565,14.962962962962957,0)" xlink:href="#L"/><use transform="matrix(0.06234567901234565,0,0,0.06234567901234565,27.432098765432087,0)" xlink:href="#M"/><use transform="matrix(0.06234567901234565,0,0,0.06234567901234565,39.90123456790122,0)" xlink:href="#O"/><use transform="matrix(0.06234567901234565,0,0,0.06234567901234565,51.12345679012344,0)" xlink:href="#R"/><use transform="matrix(0.06234567901234565,0,0,0.06234567901234565,63.592592592592574,0)" xlink:href="#I"/></g><g id="k"><use transform="matrix(0.06234567901234565,0,0,0.06234567901234565,0,0)" xlink:href="#T"/><use transform="matrix(0.06234567901234565,0,0,0.06234567901234565,16.147530864197524,0)" xlink:href="#H"/><use transform="matrix(0.06234567901234565,0,0,0.06234567901234565,28.616666666666653,0)" xlink:href="#J"/><use transform="matrix(0.06234567901234565,0,0,0.06234567901234565,34.851234567901216,0)" xlink:href="#H"/></g><g id="l"><use transform="matrix(0.06234567901234565,0,0,0.06234567901234565,0,0)" xlink:href="#I"/><use transform="matrix(0.06234567901234565,0,0,0.06234567901234565,7.419135802469133,0)" xlink:href="#L"/><use transform="matrix(0.06234567901234565,0,0,0.06234567901234565,19.888271604938264,0)" xlink:href="#H"/><use transform="matrix(0.06234567901234565,0,0,0.06234567901234565,32.35740740740739,0)" xlink:href="#ab"/><use transform="matrix(0.06234567901234565,0,0,0.06234567901234565,44.826543209876526,0)" xlink:href="#V"/><use transform="matrix(0.06234567901234565,0,0,0.06234567901234565,49.75185185185183,0)" xlink:href="#M"/><use transform="matrix(0.06234567901234565,0,0,0.06234567901234565,62.220987654320965,0)" xlink:href="#N"/><use transform="matrix(0.06234567901234565,0,0,0.06234567901234565,74.69012345679009,0)" xlink:href="#O"/></g><g id="m"><use transform="matrix(0.06234567901234565,0,0,0.06234567901234565,0,0)" xlink:href="#X"/><use transform="matrix(0.06234567901234565,0,0,0.06234567901234565,14.962962962962957,0)" xlink:href="#W"/><use transform="matrix(0.06234567901234565,0,0,0.06234567901234565,26.185185185185176,0)" xlink:href="#J"/><use transform="matrix(0.06234567901234565,0,0,0.06234567901234565,32.41975308641974,0)" xlink:href="#V"/><use transform="matrix(0.06234567901234565,0,0,0.06234567901234565,37.345061728395045,0)" xlink:href="#U"/><use transform="matrix(0.06234567901234565,0,0,0.06234567901234565,48.567283950617266,0)" xlink:href="#H"/><use transform="matrix(0.06234567901234565,0,0,0.06234567901234565,61.0364197530864,0)" xlink:href="#J"/><use transform="matrix(0.06234567901234565,0,0,0.06234567901234565,67.27098765432096,0)" xlink:href="#V"/><use transform="matrix(0.06234567901234565,0,0,0.06234567901234565,72.19629629629627,0)" xlink:href="#R"/><use transform="matrix(0.06234567901234565,0,0,0.06234567901234565,84.6654320987654,0)" xlink:href="#M"/></g><g id="n"><use transform="matrix(0.06234567901234565,0,0,0.06234567901234565,0,0)" xlink:href="#G"/><use transform="matrix(0.06234567901234565,0,0,0.06234567901234565,18.64135802469135,0)" xlink:href="#L"/><use transform="matrix(0.06234567901234565,0,0,0.06234567901234565,31.110493827160482,0)" xlink:href="#O"/><use transform="matrix(0.06234567901234565,0,0,0.06234567901234565,42.3327160493827,0)" xlink:href="#O"/><use transform="matrix(0.06234567901234565,0,0,0.06234567901234565,53.55493827160491,0)" xlink:href="#H"/><use transform="matrix(0.06234567901234565,0,0,0.06234567901234565,66.02407407407404,0)" xlink:href="#N"/><use transform="matrix(0.06234567901234565,0,0,0.06234567901234565,78.49320987654316,0)" xlink:href="#L"/></g><g id="o"><use transform="matrix(0.06234567901234565,0,0,0.06234567901234565,0,0)" xlink:href="#X"/><use transform="matrix(0.06234567901234565,0,0,0.06234567901234565,14.962962962962957,0)" xlink:href="#N"/><use transform="matrix(0.06234567901234565,0,0,0.06234567901234565,27.432098765432087,0)" xlink:href="#N"/><use transform="matrix(0.06234567901234565,0,0,0.06234567901234565,39.90123456790122,0)" xlink:href="#I"/><use transform="matrix(0.06234567901234565,0,0,0.06234567901234565,47.320370370370355,0)" xlink:href="#L"/><use transform="matrix(0.06234567901234565,0,0,0.06234567901234565,59.78950617283949,0)" xlink:href="#N"/><use transform="matrix(0.06234567901234565,0,0,0.06234567901234565,72.25864197530862,0)" xlink:href="#H"/><use transform="matrix(0.06234567901234565,0,0,0.06234567901234565,84.72777777777775,0)" xlink:href="#J"/><use transform="matrix(0.06234567901234565,0,0,0.06234567901234565,90.96234567901232,0)" xlink:href="#L"/><use transform="matrix(0.06234567901234565,0,0,0.06234567901234565,103.43148148148144,0)" xlink:href="#ab"/></g><g id="p"><use transform="matrix(0.06234567901234565,0,0,0.06234567901234565,0,0)" xlink:href="#T"/><use transform="matrix(0.06234567901234565,0,0,0.06234567901234565,16.147530864197524,0)" xlink:href="#H"/><use transform="matrix(0.06234567901234565,0,0,0.06234567901234565,28.616666666666653,0)" xlink:href="#J"/><use transform="matrix(0.06234567901234565,0,0,0.06234567901234565,34.851234567901216,0)" xlink:href="#H"/></g><path fill="#1d262b" d="M233-177c-1 41-23 64-60 70L243 0h-38l-65-103H63V0H30v-248c88 3 205-21 203 71zM63-129c60-2 137 13 137-47 0-61-80-42-137-45v92" id="ac"/><g id="q"><use transform="matrix(0.06234567901234565,0,0,0.06234567901234565,0,0)" xlink:href="#ac"/><use transform="matrix(0.06234567901234565,0,0,0.06234567901234565,16.147530864197524,0)" xlink:href="#H"/><use transform="matrix(0.06234567901234565,0,0,0.06234567901234565,28.616666666666653,0)" xlink:href="#K"/></g><g id="r"><use transform="matrix(0.06234567901234565,0,0,0.06234567901234565,0,0)" xlink:href="#T"/><use transform="matrix(0.06234567901234565,0,0,0.06234567901234565,16.147530864197524,0)" xlink:href="#H"/><use transform="matrix(0.06234567901234565,0,0,0.06234567901234565,28.616666666666653,0)" xlink:href="#J"/><use transform="matrix(0.06234567901234565,0,0,0.06234567901234565,34.851234567901216,0)" xlink:href="#H"/></g><path fill="#1d262b" d="M137 0h-34L2-248h35l83 218 83-218h36" id="ad"/><g id="s"><use transform="matrix(0.07469135802469135,0,0,0.07469135802469135,0,0)" xlink:href="#ad"/><use transform="matrix(0.07469135802469135,0,0,0.07469135802469135,15.909259259259258,0)" xlink:href="#H"/><use transform="matrix(0.07469135802469135,0,0,0.07469135802469135,30.847530864197527,0)" xlink:href="#aa"/><use transform="matrix(0.07469135802469135,0,0,0.07469135802469135,36.74814814814815,0)" xlink:href="#V"/><use transform="matrix(0.07469135802469135,0,0,0.07469135802469135,42.64876543209877,0)" xlink:href="#ab"/><use transform="matrix(0.07469135802469135,0,0,0.07469135802469135,57.587037037037035,0)" xlink:href="#H"/><use transform="matrix(0.07469135802469135,0,0,0.07469135802469135,72.5253086419753,0)" xlink:href="#J"/><use transform="matrix(0.07469135802469135,0,0,0.07469135802469135,79.99444444444445,0)" xlink:href="#R"/><use transform="matrix(0.07469135802469135,0,0,0.07469135802469135,94.9327160493827,0)" xlink:href="#I"/></g><g id="t"><use transform="matrix(0.07469135802469135,0,0,0.07469135802469135,0,0)" xlink:href="#F"/><use transform="matrix(0.07469135802469135,0,0,0.07469135802469135,17.925925925925924,0)" xlink:href="#J"/><use transform="matrix(0.07469135802469135,0,0,0.07469135802469135,25.395061728395056,0)" xlink:href="#H"/><use transform="matrix(0.07469135802469135,0,0,0.07469135802469135,40.33333333333333,0)" xlink:href="#Y"/><use transform="matrix(0.07469135802469135,0,0,0.07469135802469135,53.77777777777777,0)" xlink:href="#L"/><use transform="matrix(0.07469135802469135,0,0,0.07469135802469135,68.71604938271604,0)" xlink:href="#Z"/><use transform="matrix(0.07469135802469135,0,0,0.07469135802469135,83.6543209876543,0)" xlink:href="#R"/><use transform="matrix(0.07469135802469135,0,0,0.07469135802469135,98.59259259259255,0)" xlink:href="#aa"/><use transform="matrix(0.07469135802469135,0,0,0.07469135802469135,104.49320987654318,0)" xlink:href="#ab"/><use transform="matrix(0.07469135802469135,0,0,0.07469135802469135,119.43148148148144,0)" xlink:href="#L"/><use transform="matrix(0.07469135802469135,0,0,0.07469135802469135,134.3697530864197,0)" xlink:href="#I"/><use transform="matrix(0.07469135802469135,0,0,0.07469135802469135,143.25802469135797,0)" xlink:href="#O"/></g><path fill="#1d262b" d="M212-179c-10-28-35-45-73-45-59 0-87 40-87 99 0 60 29 101 89 101 43 0 62-24 78-52l27 14C228-24 195 4 139 4 59 4 22-46 18-125c-6-104 99-153 187-111 19 9 31 26 39 46" id="ae"/><g id="u"><use transform="matrix(0.07469135802469135,0,0,0.07469135802469135,0,0)" xlink:href="#ae"/><use transform="matrix(0.07469135802469135,0,0,0.07469135802469135,19.34506172839506,0)" xlink:href="#H"/><use transform="matrix(0.07469135802469135,0,0,0.07469135802469135,34.28333333333333,0)" xlink:href="#I"/><use transform="matrix(0.07469135802469135,0,0,0.07469135802469135,43.1716049382716,0)" xlink:href="#J"/><use transform="matrix(0.07469135802469135,0,0,0.07469135802469135,50.64074074074073,0)" xlink:href="#L"/><use transform="matrix(0.07469135802469135,0,0,0.07469135802469135,65.579012345679,0)" xlink:href="#O"/><use transform="matrix(0.07469135802469135,0,0,0.07469135802469135,79.02345679012345,0)" xlink:href="#V"/></g><path fill="#1d262b" d="M115-194c55 1 70 41 70 98S169 2 115 4C84 4 66-9 55-30l1 105H24l-1-265h31l2 30c10-21 28-34 59-34zm-8 174c40 0 45-34 45-75s-6-73-45-74c-42 0-51 32-51 76 0 43 10 73 51 73" id="af"/><g id="v"><use transform="matrix(0.07469135802469135,0,0,0.07469135802469135,0,0)" xlink:href="#T"/><use transform="matrix(0.07469135802469135,0,0,0.07469135802469135,19.34506172839506,0)" xlink:href="#X"/><use transform="matrix(0.07469135802469135,0,0,0.07469135802469135,37.27098765432098,0)" xlink:href="#af"/><use transform="matrix(0.07469135802469135,0,0,0.07469135802469135,52.20925925925926,0)" xlink:href="#af"/></g><path fill="#1d262b" d="M84 4C-5 8 30-112 23-190h32v120c0 31 7 50 39 49 72-2 45-101 50-169h31l1 190h-30c-1-10 1-25-2-33-11 22-28 36-60 37" id="ag"/><g id="w"><use transform="matrix(0.06234567901234565,0,0,0.06234567901234565,0,0)" xlink:href="#ae"/><use transform="matrix(0.06234567901234565,0,0,0.06234567901234565,16.147530864197524,0)" xlink:href="#R"/><use transform="matrix(0.06234567901234565,0,0,0.06234567901234565,28.616666666666653,0)" xlink:href="#G"/><use transform="matrix(0.06234567901234565,0,0,0.06234567901234565,47.258024691358,0)" xlink:href="#af"/><use transform="matrix(0.06234567901234565,0,0,0.06234567901234565,59.727160493827135,0)" xlink:href="#ag"/><use transform="matrix(0.06234567901234565,0,0,0.06234567901234565,72.19629629629627,0)" xlink:href="#J"/><use transform="matrix(0.06234567901234565,0,0,0.06234567901234565,78.43086419753084,0)" xlink:href="#H"/><use transform="matrix(0.06234567901234565,0,0,0.06234567901234565,90.89999999999996,0)" xlink:href="#J"/><use transform="matrix(0.06234567901234565,0,0,0.06234567901234565,97.13456790123453,0)" xlink:href="#V"/><use transform="matrix(0.06234567901234565,0,0,0.06234567901234565,102.05987654320984,0)" xlink:href="#R"/><use transform="matrix(0.06234567901234565,0,0,0.06234567901234565,114.52901234567896,0)" xlink:href="#M"/></g><path fill="#1d262b" d="M30-248c87 1 191-15 191 75 0 78-77 80-158 76V0H30v-248zm33 125c57 0 124 11 124-50 0-59-68-47-124-48v98" id="ah"/><path fill="#1d262b" d="M101-234c-31-9-42 10-38 44h38v23H63V0H32v-167H5v-23h27c-7-52 17-82 69-68v24" id="ai"/><g id="x"><use transform="matrix(0.06234567901234565,0,0,0.06234567901234565,0,0)" xlink:href="#ah"/><use transform="matrix(0.06234567901234565,0,0,0.06234567901234565,14.962962962962957,0)" xlink:href="#I"/><use transform="matrix(0.06234567901234565,0,0,0.06234567901234565,22.38209876543209,0)" xlink:href="#R"/><use transform="matrix(0.06234567901234565,0,0,0.06234567901234565,34.85123456790122,0)" xlink:href="#R"/><use transform="matrix(0.06234567901234565,0,0,0.06234567901234565,47.320370370370355,0)" xlink:href="#ai"/></g><g id="y"><use transform="matrix(0.06234567901234565,0,0,0.06234567901234565,0,0)" xlink:href="#T"/><use transform="matrix(0.06234567901234565,0,0,0.06234567901234565,16.147530864197524,0)" xlink:href="#V"/><use transform="matrix(0.06234567901234565,0,0,0.06234567901234565,21.07283950617283,0)" xlink:href="#O"/><use transform="matrix(0.06234567901234565,0,0,0.06234567901234565,32.29506172839505,0)" xlink:href="#af"/><use transform="matrix(0.06234567901234565,0,0,0.06234567901234565,44.76419753086418,0)" xlink:href="#ag"/><use transform="matrix(0.06234567901234565,0,0,0.06234567901234565,57.23333333333331,0)" xlink:href="#J"/><use transform="matrix(0.06234567901234565,0,0,0.06234567901234565,63.467901234567876,0)" xlink:href="#L"/></g><g id="z"><use transform="matrix(0.06234567901234565,0,0,0.06234567901234565,0,0)" xlink:href="#ae"/><use transform="matrix(0.06234567901234565,0,0,0.06234567901234565,16.147530864197524,0)" xlink:href="#R"/><use transform="matrix(0.06234567901234565,0,0,0.06234567901234565,28.616666666666653,0)" xlink:href="#G"/><use transform="matrix(0.06234567901234565,0,0,0.06234567901234565,47.258024691358,0)" xlink:href="#af"/><use transform="matrix(0.06234567901234565,0,0,0.06234567901234565,59.727160493827135,0)" xlink:href="#ag"/><use transform="matrix(0.06234567901234565,0,0,0.06234567901234565,72.19629629629627,0)" xlink:href="#J"/><use transform="matrix(0.06234567901234565,0,0,0.06234567901234565,78.43086419753084,0)" xlink:href="#L"/><use transform="matrix(0.06234567901234565,0,0,0.06234567901234565,90.89999999999996,0)" xlink:href="#ab"/></g><path fill="#1d262b" d="M190 0L58-211 59 0H30v-248h39L202-35l-2-213h31V0h-41" id="aj"/><g id="A"><use transform="matrix(0.06234567901234565,0,0,0.06234567901234565,0,0)" xlink:href="#aj"/><use transform="matrix(0.06234567901234565,0,0,0.06234567901234565,16.147530864197524,0)" xlink:href="#R"/><use transform="matrix(0.06234567901234565,0,0,0.06234567901234565,28.616666666666653,0)" xlink:href="#J"/><use transform="matrix(0.06234567901234565,0,0,0.06234567901234565,34.851234567901216,0)" xlink:href="#V"/><use transform="matrix(0.06234567901234565,0,0,0.06234567901234565,39.77654320987652,0)" xlink:href="#ai"/><use transform="matrix(0.06234567901234565,0,0,0.06234567901234565,46.011111111111084,0)" xlink:href="#V"/><use transform="matrix(0.06234567901234565,0,0,0.06234567901234565,50.93641975308639,0)" xlink:href="#W"/><use transform="matrix(0.06234567901234565,0,0,0.06234567901234565,62.15864197530861,0)" xlink:href="#H"/><use transform="matrix(0.06234567901234565,0,0,0.06234567901234565,74.62777777777774,0)" xlink:href="#J"/><use transform="matrix(0.06234567901234565,0,0,0.06234567901234565,80.86234567901231,0)" xlink:href="#R"/><use transform="matrix(0.06234567901234565,0,0,0.06234567901234565,93.33148148148143,0)" xlink:href="#M"/><use transform="matrix(0.06234567901234565,0,0,0.06234567901234565,105.80061728395056,0)" xlink:href="#O"/></g><g id="B"><use transform="matrix(0.06234567901234565,0,0,0.06234567901234565,0,0)" xlink:href="#ae"/><use transform="matrix(0.06234567901234565,0,0,0.06234567901234565,16.147530864197524,0)" xlink:href="#R"/><use transform="matrix(0.06234567901234565,0,0,0.06234567901234565,28.616666666666653,0)" xlink:href="#G"/><use transform="matrix(0.06234567901234565,0,0,0.06234567901234565,47.258024691358,0)" xlink:href="#af"/><use transform="matrix(0.06234567901234565,0,0,0.06234567901234565,59.727160493827135,0)" xlink:href="#ag"/><use transform="matrix(0.06234567901234565,0,0,0.06234567901234565,72.19629629629627,0)" xlink:href="#J"/><use transform="matrix(0.06234567901234565,0,0,0.06234567901234565,78.43086419753084,0)" xlink:href="#L"/><use transform="matrix(0.06234567901234565,0,0,0.06234567901234565,90.89999999999996,0)" xlink:href="#ab"/></g><g id="C"><use transform="matrix(0.06234567901234565,0,0,0.06234567901234565,0,0)" xlink:href="#T"/><use transform="matrix(0.06234567901234565,0,0,0.06234567901234565,16.147530864197524,0)" xlink:href="#V"/><use transform="matrix(0.06234567901234565,0,0,0.06234567901234565,21.07283950617283,0)" xlink:href="#O"/><use transform="matrix(0.06234567901234565,0,0,0.06234567901234565,32.29506172839505,0)" xlink:href="#af"/><use transform="matrix(0.06234567901234565,0,0,0.06234567901234565,44.76419753086418,0)" xlink:href="#ag"/><use transform="matrix(0.06234567901234565,0,0,0.06234567901234565,57.23333333333331,0)" xlink:href="#J"/><use transform="matrix(0.06234567901234565,0,0,0.06234567901234565,63.467901234567876,0)" xlink:href="#L"/></g><g id="D"><use transform="matrix(0.06234567901234565,0,0,0.06234567901234565,0,0)" xlink:href="#ac"/><use transform="matrix(0.06234567901234565,0,0,0.06234567901234565,16.147530864197524,0)" xlink:href="#L"/><use transform="matrix(0.06234567901234565,0,0,0.06234567901234565,28.616666666666653,0)" xlink:href="#O"/><use transform="matrix(0.06234567901234565,0,0,0.06234567901234565,39.838888888888874,0)" xlink:href="#R"/><use transform="matrix(0.06234567901234565,0,0,0.06234567901234565,52.30802469135801,0)" xlink:href="#aa"/><use transform="matrix(0.06234567901234565,0,0,0.06234567901234565,57.23333333333331,0)" xlink:href="#ag"/><use transform="matrix(0.06234567901234565,0,0,0.06234567901234565,69.70246913580245,0)" xlink:href="#J"/><use transform="matrix(0.06234567901234565,0,0,0.06234567901234565,75.93703703703702,0)" xlink:href="#V"/><use transform="matrix(0.06234567901234565,0,0,0.06234567901234565,80.86234567901232,0)" xlink:href="#R"/><use transform="matrix(0.06234567901234565,0,0,0.06234567901234565,93.33148148148145,0)" xlink:href="#M"/></g></defs></g></svg>