<svg xmlns="http://www.w3.org/2000/svg" xmlns:xlink="http://www.w3.org/1999/xlink" xmlns:lucid="lucid" width="2241.5" height="1713"><g transform="translate(1541.5000001227825 -473.1666666666672)" lucid:page-tab-id="0_0"><path d="M-3000-1000h4000v3500h-4000z" fill="#fff"/><path d="M-1540 530.67a6 6 0 0 1 6-6h228a6 6 0 0 1 6 6v48a6 6 0 0 1-6 6h-228a6 6 0 0 1-6-6z" fill="#f5fbff"/><path d="M-1300 524.67h-234a6 6 0 0 0-6 6v48a6 6 0 0 0 6 6h234M-1492 524.67v60" stroke="#4881b3" stroke-width="3" fill="none"/><use xlink:href="#a" transform="matrix(1,0,0,1,-1528,536.6666666666672) translate(-4.833333333333325 22.488888888888887)"/><use xlink:href="#b" transform="matrix(1,0,0,1,-1480,536.6666666666672) translate(29.82160493827164 22.488888888888887)"/><path d="M-1299 554.67h79" stroke="#224c72" stroke-width="2" fill="none"/><path d="M-1298.97 555.67h-1.03v-2h1.03z" stroke="#224c72" stroke-width=".05" fill="#224c72"/><path d="M-1204.74 554.67l-14.26 4.63v-9.27z" stroke="#224c72" stroke-width="2" fill="#224c72"/><path d="M-1016 474.67c8.84 0 16 7.16 16 16v128c0 8.83-7.16 16-16 16h-168c-8.84 0-16-7.17-16-16v-128c0-8.84 7.16-16 16-16z" stroke="#4881b3" stroke-width="3" fill="#f5fbff"/><path d="M-1200 526.67h200" stroke="#4881b3" stroke-width="3" fill="none"/><use xlink:href="#c" transform="matrix(1,0,0,1,-1180,474.6666666666672) translate(64.41358024691358 30.488888888888887)"/><use xlink:href="#d" transform="matrix(1,0,0,1,-1180,536.6666666666672) translate(12.136728395061766 48.48888888888889)"/><use xlink:href="#e" transform="matrix(1,0,0,1,-1180,536.6666666666672) translate(75.72932098765433 48.48888888888889)"/><path d="M-1099 726.16h-2V703.9h2zm0-49.2h-2v-39.8h2z" stroke="#224c72" stroke-width=".05" fill="#224c72"/><path d="M-1099 637.2h-2v-1.03h2z" fill="#224c72"/><path d="M-1098.97 637.22h-2.06v-1.08h2.06zm-2-1.03v.97h1.94v-.98z" stroke="#224c72" stroke-width=".05" fill="#224c72"/><path d="M-1100 741.43l-4.63-14.26h9.27z" fill="#224c72"/><path d="M-1100 744.67l-6-18.5h12zm-3.26-16.5l3.26 10.03 3.26-10.04z" stroke="#224c72" stroke-width=".05" fill="#224c72"/><use xlink:href="#f" transform="matrix(1,0,0,1,-1144.764197530864,676.9500000000005) translate(0 17.95555555555555)"/><path d="M-1016 744.67c8.84 0 16 7.16 16 16v128c0 8.83-7.16 16-16 16h-168c-8.84 0-16-7.17-16-16v-128c0-8.84 7.16-16 16-16z" stroke="#4881b3" stroke-width="3" fill="#f5fbff"/><path d="M-1200 796.67h200" stroke="#4881b3" stroke-width="3" fill="none"/><use xlink:href="#g" transform="matrix(1,0,0,1,-1180,744.6666666666672) translate(64.41358024691358 30.488888888888887)"/><use xlink:href="#h" transform="matrix(1,0,0,1,-1180,806.6666666666672) translate(19.618209876543233 35.022222222222226)"/><use xlink:href="#i" transform="matrix(1,0,0,1,-1180,806.6666666666672) translate(95.6175925925926 35.022222222222226)"/><use xlink:href="#j" transform="matrix(1,0,0,1,-1180,806.6666666666672) translate(25.229320987654347 61.95555555555555)"/><use xlink:href="#k" transform="matrix(1,0,0,1,-1180,806.6666666666672) translate(73.73425925925926 61.95555555555555)"/><path d="M-880 555.67h-43.96l-.82.06-.76.18-.73.3-.67.42-.6.5-.5.6-.4.68-.3.72-.2.76-.06.83v258l-.08 1.06-.26 1.07-.42 1.02-.57.93-.72.84-.83.7-.94.6-1.02.4-1.06.26-1.06.1h-61.54v-2h61.46l.82-.08.76-.18.73-.3.67-.4.6-.52.5-.6.4-.67.3-.72.2-.75.06-.82v-258l.08-1.06.26-1.07.42-1 .57-.95.72-.83.83-.72.94-.57 1.02-.42 1.06-.25 1.06-.08H-880z" stroke="#224c72" stroke-width=".05" fill="#224c72"/><path d="M-997.47 825.67h-1.03v-2h1.03z" fill="#224c72"/><path d="M-997.45 825.7h-1.07v-2.06h1.07zm-1.02-2v1.94h.97v-1.95z" stroke="#224c72" stroke-width=".05" fill="#224c72"/><path d="M-864.74 554.67L-879 559.3v-9.27z" fill="#224c72"/><path d="M-861.5 554.67l-18.5 6v-12zm-16.5 3.26l10.03-3.26-10.03-3.26z" stroke="#224c72" stroke-width=".05" fill="#224c72"/><path d="M-676 474.67c8.84 0 16 7.16 16 16v128c0 8.83-7.16 16-16 16h-168c-8.84 0-16-7.17-16-16v-128c0-8.84 7.16-16 16-16z" stroke="#4881b3" stroke-width="3" fill="#f5fbff"/><path d="M-860 526.67h200" stroke="#4881b3" stroke-width="3" fill="none"/><use xlink:href="#l" transform="matrix(1,0,0,1,-840,474.6666666666672) translate(64.41358024691358 30.488888888888887)"/><use xlink:href="#m" transform="matrix(1,0,0,1,-840,536.6666666666672) translate(21.45740740740743 48.48888888888889)"/><use xlink:href="#n" transform="matrix(1,0,0,1,-840,536.6666666666672) translate(88.7283950617284 48.48888888888889)"/><path d="M-759 774.66h-2v-57.53h2zm0-84.46h-2v-53.03h2z" stroke="#224c72" stroke-width=".05" fill="#224c72"/><path d="M-759 637.2h-2v-1.03h2z" fill="#224c72"/><path d="M-758.98 637.22H-761v-1.08h2.04zm-2-1.03v.97h1.96v-.98z" stroke="#224c72" stroke-width=".05" fill="#224c72"/><path d="M-760 789.93l-4.63-14.26h9.26z" fill="#224c72"/><path d="M-760 793.17l-6-18.5h12zm-3.26-16.5l3.26 10.03 3.26-10.04z" stroke="#224c72" stroke-width=".05" fill="#224c72"/><use xlink:href="#o" transform="matrix(1,0,0,1,-857.6645061728394,690.2000000000005) translate(0 17.95555555555555)"/><path d="M-900 800.67a6 6 0 0 1 6-6h268a6 6 0 0 1 6 6v48a6 6 0 0 1-6 6h-268a6 6 0 0 1-6-6z" fill="#f5fbff"/><path d="M-620 794.67h-274a6 6 0 0 0-6 6v48a6 6 0 0 0 6 6h274M-844 794.67v60" stroke="#4881b3" stroke-width="3" fill="none"/><use xlink:href="#p" transform="matrix(1,0,0,1,-886,806.6666666666672) translate(-9.660185185185174 22.488888888888887)"/><use xlink:href="#q" transform="matrix(1,0,0,1,-830,806.6666666666672) translate(73.09290123456792 22.488888888888887)"/><path d="M-631.8 555.67h-25.7v-2h25.7zm131.8 0h-38.46v-2H-500z" stroke="#224c72" stroke-width=".05" fill="#224c72"/><path d="M-657.47 555.67h-1.03v-2h1.03z" fill="#224c72"/><path d="M-657.45 555.7h-1.07v-2.06h1.07zm-1.02-2v1.94h.97v-1.95z" stroke="#224c72" stroke-width=".05" fill="#224c72"/><path d="M-484.74 554.67L-499 559.3v-9.27z" fill="#224c72"/><path d="M-481.5 554.67l-18.5 6v-12zm-16.5 3.26l10.03-3.26-10.03-3.26z" stroke="#224c72" stroke-width=".05" fill="#224c72"/><use xlink:href="#r" transform="matrix(1,0,0,1,-631.7939458689458,541.2000000000005) translate(0 17.95555555555555)"/><path d="M-296 474.67c8.84 0 16 7.16 16 16v128c0 8.83-7.16 16-16 16h-168c-8.84 0-16-7.17-16-16v-128c0-8.84 7.16-16 16-16z" stroke="#4881b3" stroke-width="3" fill="#f5fbff"/><path d="M-480 526.67h200" stroke="#4881b3" stroke-width="3" fill="none"/><use xlink:href="#s" transform="matrix(1,0,0,1,-460,474.6666666666672) translate(64.41358024691358 30.488888888888887)"/><use xlink:href="#t" transform="matrix(1,0,0,1,-460,536.6666666666672) translate(5.247530864197557 35.022222222222226)"/><use xlink:href="#u" transform="matrix(1,0,0,1,-460,536.6666666666672) translate(67.46851851851852 35.022222222222226)"/><use xlink:href="#v" transform="matrix(1,0,0,1,-460,536.6666666666672) translate(117.34506172839504 35.022222222222226)"/><use xlink:href="#w" transform="matrix(1,0,0,1,-460,536.6666666666672) translate(28.346604938271632 61.95555555555555)"/><path d="M-1099 940.13l.07.82.18.76.3.73.4.67.52.6.6.5.66.42.73.3.76.18.82.07h202.54v2h-202.62l-1.06-.1-1.06-.24-1.02-.42-.94-.57-.83-.7-.72-.85-.57-.93-.42-1.02-.26-1.07-.08-1.05v-33.03h2zm720 .08l-.08 1.06-.26 1.07-.42 1.02-.57.93-.72.84-.83.7-.94.6-1.02.4-1.06.26-1.06.1h-189v-2h188.92l.82-.08.76-.18.73-.3.67-.4.6-.52.5-.6.4-.67.3-.72.2-.75.06-.82V654.67h2z" stroke="#224c72" stroke-width=".05" fill="#224c72"/><path d="M-1099 907.2h-2v-1.03h2z" fill="#224c72"/><path d="M-1098.97 907.22h-2.06v-1.08h2.06zm-2-1.03v.97h1.94v-.98z" stroke="#224c72" stroke-width=".05" fill="#224c72"/><path d="M-375.37 653.67h-9.26l4.63-14.27z" fill="#224c72"/><path d="M-374 654.67h-12l6-18.5zm-9.26-2h6.52l-3.26-10.03z" stroke="#224c72" stroke-width=".05" fill="#224c72"/><use xlink:href="#x" transform="matrix(1,0,0,1,-891.4214521452145,932.7000000000005) translate(0 17.95555555555555)"/><path d="M-213.98 555.67h-63.52v-2h63.52zm213.98 0h-46.02v-2H0z" stroke="#224c72" stroke-width=".05" fill="#224c72"/><path d="M-277.47 555.67h-1.03v-2h1.03z" fill="#224c72"/><path d="M-277.45 555.7h-1.07v-2.06h1.07zm-1.03-2v1.94h.98v-1.95z" stroke="#224c72" stroke-width=".05" fill="#224c72"/><path d="M15.26 554.67L1 559.3v-9.27z" fill="#224c72"/><path d="M18.5 554.67l-18.5 6v-12zM2 557.93l10.03-3.26L2 551.4z" stroke="#224c72" stroke-width=".05" fill="#224c72"/><use xlink:href="#y" transform="matrix(1,0,0,1,-213.97962962962958,541.2000000000005) translate(0 17.95555555555555)"/><path d="M204 474.67c8.84 0 16 7.16 16 16v128c0 8.83-7.16 16-16 16H36c-8.84 0-16-7.17-16-16v-128c0-8.84 7.16-16 16-16z" stroke="#4881b3" stroke-width="3" fill="#f5fbff"/><path d="M20 526.67h200" stroke="#4881b3" stroke-width="3" fill="none"/><use xlink:href="#z" transform="matrix(1,0,0,1,40,474.6666666666672) translate(64.41358024691358 30.488888888888887)"/><use xlink:href="#A" transform="matrix(1,0,0,1,40,536.6666666666672) translate(19.61820987654324 35.022222222222226)"/><use xlink:href="#B" transform="matrix(1,0,0,1,40,536.6666666666672) translate(58.17901234567902 61.95555555555555)"/><path d="M120 637.17v26.5a6 6 0 0 1-6 6h-308a6 6 0 0 0-6 6v9" stroke="#224c72" stroke-width="2" fill="none"/><path d="M121 637.2h-2v-1.03h2z" stroke="#224c72" stroke-width=".05" fill="#224c72"/><path d="M-200 699.93l-4.63-14.26h9.26z" stroke="#224c72" stroke-width="2" fill="#224c72"/><path d="M-116 704.67c8.84 0 16 7.16 16 16v128c0 8.83-7.16 16-16 16h-168c-8.84 0-16-7.17-16-16v-128c0-8.84 7.16-16 16-16z" stroke="#4881b3" stroke-width="3" fill="#f5fbff"/><path d="M-300 756.67h200" stroke="#4881b3" stroke-width="3" fill="none"/><use xlink:href="#C" transform="matrix(1,0,0,1,-280,704.6666666666672) translate(55.061728395061735 30.488888888888887)"/><use xlink:href="#D" transform="matrix(1,0,0,1,-280,766.6666666666672) translate(32.08734567901237 35.022222222222226)"/><use xlink:href="#E" transform="matrix(1,0,0,1,-280,766.6666666666672) translate(38.29074074074076 61.95555555555555)"/><path d="M120 637.17v47.5" stroke="#224c72" stroke-width="2" fill="none"/><path d="M121 637.2h-2v-1.03h2z" stroke="#224c72" stroke-width=".05" fill="#224c72"/><path d="M120 699.93l-4.64-14.26h9.28z" stroke="#224c72" stroke-width="2" fill="#224c72"/><path d="M204 704.67c8.84 0 16 7.16 16 16v128c0 8.83-7.16 16-16 16H36c-8.84 0-16-7.17-16-16v-128c0-8.84 7.16-16 16-16z" stroke="#4881b3" stroke-width="3" fill="#f5fbff"/><path d="M20 756.67h200" stroke="#4881b3" stroke-width="3" fill="none"/><use xlink:href="#F" transform="matrix(1,0,0,1,40,704.6666666666672) translate(55.061728395061735 30.488888888888887)"/><use xlink:href="#G" transform="matrix(1,0,0,1,40,766.6666666666672) translate(30.216975308642 35.022222222222226)"/><use xlink:href="#H" transform="matrix(1,0,0,1,40,766.6666666666672) translate(18.9635802469136 61.95555555555555)"/><use xlink:href="#I" transform="matrix(1,0,0,1,40,766.6666666666672) translate(86.29691358024692 61.95555555555555)"/><path d="M120 637.17v26.5a6 6 0 0 0 6 6h328a6 6 0 0 1 6 6v9" stroke="#224c72" stroke-width="2" fill="none"/><path d="M121 637.2h-2v-1.03h2z" stroke="#224c72" stroke-width=".05" fill="#224c72"/><path d="M460 699.93l-4.63-14.26h9.26z" stroke="#224c72" stroke-width="2" fill="#224c72"/><path d="M544 704.67c8.84 0 16 7.16 16 16v128c0 8.83-7.16 16-16 16H376c-8.84 0-16-7.17-16-16v-128c0-8.84 7.16-16 16-16z" stroke="#4881b3" stroke-width="3" fill="#f5fbff"/><path d="M360 756.67h200" stroke="#4881b3" stroke-width="3" fill="none"/><use xlink:href="#J" transform="matrix(1,0,0,1,380,704.6666666666672) translate(55.061728395061735 30.488888888888887)"/><use xlink:href="#K" transform="matrix(1,0,0,1,380,766.6666666666672) translate(12.167901234567921 48.48888888888889)"/><use xlink:href="#L" transform="matrix(1,0,0,1,380,766.6666666666672) translate(116.72160493827158 48.48888888888889)"/><path d="M44 1184.67c8.84 0 16 7.16 16 16v128c0 8.83-7.16 16-16 16h-168c-8.84 0-16-7.17-16-16v-128c0-8.84 7.16-16 16-16z" stroke="#4881b3" stroke-width="3" fill="#f5fbff"/><path d="M-140 1236.67H60" stroke="#4881b3" stroke-width="3" fill="none"/><use xlink:href="#M" transform="matrix(1,0,0,1,-120,1184.6666666666672) translate(55.061728395061735 30.488888888888887)"/><use xlink:href="#N" transform="matrix(1,0,0,1,-120,1246.6666666666672) translate(8.395987654321004 21.555555555555564)"/><use xlink:href="#O" transform="matrix(1,0,0,1,-120,1246.6666666666672) translate(108.08672839506171 21.555555555555564)"/><use xlink:href="#P" transform="matrix(1,0,0,1,-120,1246.6666666666672) translate(15.22283950617286 48.48888888888889)"/><use xlink:href="#Q" transform="matrix(1,0,0,1,-120,1246.6666666666672) translate(40.161111111111126 48.48888888888889)"/><use xlink:href="#R" transform="matrix(1,0,0,1,-120,1246.6666666666672) translate(124.88888888888887 48.48888888888889)"/><use xlink:href="#S" transform="matrix(1,0,0,1,-120,1246.6666666666672) translate(27.66080246913583 75.42222222222222)"/><path d="M-199 984.66h-2V954.6h2zm0-83.93h-2v-33.56h2z" stroke="#224c72" stroke-width=".05" fill="#224c72"/><path d="M-199 867.2h-2v-1.03h2z" fill="#224c72"/><path d="M-198.97 867.22h-2.06v-1.08h2.06zm-2-1.03v.97h1.94v-.98z" stroke="#224c72" stroke-width=".05" fill="#224c72"/><path d="M-200 999.93l-4.63-14.26h9.26z" fill="#224c72"/><path d="M-200 1003.17l-6-18.5h12zm-3.26-16.5l3.26 10.03 3.26-10.04z" stroke="#224c72" stroke-width=".05" fill="#224c72"/><use xlink:href="#T" transform="matrix(1,0,0,1,-268.4867283950617,900.7333333333335) translate(0.0049999999999954525 17.95555555555555)"/><use xlink:href="#U" transform="matrix(1,0,0,1,-268.4867283950617,900.7333333333335) translate(21.888333333333314 44.88888888888887)"/><path d="M-116 1004.67c8.84 0 16 7.16 16 16v128c0 8.83-7.16 16-16 16h-168c-8.84 0-16-7.17-16-16v-128c0-8.84 7.16-16 16-16z" stroke="#4881b3" stroke-width="3" fill="#f5fbff"/><path d="M-300 1056.67h200" stroke="#4881b3" stroke-width="3" fill="none"/><use xlink:href="#V" transform="matrix(1,0,0,1,-280,1004.6666666666672) translate(64.41358024691358 30.488888888888887)"/><use xlink:href="#W" transform="matrix(1,0,0,1,-280,1066.6666666666672) translate(28.907716049382735 35.022222222222226)"/><use xlink:href="#X" transform="matrix(1,0,0,1,-280,1066.6666666666672) translate(112.38858024691356 35.022222222222226)"/><use xlink:href="#Y" transform="matrix(1,0,0,1,-280,1066.6666666666672) translate(25.19814814814817 61.95555555555555)"/><use xlink:href="#Z" transform="matrix(1,0,0,1,-280,1066.6666666666672) translate(86.17222222222222 61.95555555555555)"/><path d="M-39 1164.66h-2v-48.53h2zm160-145.95l-.08 1.06-.26 1.07-.42 1.02-.57.93-.72.84-.83.7-.94.6-1.02.4-1.06.26-1.06.1h-148l-.82.05-.76.18-.73.3-.67.42-.6.5-.5.6-.4.68-.3.72-.2.77-.06.8v58.5h-2v-58.57l.08-1.06.26-1.07.42-1 .57-.95.72-.84.83-.7.94-.57 1.02-.42 1.06-.25 1.06-.08h148l.82-.07.76-.18.73-.3.67-.4.6-.52.5-.6.4-.67.3-.72.2-.75.06-.82V867.17h2z" stroke="#224c72" stroke-width=".05" fill="#224c72"/><path d="M121 867.2h-2v-1.03h2z" fill="#224c72"/><path d="M121.03 867.22h-2.06v-1.08h2.06zm-2-1.03v.97h1.94v-.98z" stroke="#224c72" stroke-width=".05" fill="#224c72"/><path d="M-40 1179.93l-4.63-14.27h9.27z" fill="#224c72"/><path d="M-40 1183.17l-6-18.5h12zm-3.26-16.5l3.26 10.02 3.26-10.04z" stroke="#224c72" stroke-width=".05" fill="#224c72"/><use xlink:href="#aa" transform="matrix(1,0,0,1,-86.60339506172838,1089.2000000000005) translate(0 17.95555555555555)"/><path d="M281 1164.66h-2v-44.53h2zm-160-146.03l.06.82.2.76.3.73.4.67.5.6.6.5.67.42.73.3.76.18.82.07h148l1.06.08 1.06.26 1.02.43.94.57.83.7.72.85.57.94.42 1 .26 1.07.08 1.06v62.57h-2v-62.5l-.06-.82-.2-.76-.3-.72-.4-.67-.5-.6-.6-.5-.67-.42-.73-.3-.76-.17-.82-.06h-148l-1.06-.1-1.06-.24-1.02-.42-.94-.57-.83-.7-.72-.85-.57-.93-.42-1.02-.26-1.07-.08-1.05V867.18h2z" stroke="#224c72" stroke-width=".05" fill="#224c72"/><path d="M121 867.2h-2v-1.03h2z" fill="#224c72"/><path d="M121.03 867.22h-2.06v-1.08h2.06zm-2-1.03v.97h1.94v-.98z" stroke="#224c72" stroke-width=".05" fill="#224c72"/><path d="M280 1179.93l-4.63-14.27h9.26z" fill="#224c72"/><path d="M280 1183.17l-6-18.5h12zm-3.26-16.5l3.26 10.02 3.26-10.04z" stroke="#224c72" stroke-width=".05" fill="#224c72"/><use xlink:href="#ab" transform="matrix(1,0,0,1,222.14320987654324,1093.2000000000005) translate(0 17.95555555555555)"/><path d="M364 1184.67c8.84 0 16 7.16 16 16v128c0 8.83-7.16 16-16 16H196c-8.84 0-16-7.17-16-16v-128c0-8.84 7.16-16 16-16z" stroke="#4881b3" stroke-width="3" fill="#f5fbff"/><path d="M180 1236.67h200" stroke="#4881b3" stroke-width="3" fill="none"/><use xlink:href="#ac" transform="matrix(1,0,0,1,200,1184.6666666666672) translate(55.061728395061735 30.488888888888887)"/><use xlink:href="#N" transform="matrix(1,0,0,1,200,1246.6666666666672) translate(8.395987654321004 21.555555555555564)"/><use xlink:href="#O" transform="matrix(1,0,0,1,200,1246.6666666666672) translate(108.08672839506171 21.555555555555564)"/><use xlink:href="#P" transform="matrix(1,0,0,1,200,1246.6666666666672) translate(33.3030864197531 48.48888888888889)"/><use xlink:href="#ad" transform="matrix(1,0,0,1,200,1246.6666666666672) translate(58.241358024691365 48.48888888888889)"/><use xlink:href="#ae" transform="matrix(1,0,0,1,200,1246.6666666666672) translate(109.30246913580245 48.48888888888889)"/><use xlink:href="#af" transform="matrix(1,0,0,1,200,1246.6666666666672) translate(47.64259259259261 75.42222222222222)"/><path d="M461 984.66h-2V946.6h2zm0-91.93h-2v-25.56h2z" stroke="#224c72" stroke-width=".05" fill="#224c72"/><path d="M461 867.2h-2v-1.03h2z" fill="#224c72"/><path d="M461.02 867.22h-2.04v-1.08h2.04zm-2-1.03v.97h1.96v-.98z" stroke="#224c72" stroke-width=".05" fill="#224c72"/><path d="M460 999.93l-4.63-14.26h9.26z" fill="#224c72"/><path d="M460 1003.17l-6-18.5h12zm-3.26-16.5L460 996.7l3.26-10.04z" stroke="#224c72" stroke-width=".05" fill="#224c72"/><use xlink:href="#ag" transform="matrix(1,0,0,1,380.16635802469136,892.7333333333335) translate(30.11796296296295 17.95555555555555)"/><use xlink:href="#ah" transform="matrix(1,0,0,1,380.16635802469136,892.7333333333335) translate(0.0049999999999954525 44.88888888888887)"/><path d="M544 1004.67c8.84 0 16 7.16 16 16v128c0 8.83-7.16 16-16 16H376c-8.84 0-16-7.17-16-16v-128c0-8.84 7.16-16 16-16z" stroke="#4881b3" stroke-width="3" fill="#f5fbff"/><path d="M360 1056.67h200" stroke="#4881b3" stroke-width="3" fill="none"/><use xlink:href="#ai" transform="matrix(1,0,0,1,380,1004.6666666666672) translate(64.41358024691358 30.488888888888887)"/><use xlink:href="#N" transform="matrix(1,0,0,1,380,1066.6666666666672) translate(8.395987654321004 21.555555555555564)"/><use xlink:href="#O" transform="matrix(1,0,0,1,380,1066.6666666666672) translate(108.08672839506171 21.555555555555564)"/><use xlink:href="#P" transform="matrix(1,0,0,1,380,1066.6666666666672) translate(11.544444444444466 48.48888888888889)"/><use xlink:href="#aj" transform="matrix(1,0,0,1,380,1066.6666666666672) translate(36.48271604938273 48.48888888888889)"/><use xlink:href="#R" transform="matrix(1,0,0,1,380,1066.6666666666672) translate(128.56728395061725 48.48888888888889)"/><use xlink:href="#ak" transform="matrix(1,0,0,1,380,1066.6666666666672) translate(40.161111111111126 75.42222222222222)"/><path d="M620 710.67a6 6 0 0 1 6-6h68a6 6 0 0 1 6 6v148a6 6 0 0 1-6 6h-68a6 6 0 0 1-6-6z" fill="none"/><path d="M620 864.67c5.52 0 10-4.48 10-10v-60c0-5.53 4.48-10 10-10-5.52 0-10-4.48-10-10v-60c0-5.53-4.48-10-10-10" stroke="#4881b3" stroke-width="3" fill="none"/><use xlink:href="#al" transform="matrix(1,0,0,1,655,709.6666666666672) translate(0 66.02222222222223)"/><use xlink:href="#am" transform="matrix(1,0,0,1,655,709.6666666666672) translate(0 92.95555555555555)"/><path d="M204 1524.67c8.84 0 16 7.16 16 16v128c0 8.83-7.16 16-16 16H36c-8.84 0-16-7.17-16-16v-128c0-8.84 7.16-16 16-16z" stroke="#4881b3" stroke-width="3" fill="#f5fbff"/><path d="M20 1576.67h200" stroke="#4881b3" stroke-width="3" fill="none"/><use xlink:href="#an" transform="matrix(1,0,0,1,40,1524.6666666666672) translate(64.41358024691358 30.488888888888887)"/><use xlink:href="#ao" transform="matrix(1,0,0,1,40,1586.6666666666672) translate(9.705246913580282 48.48888888888889)"/><use xlink:href="#ap" transform="matrix(1,0,0,1,40,1586.6666666666672) translate(84.33302469135803 48.48888888888889)"/><path d="M-199 1598.63l.06.82.2.76.3.73.4.67.5.6.6.5.67.42.73.3.76.18.82.07H0v2h-194.04l-1.06-.1-1.06-.24-1.02-.42-.94-.57-.83-.7-.72-.85-.57-.93-.42-1.02-.26-1.07-.08-1.05v-90.57h2zm0-117.43h-2v-314.03h2z" stroke="#224c72" stroke-width=".05" fill="#224c72"/><path d="M-199 1167.2h-2v-1.03h2z" fill="#224c72"/><path d="M-198.97 1167.22h-2.06v-1.08h2.06zm-2-1.03v.97h1.94v-.98z" stroke="#224c72" stroke-width=".05" fill="#224c72"/><path d="M15.26 1604.67L1 1609.3v-9.27z" fill="#224c72"/><path d="M18.5 1604.67l-18.5 6v-12.02zM2 1607.93l10.03-3.26L2 1601.4z" stroke="#224c72" stroke-width=".05" fill="#224c72"/><use xlink:href="#aq" transform="matrix(1,0,0,1,-340.0907407407408,1481.2000000000005) translate(0 17.95555555555555)"/><path d="M-39 1428.63l.06.82.2.76.3.73.4.67.5.6.6.5.67.42.73.3.76.18.82.07h148l1.06.08 1.06.26 1.02.43.94.57.83.7.72.85.57.94.42 1 .26 1.07.08 1.06v64.03h-2v-63.95l-.06-.82-.2-.76-.3-.72-.4-.67-.5-.6-.6-.5-.67-.42-.73-.3-.76-.17-.82-.06h-148l-1.06-.1-1.06-.24-1.02-.42-.94-.57-.83-.7-.72-.85-.57-.93-.42-1.02-.26-1.07-.08-1.05v-33.68h2zm0-60.55h-2v-20.9h2z" stroke="#224c72" stroke-width=".05" fill="#224c72"/><path d="M-39 1347.2h-2v-1.03h2z" fill="#224c72"/><path d="M-38.98 1347.22h-2.05v-1.08h2.05zm-2-1.03v.97h1.95v-.98z" stroke="#224c72" stroke-width=".05" fill="#224c72"/><path d="M120 1519.93l-4.64-14.27h9.28z" fill="#224c72"/><path d="M120 1523.17l-6-18.5h12zm-3.26-16.5l3.26 10.02 3.26-10.04z" stroke="#224c72" stroke-width=".05" fill="#224c72"/><use xlink:href="#ar" transform="matrix(1,0,0,1,-165.7824074074074,1368.0825256975038) translate(0 17.95555555555555)"/><path d="M281 1428.7l-.08 1.06-.26 1.07-.42 1.02-.57.93-.72.84-.83.7-.94.6-1.02.4-1.06.26-1.06.1h-148l-.82.05-.76.18-.73.3-.67.42-.6.5-.5.6-.4.68-.3.72-.2.77-.06.8v63.96h-2v-64.03l.08-1.06.26-1.07.42-1 .57-.95.72-.84.83-.7.94-.57 1.02-.42 1.06-.25 1.06-.08h148l.82-.07.76-.18.73-.3.67-.4.6-.52.5-.6.4-.66.3-.73.2-.75.06-.82v-35.6h2zm0-62.6h-2v-18.93h2z" stroke="#224c72" stroke-width=".05" fill="#224c72"/><path d="M281 1347.2h-2v-1.03h2z" fill="#224c72"/><path d="M281.02 1347.22h-2.04v-1.08h2.04zm-2-1.03v.97h1.96v-.98z" stroke="#224c72" stroke-width=".05" fill="#224c72"/><path d="M120 1519.93l-4.64-14.27h9.28z" fill="#224c72"/><path d="M120 1523.17l-6-18.5h12zm-3.26-16.5l3.26 10.02 3.26-10.04z" stroke="#224c72" stroke-width=".05" fill="#224c72"/><use xlink:href="#as" transform="matrix(1,0,0,1,143.6811728395062,1366.1030837004403) translate(0 17.95555555555555)"/><path d="M461 1598.7l-.08 1.06-.26 1.07-.42 1.02-.57.93-.72.84-.83.7-.94.6-1.02.4-1.06.26-1.06.1H240v-2h213.96l.82-.08.76-.18.73-.3.67-.4.6-.52.5-.6.4-.66.3-.73.2-.75.06-.82v-80.5h2zm0-107.5h-2v-324.03h2z" stroke="#224c72" stroke-width=".05" fill="#224c72"/><path d="M461 1167.2h-2v-1.03h2z" fill="#224c72"/><path d="M461.02 1167.22h-2.04v-1.08h2.04zm-2-1.03v.97h1.96v-.98z" stroke="#224c72" stroke-width=".05" fill="#224c72"/><path d="M239 1609.3l-14.26-4.63 14.26-4.64z" fill="#224c72"/><path d="M240 1610.68l-18.5-6 18.5-6.03zm-12.03-6l10.03 3.25v-6.52z" stroke="#224c72" stroke-width=".05" fill="#224c72"/><use xlink:href="#at" transform="matrix(1,0,0,1,330.5391975308642,1491.2000000000005) translate(0 17.95555555555555)"/><path d="M321 1824.66h-2v-26.53h2zm-200-106.03l.06.82.2.76.3.73.4.67.5.6.6.5.67.42.73.3.76.18.82.07h188l1.06.08 1.06.26 1.02.43.94.57.83.7.72.85.57.94.42 1 .26 1.07.08 1.06v40.57h-2v-40.5l-.06-.82-.2-.76-.3-.72-.4-.67-.5-.6-.6-.5-.67-.42-.73-.3-.76-.17-.82-.06h-188l-1.06-.1-1.06-.24-1.02-.42-.94-.57-.83-.7-.72-.85-.57-.93-.42-1.02-.26-1.07-.08-1.05v-31.53h2z" stroke="#224c72" stroke-width=".05" fill="#224c72"/><path d="M121 1687.2h-2v-1.03h2z" fill="#224c72"/><path d="M121.03 1687.22h-2.06v-1.08h2.06zm-2-1.03v.97h1.94v-.98z" stroke="#224c72" stroke-width=".05" fill="#224c72"/><path d="M320 1839.93l-4.63-14.27h9.26z" fill="#224c72"/><path d="M320 1843.17l-6-18.5h12zm-3.26-16.5l3.26 10.02 3.26-10.04z" stroke="#224c72" stroke-width=".05" fill="#224c72"/><g><use xlink:href="#au" transform="matrix(1,0,0,1,256.50092592592597,1771.2000000000005) translate(0 17.95555555555555)"/></g><path d="M404 1844.67c8.84 0 16 7.16 16 16v128c0 8.83-7.16 16-16 16H236c-8.84 0-16-7.17-16-16v-128c0-8.84 7.16-16 16-16z" stroke="#4881b3" stroke-width="3" fill="#f5fbff"/><path d="M220 1896.67h200" stroke="#4881b3" stroke-width="3" fill="none"/><g><use xlink:href="#av" transform="matrix(1,0,0,1,240,1844.6666666666672) translate(64.41358024691358 30.488888888888887)"/></g><g><use xlink:href="#h" transform="matrix(1,0,0,1,240,1906.6666666666672) translate(5.216358024691374 35.022222222222226)"/><use xlink:href="#aw" transform="matrix(1,0,0,1,240,1906.6666666666672) translate(81.21574074074074 35.022222222222226)"/><use xlink:href="#X" transform="matrix(1,0,0,1,240,1906.6666666666672) translate(136.07993827160493 35.022222222222226)"/><use xlink:href="#ax" transform="matrix(1,0,0,1,240,1906.6666666666672) translate(14.038271604938302 61.95555555555555)"/><use xlink:href="#ay" transform="matrix(1,0,0,1,240,1906.6666666666672) translate(42.59259259259261 61.95555555555555)"/><use xlink:href="#ap" transform="matrix(1,0,0,1,240,1906.6666666666672) translate(80 61.95555555555555)"/></g><path d="M200 2130.67a6 6 0 0 1 6-6h228a6 6 0 0 1 6 6v48a6 6 0 0 1-6 6H206a6 6 0 0 1-6-6z" fill="#f5fbff"/><path d="M440 2124.67H206a6 6 0 0 0-6 6v48a6 6 0 0 0 6 6h234M248 2124.67v60" stroke="#4881b3" stroke-width="3" fill="none"/><g><use xlink:href="#az" transform="matrix(1,0,0,1,212,2136.666666666667) translate(-4.833333333333325 22.488888888888887)"/></g><g><use xlink:href="#b" transform="matrix(1,0,0,1,260,2136.666666666667) translate(29.82160493827164 22.488888888888887)"/></g><path d="M321 2104.66h-2V2068h2zm0-63.6h-2v-33.9h2z" stroke="#224c72" stroke-width=".05" fill="#224c72"/><path d="M321 2007.2h-2v-1.03h2z" fill="#224c72"/><path d="M321.02 2007.22h-2.04v-1.08h2.04zm-2-1.03v.97h1.96v-.98z" stroke="#224c72" stroke-width=".05" fill="#224c72"/><path d="M320 2119.93l-4.63-14.26h9.26z" fill="#224c72"/><path d="M320 2123.17l-6-18.5h12zm-3.26-16.5l3.26 10.03 3.26-10.03z" stroke="#224c72" stroke-width=".05" fill="#224c72"/><g><use xlink:href="#aA" transform="matrix(1,0,0,1,206.71790123456793,2041.0701298701297) translate(0 17.95555555555555)"/></g><path d="M120 1687.17v31.5a6 6 0 0 1-6 6H-54a6 6 0 0 0-6 6v104" stroke="#224c72" stroke-width="2" fill="none"/><path d="M121 1687.2h-2v-1.03h2z" stroke="#224c72" stroke-width=".05" fill="#224c72"/><path d="M-60 1849.93l-4.64-14.27h9.27z" stroke="#224c72" stroke-width="2" fill="#224c72"/><path d="M-200 1860.67a6 6 0 0 1 6-6H74a6 6 0 0 1 6 6v48a6 6 0 0 1-6 6h-268a6 6 0 0 1-6-6z" fill="#f5fbff"/><path d="M80 1854.67h-274a6 6 0 0 0-6 6v48a6 6 0 0 0 6 6H80M-144 1854.67v60" stroke="#4881b3" stroke-width="3" fill="none"/><g><use xlink:href="#aB" transform="matrix(1,0,0,1,-186,1866.6666666666672) translate(-9.660185185185174 22.488888888888887)"/></g><g><use xlink:href="#q" transform="matrix(1,0,0,1,-130,1866.6666666666672) translate(73.09290123456792 22.488888888888887)"/></g><path d="M-59.52 2148.63l.06.82.18.76.3.74.4.66.52.6.6.5.67.42.73.3.76.18.8.07H180v2H-54.56l-1.06-.1-1.07-.24-1-.42-.94-.57-.84-.7-.7-.85-.6-.93-.4-1.02-.26-1.07-.1-1.05.02-82.57h2zm0-109.43h-2v-122.03h2z" stroke="#224c72" stroke-width=".05" fill="#224c72"/><path d="M-59.52 1916.17v1.02h-2v-1.03z" fill="#224c72"/><path d="M-59.5 1916.14v1.08h-2.05v-1.08zm-2 1.03h1.95v-.98h-1.95z" stroke="#224c72" stroke-width=".05" fill="#224c72"/><path d="M195.26 2154.67L181 2159.3v-9.27z" fill="#224c72"/><path d="M198.5 2154.67l-18.5 6v-12zm-16.5 3.26l10.03-3.26-10.03-3.26z" stroke="#224c72" stroke-width=".05" fill="#224c72"/><g><use xlink:href="#aC" transform="matrix(1,0,0,1,-102.7953705880704,2039.2000000000003) translate(0 17.95555555555555)"/></g><defs><path fill="#1d262b" d="M160-131c35 5 61 23 61 61C221 17 115-2 30 0v-248c76 3 177-17 177 60 0 33-19 50-47 57zm-97-11c50-1 110 9 110-42 0-47-63-36-110-37v79zm0 115c55-2 124 14 124-45 0-56-70-42-124-44v89" id="aD"/><path fill="#1d262b" d="M33 0v-38h34V0H33" id="aE"/><path fill="#1d262b" d="M101-251c68 0 85 55 85 127S166 4 100 4C33 4 14-52 14-124c0-73 17-127 87-127zm-1 229c47 0 54-49 54-102s-4-102-53-102c-51 0-55 48-55 102 0 53 5 102 54 102" id="aF"/><g id="a"><use transform="matrix(0.06234567901234565,0,0,0.06234567901234565,0,0)" xlink:href="#aD"/><use transform="matrix(0.06234567901234565,0,0,0.06234567901234565,14.962962962962957,0)" xlink:href="#aE"/><use transform="matrix(0.06234567901234565,0,0,0.06234567901234565,21.19753086419752,0)" xlink:href="#aF"/></g><path fill="#1d262b" d="M24 0v-261h32V0H24" id="aG"/><path fill="#1d262b" d="M100-194c62-1 85 37 85 99 1 63-27 99-86 99S16-35 15-95c0-66 28-99 85-99zM99-20c44 1 53-31 53-75 0-43-8-75-51-75s-53 32-53 75 10 74 51 75" id="aH"/><path fill="#1d262b" d="M96-169c-40 0-48 33-48 73s9 75 48 75c24 0 41-14 43-38l32 2c-6 37-31 61-74 61-59 0-76-41-82-99-10-93 101-131 147-64 4 7 5 14 7 22l-32 3c-4-21-16-35-41-35" id="aI"/><path fill="#1d262b" d="M143 0L79-87 56-68V0H24v-261h32v163l83-92h37l-77 82L181 0h-38" id="aJ"/><path fill="#1d262b" d="M106-169C34-169 62-67 57 0H25v-261h32l-1 103c12-21 28-36 61-36 89 0 53 116 60 194h-32v-121c2-32-8-49-39-48" id="aK"/><path fill="#1d262b" d="M141-36C126-15 110 5 73 4 37 3 15-17 15-53c-1-64 63-63 125-63 3-35-9-54-41-54-24 1-41 7-42 31l-33-3c5-37 33-52 76-52 45 0 72 20 72 64v82c-1 20 7 32 28 27v20c-31 9-61-2-59-35zM48-53c0 20 12 33 32 33 41-3 63-29 60-74-43 2-92-5-92 41" id="aL"/><path fill="#1d262b" d="M24-231v-30h32v30H24zM24 0v-190h32V0H24" id="aM"/><path fill="#1d262b" d="M117-194c89-4 53 116 60 194h-32v-121c0-31-8-49-39-48C34-167 62-67 57 0H25l-1-190h30c1 10-1 24 2 32 11-22 29-35 61-36" id="aN"/><g id="b"><use transform="matrix(0.06234567901234565,0,0,0.06234567901234565,0,0)" xlink:href="#aD"/><use transform="matrix(0.06234567901234565,0,0,0.06234567901234565,14.962962962962957,0)" xlink:href="#aG"/><use transform="matrix(0.06234567901234565,0,0,0.06234567901234565,19.888271604938264,0)" xlink:href="#aH"/><use transform="matrix(0.06234567901234565,0,0,0.06234567901234565,32.35740740740739,0)" xlink:href="#aI"/><use transform="matrix(0.06234567901234565,0,0,0.06234567901234565,43.57962962962961,0)" xlink:href="#aJ"/><use transform="matrix(0.06234567901234565,0,0,0.06234567901234565,54.80185185185182,0)" xlink:href="#aI"/><use transform="matrix(0.06234567901234565,0,0,0.06234567901234565,66.02407407407404,0)" xlink:href="#aK"/><use transform="matrix(0.06234567901234565,0,0,0.06234567901234565,78.49320987654316,0)" xlink:href="#aL"/><use transform="matrix(0.06234567901234565,0,0,0.06234567901234565,90.96234567901229,0)" xlink:href="#aM"/><use transform="matrix(0.06234567901234565,0,0,0.06234567901234565,95.8876543209876,0)" xlink:href="#aN"/></g><path fill="#1d262b" d="M126-127c33 6 58 20 58 59 0 88-139 92-164 29-3-8-5-16-6-25l32-3c6 27 21 44 54 44 32 0 52-15 52-46 0-38-36-46-79-43v-28c39 1 72-4 72-42 0-27-17-43-46-43-28 0-47 15-49 41l-32-3c6-42 35-63 81-64 48-1 79 21 79 65 0 36-21 52-52 59" id="aO"/><path fill="#1d262b" d="M27 0v-27h64v-190l-56 39v-29l58-41h29v221h61V0H27" id="aP"/><g id="c"><use transform="matrix(0.06234567901234565,0,0,0.06234567901234565,0,0)" xlink:href="#aO"/><use transform="matrix(0.06234567901234565,0,0,0.06234567901234565,12.46913580246913,0)" xlink:href="#aE"/><use transform="matrix(0.06234567901234565,0,0,0.06234567901234565,18.703703703703695,0)" xlink:href="#aP"/></g><path fill="#1d262b" d="M30 0v-248h187v28H63v79h144v27H63v87h162V0H30" id="aQ"/><path fill="#1d262b" d="M108 0H70L1-190h34L89-25l56-165h34" id="aR"/><path fill="#1d262b" d="M100-194c63 0 86 42 84 106H49c0 40 14 67 53 68 26 1 43-12 49-29l28 8c-11 28-37 45-77 45C44 4 14-33 15-96c1-61 26-98 85-98zm52 81c6-60-76-77-97-28-3 7-6 17-6 28h103" id="aS"/><path fill="#1d262b" d="M59-47c-2 24 18 29 38 22v24C64 9 27 4 27-40v-127H5v-23h24l9-43h21v43h35v23H59v120" id="aT"/><g id="d"><use transform="matrix(0.06234567901234565,0,0,0.06234567901234565,0,0)" xlink:href="#aQ"/><use transform="matrix(0.06234567901234565,0,0,0.06234567901234565,14.962962962962957,0)" xlink:href="#aR"/><use transform="matrix(0.06234567901234565,0,0,0.06234567901234565,26.185185185185176,0)" xlink:href="#aS"/><use transform="matrix(0.06234567901234565,0,0,0.06234567901234565,38.65432098765431,0)" xlink:href="#aN"/><use transform="matrix(0.06234567901234565,0,0,0.06234567901234565,51.12345679012344,0)" xlink:href="#aT"/></g><path fill="#1d262b" d="M135-143c-3-34-86-38-87 0 15 53 115 12 119 90S17 21 10-45l28-5c4 36 97 45 98 0-10-56-113-15-118-90-4-57 82-63 122-42 12 7 21 19 24 35" id="aU"/><path fill="#1d262b" d="M114-163C36-179 61-72 57 0H25l-1-190h30c1 12-1 29 2 39 6-27 23-49 58-41v29" id="aV"/><g id="e"><use transform="matrix(0.06234567901234565,0,0,0.06234567901234565,0,0)" xlink:href="#aG"/><use transform="matrix(0.06234567901234565,0,0,0.06234567901234565,4.925308641975307,0)" xlink:href="#aM"/><use transform="matrix(0.06234567901234565,0,0,0.06234567901234565,9.850617283950614,0)" xlink:href="#aU"/><use transform="matrix(0.06234567901234565,0,0,0.06234567901234565,21.072839506172834,0)" xlink:href="#aT"/><use transform="matrix(0.06234567901234565,0,0,0.06234567901234565,27.3074074074074,0)" xlink:href="#aS"/><use transform="matrix(0.06234567901234565,0,0,0.06234567901234565,39.77654320987653,0)" xlink:href="#aN"/><use transform="matrix(0.06234567901234565,0,0,0.06234567901234565,52.24567901234566,0)" xlink:href="#aS"/><use transform="matrix(0.06234567901234565,0,0,0.06234567901234565,64.71481481481479,0)" xlink:href="#aV"/></g><path fill="#1d262b" d="M143 4C61 4 22-44 18-125c-5-107 100-154 193-111 17 8 29 25 37 43l-32 9c-13-25-37-40-76-40-61 0-88 39-88 99 0 61 29 100 91 101 35 0 62-11 79-27v-45h-74v-28h105v86C228-13 192 4 143 4" id="aW"/><path fill="#1d262b" d="M212-179c-10-28-35-45-73-45-59 0-87 40-87 99 0 60 29 101 89 101 43 0 62-24 78-52l27 14C228-24 195 4 139 4 59 4 22-46 18-125c-6-104 99-153 187-111 19 9 31 26 39 46" id="aX"/><path fill="#1d262b" d="M33 0v-248h34V0H33" id="aY"/><path fill="#1d262b" d="M30-248c118-7 216 8 213 122C240-48 200 0 122 0H30v-248zM63-27c89 8 146-16 146-99s-60-101-146-95v194" id="aZ"/><path fill="#1d262b" d="M87 75C49 33 22-17 22-94c0-76 28-126 65-167h31c-38 41-64 92-64 168S80 34 118 75H87" id="ba"/><path fill="#1d262b" d="M33-261c38 41 65 92 65 168S71 34 33 75H2C39 34 66-17 66-93S39-220 2-261h31" id="bb"/><g id="f"><use transform="matrix(0.06234567901234565,0,0,0.06234567901234565,0,0)" xlink:href="#aW"/><use transform="matrix(0.06234567901234565,0,0,0.06234567901234565,17.456790123456784,0)" xlink:href="#aS"/><use transform="matrix(0.06234567901234565,0,0,0.06234567901234565,29.925925925925917,0)" xlink:href="#aT"/><use transform="matrix(0.06234567901234565,0,0,0.06234567901234565,36.16049382716048,0)" xlink:href="#aX"/><use transform="matrix(0.06234567901234565,0,0,0.06234567901234565,52.308024691358,0)" xlink:href="#aY"/><use transform="matrix(0.06234567901234565,0,0,0.06234567901234565,58.54259259259256,0)" xlink:href="#aZ"/><use transform="matrix(0.06234567901234565,0,0,0.06234567901234565,74.69012345679009,0)" xlink:href="#ba"/><use transform="matrix(0.06234567901234565,0,0,0.06234567901234565,82.10925925925922,0)" xlink:href="#bb"/></g><path fill="#1d262b" d="M101-251c82-7 93 87 43 132L82-64C71-53 59-42 53-27h129V0H18c2-99 128-94 128-182 0-28-16-43-45-43s-46 15-49 41l-32-3c6-41 34-60 81-64" id="bc"/><g id="g"><use transform="matrix(0.06234567901234565,0,0,0.06234567901234565,0,0)" xlink:href="#aO"/><use transform="matrix(0.06234567901234565,0,0,0.06234567901234565,12.46913580246913,0)" xlink:href="#aE"/><use transform="matrix(0.06234567901234565,0,0,0.06234567901234565,18.703703703703695,0)" xlink:href="#bc"/></g><path fill="#1d262b" d="M141 0L90-78 38 0H4l68-98-65-92h35l48 74 47-74h35l-64 92 68 98h-35" id="bd"/><g id="h"><use transform="matrix(0.06234567901234565,0,0,0.06234567901234565,0,0)" xlink:href="#aQ"/><use transform="matrix(0.06234567901234565,0,0,0.06234567901234565,14.962962962962957,0)" xlink:href="#bd"/><use transform="matrix(0.06234567901234565,0,0,0.06234567901234565,26.185185185185176,0)" xlink:href="#aT"/><use transform="matrix(0.06234567901234565,0,0,0.06234567901234565,32.41975308641974,0)" xlink:href="#aV"/><use transform="matrix(0.06234567901234565,0,0,0.06234567901234565,39.838888888888874,0)" xlink:href="#aL"/><use transform="matrix(0.06234567901234565,0,0,0.06234567901234565,52.30802469135801,0)" xlink:href="#aI"/><use transform="matrix(0.06234567901234565,0,0,0.06234567901234565,63.53024691358023,0)" xlink:href="#aT"/></g><path fill="#1d262b" d="M68-38c1 34 0 65-14 84H32c9-13 17-26 17-46H33v-38h35" id="be"/><g id="i"><use transform="matrix(0.06234567901234565,0,0,0.06234567901234565,0,0)" xlink:href="#aX"/><use transform="matrix(0.06234567901234565,0,0,0.06234567901234565,16.147530864197524,0)" xlink:href="#aY"/><use transform="matrix(0.06234567901234565,0,0,0.06234567901234565,22.38209876543209,0)" xlink:href="#aZ"/><use transform="matrix(0.06234567901234565,0,0,0.06234567901234565,38.52962962962961,0)" xlink:href="#be"/></g><path fill="#1d262b" d="M210-169c-67 3-38 105-44 169h-31v-121c0-29-5-50-35-48C34-165 62-65 56 0H25l-1-190h30c1 10-1 24 2 32 10-44 99-50 107 0 11-21 27-35 58-36 85-2 47 119 55 194h-31v-121c0-29-5-49-35-48" id="bf"/><g id="j"><use transform="matrix(0.06234567901234565,0,0,0.06234567901234565,0,0)" xlink:href="#aT"/><use transform="matrix(0.06234567901234565,0,0,0.06234567901234565,6.234567901234565,0)" xlink:href="#aM"/><use transform="matrix(0.06234567901234565,0,0,0.06234567901234565,11.159876543209872,0)" xlink:href="#bf"/><use transform="matrix(0.06234567901234565,0,0,0.06234567901234565,29.801234567901222,0)" xlink:href="#aS"/></g><path fill="#1d262b" d="M115-194c55 1 70 41 70 98S169 2 115 4C84 4 66-9 55-30l1 105H24l-1-265h31l2 30c10-21 28-34 59-34zm-8 174c40 0 45-34 45-75s-6-73-45-74c-42 0-51 32-51 76 0 43 10 73 51 73" id="bg"/><g id="k"><use transform="matrix(0.06234567901234565,0,0,0.06234567901234565,0,0)" xlink:href="#aU"/><use transform="matrix(0.06234567901234565,0,0,0.06234567901234565,11.222222222222218,0)" xlink:href="#aT"/><use transform="matrix(0.06234567901234565,0,0,0.06234567901234565,17.456790123456784,0)" xlink:href="#aL"/><use transform="matrix(0.06234567901234565,0,0,0.06234567901234565,29.925925925925917,0)" xlink:href="#bf"/><use transform="matrix(0.06234567901234565,0,0,0.06234567901234565,48.567283950617266,0)" xlink:href="#bg"/></g><g id="l"><use transform="matrix(0.06234567901234565,0,0,0.06234567901234565,0,0)" xlink:href="#aO"/><use transform="matrix(0.06234567901234565,0,0,0.06234567901234565,12.46913580246913,0)" xlink:href="#aE"/><use transform="matrix(0.06234567901234565,0,0,0.06234567901234565,18.703703703703695,0)" xlink:href="#aO"/></g><path fill="#1d262b" d="M140-251c81 0 123 46 123 126C263-53 228-8 163 1c7 30 30 48 69 40v23c-55 16-95-15-103-61C56-3 17-48 17-125c0-80 42-126 123-126zm0 227c63 0 89-41 89-101s-29-99-89-99c-61 0-89 39-89 99S79-25 140-24" id="bh"/><path fill="#1d262b" d="M84 4C-5 8 30-112 23-190h32v120c0 31 7 50 39 49 72-2 45-101 50-169h31l1 190h-30c-1-10 1-25-2-33-11 22-28 36-60 37" id="bi"/><path fill="#1d262b" d="M179-190L93 31C79 59 56 82 12 73V49c39 6 53-20 64-50L1-190h34L92-34l54-156h33" id="bj"/><g id="m"><use transform="matrix(0.06234567901234565,0,0,0.06234567901234565,0,0)" xlink:href="#bh"/><use transform="matrix(0.06234567901234565,0,0,0.06234567901234565,17.456790123456784,0)" xlink:href="#bi"/><use transform="matrix(0.06234567901234565,0,0,0.06234567901234565,29.925925925925917,0)" xlink:href="#aS"/><use transform="matrix(0.06234567901234565,0,0,0.06234567901234565,42.39506172839505,0)" xlink:href="#aV"/><use transform="matrix(0.06234567901234565,0,0,0.06234567901234565,49.814197530864185,0)" xlink:href="#bj"/></g><path fill="#1d262b" d="M30-248c87 1 191-15 191 75 0 78-77 80-158 76V0H30v-248zm33 125c57 0 124 11 124-50 0-59-68-47-124-48v98" id="bk"/><path fill="#1d262b" d="M63-220v92h138v28H63V0H30v-248h175v28H63" id="bl"/><path fill="#1d262b" d="M185-189c-5-48-123-54-124 2 14 75 158 14 163 119 3 78-121 87-175 55-17-10-28-26-33-46l33-7c5 56 141 63 141-1 0-78-155-14-162-118-5-82 145-84 179-34 5 7 8 16 11 25" id="bm"/><g id="n"><use transform="matrix(0.06234567901234565,0,0,0.06234567901234565,0,0)" xlink:href="#aY"/><use transform="matrix(0.06234567901234565,0,0,0.06234567901234565,6.234567901234565,0)" xlink:href="#bk"/><use transform="matrix(0.06234567901234565,0,0,0.06234567901234565,21.19753086419752,0)" xlink:href="#bl"/><use transform="matrix(0.06234567901234565,0,0,0.06234567901234565,34.851234567901216,0)" xlink:href="#bm"/></g><path fill="#1d262b" d="M177-190C167-65 218 103 67 71c-23-6-38-20-44-43l32-5c15 47 100 32 89-28v-30C133-14 115 1 83 1 29 1 15-40 15-95c0-56 16-97 71-98 29-1 48 16 59 35 1-10 0-23 2-32h30zM94-22c36 0 50-32 50-73 0-42-14-75-50-75-39 0-46 34-46 75s6 73 46 73" id="bn"/><g id="o"><use transform="matrix(0.06234567901234565,0,0,0.06234567901234565,0,0)" xlink:href="#bn"/><use transform="matrix(0.06234567901234565,0,0,0.06234567901234565,12.46913580246913,0)" xlink:href="#aS"/><use transform="matrix(0.06234567901234565,0,0,0.06234567901234565,24.93827160493826,0)" xlink:href="#aT"/><use transform="matrix(0.06234567901234565,0,0,0.06234567901234565,31.172839506172828,0)" xlink:href="#aZ"/><use transform="matrix(0.06234567901234565,0,0,0.06234567901234565,47.320370370370355,0)" xlink:href="#aL"/><use transform="matrix(0.06234567901234565,0,0,0.06234567901234565,59.78950617283949,0)" xlink:href="#aT"/><use transform="matrix(0.06234567901234565,0,0,0.06234567901234565,66.02407407407405,0)" xlink:href="#aL"/><use transform="matrix(0.06234567901234565,0,0,0.06234567901234565,78.49320987654318,0)" xlink:href="#bl"/><use transform="matrix(0.06234567901234565,0,0,0.06234567901234565,92.14691358024687,0)" xlink:href="#aV"/><use transform="matrix(0.06234567901234565,0,0,0.06234567901234565,99.566049382716,0)" xlink:href="#aH"/><use transform="matrix(0.06234567901234565,0,0,0.06234567901234565,112.03518518518513,0)" xlink:href="#bf"/><use transform="matrix(0.06234567901234565,0,0,0.06234567901234565,130.67654320987648,0)" xlink:href="#aY"/><use transform="matrix(0.06234567901234565,0,0,0.06234567901234565,136.91111111111104,0)" xlink:href="#bk"/><use transform="matrix(0.06234567901234565,0,0,0.06234567901234565,151.874074074074,0)" xlink:href="#bl"/><use transform="matrix(0.06234567901234565,0,0,0.06234567901234565,165.52777777777771,0)" xlink:href="#bm"/><use transform="matrix(0.06234567901234565,0,0,0.06234567901234565,180.49074074074068,0)" xlink:href="#ba"/><use transform="matrix(0.06234567901234565,0,0,0.06234567901234565,187.9098765432098,0)" xlink:href="#bb"/></g><g id="p"><use transform="matrix(0.06234567901234565,0,0,0.06234567901234565,0,0)" xlink:href="#bl"/><use transform="matrix(0.06234567901234565,0,0,0.06234567901234565,13.653703703703698,0)" xlink:href="#bm"/><use transform="matrix(0.06234567901234565,0,0,0.06234567901234565,28.616666666666653,0)" xlink:href="#aE"/><use transform="matrix(0.06234567901234565,0,0,0.06234567901234565,34.851234567901216,0)" xlink:href="#aF"/></g><g id="q"><use transform="matrix(0.06234567901234565,0,0,0.06234567901234565,0,0)" xlink:href="#aY"/><use transform="matrix(0.06234567901234565,0,0,0.06234567901234565,6.234567901234565,0)" xlink:href="#bk"/><use transform="matrix(0.06234567901234565,0,0,0.06234567901234565,21.19753086419752,0)" xlink:href="#bl"/><use transform="matrix(0.06234567901234565,0,0,0.06234567901234565,34.851234567901216,0)" xlink:href="#bm"/></g><g id="r"><use transform="matrix(0.06234567901234565,0,0,0.06234567901234565,0,0)" xlink:href="#bn"/><use transform="matrix(0.06234567901234565,0,0,0.06234567901234565,12.46913580246913,0)" xlink:href="#aS"/><use transform="matrix(0.06234567901234565,0,0,0.06234567901234565,24.93827160493826,0)" xlink:href="#aT"/><use transform="matrix(0.06234567901234565,0,0,0.06234567901234565,31.172839506172828,0)" xlink:href="#aZ"/><use transform="matrix(0.06234567901234565,0,0,0.06234567901234565,47.320370370370355,0)" xlink:href="#aL"/><use transform="matrix(0.06234567901234565,0,0,0.06234567901234565,59.78950617283949,0)" xlink:href="#aT"/><use transform="matrix(0.06234567901234565,0,0,0.06234567901234565,66.02407407407405,0)" xlink:href="#aL"/><use transform="matrix(0.06234567901234565,0,0,0.06234567901234565,78.49320987654318,0)" xlink:href="#ba"/><use transform="matrix(0.06234567901234565,0,0,0.06234567901234565,85.9123456790123,0)" xlink:href="#bb"/></g><path fill="#1d262b" d="M155-56V0h-30v-56H8v-25l114-167h33v167h35v25h-35zm-30-156c-27 46-58 90-88 131h88v-131" id="bo"/><g id="s"><use transform="matrix(0.06234567901234565,0,0,0.06234567901234565,0,0)" xlink:href="#bo"/><use transform="matrix(0.06234567901234565,0,0,0.06234567901234565,12.46913580246913,0)" xlink:href="#aE"/><use transform="matrix(0.06234567901234565,0,0,0.06234567901234565,18.703703703703695,0)" xlink:href="#aP"/></g><path fill="#1d262b" d="M137 0h-34L2-248h35l83 218 83-218h36" id="bp"/><path fill="#1d262b" d="M101-234c-31-9-42 10-38 44h38v23H63V0H32v-167H5v-23h27c-7-52 17-82 69-68v24" id="bq"/><g id="t"><use transform="matrix(0.06234567901234565,0,0,0.06234567901234565,0,0)" xlink:href="#bp"/><use transform="matrix(0.06234567901234565,0,0,0.06234567901234565,13.716049382716044,0)" xlink:href="#aS"/><use transform="matrix(0.06234567901234565,0,0,0.06234567901234565,26.185185185185176,0)" xlink:href="#aV"/><use transform="matrix(0.06234567901234565,0,0,0.06234567901234565,33.60432098765431,0)" xlink:href="#aM"/><use transform="matrix(0.06234567901234565,0,0,0.06234567901234565,38.52962962962962,0)" xlink:href="#bq"/><use transform="matrix(0.06234567901234565,0,0,0.06234567901234565,44.76419753086418,0)" xlink:href="#bj"/></g><path fill="#1d262b" d="M85-194c31 0 48 13 60 33l-1-100h32l1 261h-30c-2-10 0-23-3-31C134-8 116 4 85 4 32 4 16-35 15-94c0-66 23-100 70-100zm9 24c-40 0-46 34-46 75 0 40 6 74 45 74 42 0 51-32 51-76 0-42-9-74-50-73" id="br"/><g id="u"><use transform="matrix(0.06234567901234565,0,0,0.06234567901234565,0,0)" xlink:href="#br"/><use transform="matrix(0.06234567901234565,0,0,0.06234567901234565,12.46913580246913,0)" xlink:href="#aL"/><use transform="matrix(0.06234567901234565,0,0,0.06234567901234565,24.93827160493826,0)" xlink:href="#aT"/><use transform="matrix(0.06234567901234565,0,0,0.06234567901234565,31.172839506172828,0)" xlink:href="#aL"/></g><g id="v"><use transform="matrix(0.06234567901234565,0,0,0.06234567901234565,0,0)" xlink:href="#aL"/><use transform="matrix(0.06234567901234565,0,0,0.06234567901234565,12.46913580246913,0)" xlink:href="#aN"/><use transform="matrix(0.06234567901234565,0,0,0.06234567901234565,24.93827160493826,0)" xlink:href="#br"/></g><g id="w"><use transform="matrix(0.06234567901234565,0,0,0.06234567901234565,0,0)" xlink:href="#aT"/><use transform="matrix(0.06234567901234565,0,0,0.06234567901234565,6.234567901234565,0)" xlink:href="#aM"/><use transform="matrix(0.06234567901234565,0,0,0.06234567901234565,11.159876543209872,0)" xlink:href="#bf"/><use transform="matrix(0.06234567901234565,0,0,0.06234567901234565,29.801234567901222,0)" xlink:href="#aS"/><use transform="matrix(0.06234567901234565,0,0,0.06234567901234565,42.27037037037035,0)" xlink:href="#aU"/><use transform="matrix(0.06234567901234565,0,0,0.06234567901234565,53.49259259259257,0)" xlink:href="#aT"/><use transform="matrix(0.06234567901234565,0,0,0.06234567901234565,59.727160493827135,0)" xlink:href="#aL"/><use transform="matrix(0.06234567901234565,0,0,0.06234567901234565,72.19629629629627,0)" xlink:href="#bf"/><use transform="matrix(0.06234567901234565,0,0,0.06234567901234565,90.83765432098761,0)" xlink:href="#bg"/></g><path fill="#1d262b" d="M127-220V0H93v-220H8v-28h204v28h-85" id="bs"/><g id="x"><use transform="matrix(0.06234567901234565,0,0,0.06234567901234565,0,0)" xlink:href="#bn"/><use transform="matrix(0.06234567901234565,0,0,0.06234567901234565,12.46913580246913,0)" xlink:href="#aS"/><use transform="matrix(0.06234567901234565,0,0,0.06234567901234565,24.93827160493826,0)" xlink:href="#aT"/><use transform="matrix(0.06234567901234565,0,0,0.06234567901234565,31.172839506172828,0)" xlink:href="#bs"/><use transform="matrix(0.06234567901234565,0,0,0.06234567901234565,44.016049382716034,0)" xlink:href="#aM"/><use transform="matrix(0.06234567901234565,0,0,0.06234567901234565,48.94135802469134,0)" xlink:href="#bf"/><use transform="matrix(0.06234567901234565,0,0,0.06234567901234565,67.5827160493827,0)" xlink:href="#aS"/><use transform="matrix(0.06234567901234565,0,0,0.06234567901234565,80.05185185185182,0)" xlink:href="#aU"/><use transform="matrix(0.06234567901234565,0,0,0.06234567901234565,91.27407407407404,0)" xlink:href="#aT"/><use transform="matrix(0.06234567901234565,0,0,0.06234567901234565,97.5086419753086,0)" xlink:href="#aL"/><use transform="matrix(0.06234567901234565,0,0,0.06234567901234565,109.97777777777773,0)" xlink:href="#bf"/><use transform="matrix(0.06234567901234565,0,0,0.06234567901234565,128.6191358024691,0)" xlink:href="#bg"/><use transform="matrix(0.06234567901234565,0,0,0.06234567901234565,141.08827160493823,0)" xlink:href="#bl"/><use transform="matrix(0.06234567901234565,0,0,0.06234567901234565,154.74197530864194,0)" xlink:href="#aV"/><use transform="matrix(0.06234567901234565,0,0,0.06234567901234565,162.16111111111107,0)" xlink:href="#aH"/><use transform="matrix(0.06234567901234565,0,0,0.06234567901234565,174.6302469135802,0)" xlink:href="#bf"/><use transform="matrix(0.06234567901234565,0,0,0.06234567901234565,193.27160493827157,0)" xlink:href="#aD"/><use transform="matrix(0.06234567901234565,0,0,0.06234567901234565,208.23456790123453,0)" xlink:href="#aG"/><use transform="matrix(0.06234567901234565,0,0,0.06234567901234565,213.15987654320983,0)" xlink:href="#aH"/><use transform="matrix(0.06234567901234565,0,0,0.06234567901234565,225.62901234567897,0)" xlink:href="#aI"/><use transform="matrix(0.06234567901234565,0,0,0.06234567901234565,236.8512345679012,0)" xlink:href="#aJ"/><use transform="matrix(0.06234567901234565,0,0,0.06234567901234565,248.07345679012343,0)" xlink:href="#aI"/><use transform="matrix(0.06234567901234565,0,0,0.06234567901234565,259.29567901234566,0)" xlink:href="#aK"/><use transform="matrix(0.06234567901234565,0,0,0.06234567901234565,271.76481481481477,0)" xlink:href="#aL"/><use transform="matrix(0.06234567901234565,0,0,0.06234567901234565,284.2339506172839,0)" xlink:href="#aM"/><use transform="matrix(0.06234567901234565,0,0,0.06234567901234565,289.1592592592592,0)" xlink:href="#aN"/><use transform="matrix(0.06234567901234565,0,0,0.06234567901234565,301.6283950617283,0)" xlink:href="#ba"/><use transform="matrix(0.06234567901234565,0,0,0.06234567901234565,309.0475308641975,0)" xlink:href="#bb"/></g><g id="y"><use transform="matrix(0.06234567901234565,0,0,0.06234567901234565,0,0)" xlink:href="#bn"/><use transform="matrix(0.06234567901234565,0,0,0.06234567901234565,12.46913580246913,0)" xlink:href="#aS"/><use transform="matrix(0.06234567901234565,0,0,0.06234567901234565,24.93827160493826,0)" xlink:href="#aT"/><use transform="matrix(0.06234567901234565,0,0,0.06234567901234565,31.172839506172828,0)" xlink:href="#bp"/><use transform="matrix(0.06234567901234565,0,0,0.06234567901234565,44.88888888888887,0)" xlink:href="#aS"/><use transform="matrix(0.06234567901234565,0,0,0.06234567901234565,57.358024691358004,0)" xlink:href="#aV"/><use transform="matrix(0.06234567901234565,0,0,0.06234567901234565,64.77716049382714,0)" xlink:href="#aM"/><use transform="matrix(0.06234567901234565,0,0,0.06234567901234565,69.70246913580245,0)" xlink:href="#bq"/><use transform="matrix(0.06234567901234565,0,0,0.06234567901234565,75.93703703703702,0)" xlink:href="#aM"/><use transform="matrix(0.06234567901234565,0,0,0.06234567901234565,80.86234567901232,0)" xlink:href="#aS"/><use transform="matrix(0.06234567901234565,0,0,0.06234567901234565,93.33148148148145,0)" xlink:href="#br"/><use transform="matrix(0.06234567901234565,0,0,0.06234567901234565,105.80061728395057,0)" xlink:href="#aZ"/><use transform="matrix(0.06234567901234565,0,0,0.06234567901234565,121.94814814814809,0)" xlink:href="#aL"/><use transform="matrix(0.06234567901234565,0,0,0.06234567901234565,134.41728395061722,0)" xlink:href="#aT"/><use transform="matrix(0.06234567901234565,0,0,0.06234567901234565,140.65185185185177,0)" xlink:href="#aL"/><use transform="matrix(0.06234567901234565,0,0,0.06234567901234565,153.1209876543209,0)" xlink:href="#ba"/><use transform="matrix(0.06234567901234565,0,0,0.06234567901234565,160.54012345679004,0)" xlink:href="#bb"/></g><g id="z"><use transform="matrix(0.06234567901234565,0,0,0.06234567901234565,0,0)" xlink:href="#bo"/><use transform="matrix(0.06234567901234565,0,0,0.06234567901234565,12.46913580246913,0)" xlink:href="#aE"/><use transform="matrix(0.06234567901234565,0,0,0.06234567901234565,18.703703703703695,0)" xlink:href="#bc"/></g><path fill="#1d262b" d="M16-82v-28h88v28H16" id="bt"/><g id="A"><use transform="matrix(0.06234567901234565,0,0,0.06234567901234565,0,0)" xlink:href="#bk"/><use transform="matrix(0.06234567901234565,0,0,0.06234567901234565,14.962962962962957,0)" xlink:href="#aV"/><use transform="matrix(0.06234567901234565,0,0,0.06234567901234565,22.38209876543209,0)" xlink:href="#aS"/><use transform="matrix(0.06234567901234565,0,0,0.06234567901234565,34.85123456790122,0)" xlink:href="#bt"/><use transform="matrix(0.06234567901234565,0,0,0.06234567901234565,42.27037037037036,0)" xlink:href="#bg"/><use transform="matrix(0.06234567901234565,0,0,0.06234567901234565,54.73950617283949,0)" xlink:href="#aV"/><use transform="matrix(0.06234567901234565,0,0,0.06234567901234565,62.158641975308626,0)" xlink:href="#aH"/><use transform="matrix(0.06234567901234565,0,0,0.06234567901234565,74.62777777777775,0)" xlink:href="#aI"/><use transform="matrix(0.06234567901234565,0,0,0.06234567901234565,85.84999999999997,0)" xlink:href="#aS"/><use transform="matrix(0.06234567901234565,0,0,0.06234567901234565,98.31913580246909,0)" xlink:href="#aU"/><use transform="matrix(0.06234567901234565,0,0,0.06234567901234565,109.5413580246913,0)" xlink:href="#aU"/></g><g id="B"><use transform="matrix(0.06234567901234565,0,0,0.06234567901234565,0,0)" xlink:href="#br"/><use transform="matrix(0.06234567901234565,0,0,0.06234567901234565,12.46913580246913,0)" xlink:href="#aL"/><use transform="matrix(0.06234567901234565,0,0,0.06234567901234565,24.93827160493826,0)" xlink:href="#aT"/><use transform="matrix(0.06234567901234565,0,0,0.06234567901234565,31.172839506172828,0)" xlink:href="#aL"/></g><g id="C"><use transform="matrix(0.06234567901234565,0,0,0.06234567901234565,0,0)" xlink:href="#bo"/><use transform="matrix(0.06234567901234565,0,0,0.06234567901234565,12.46913580246913,0)" xlink:href="#aE"/><use transform="matrix(0.06234567901234565,0,0,0.06234567901234565,18.703703703703695,0)" xlink:href="#aO"/><use transform="matrix(0.06234567901234565,0,0,0.06234567901234565,31.172839506172828,0)" xlink:href="#aE"/><use transform="matrix(0.06234567901234565,0,0,0.06234567901234565,37.40740740740739,0)" xlink:href="#aP"/></g><g id="D"><use transform="matrix(0.06234567901234565,0,0,0.06234567901234565,0,0)" xlink:href="#bm"/><use transform="matrix(0.06234567901234565,0,0,0.06234567901234565,14.962962962962957,0)" xlink:href="#aT"/><use transform="matrix(0.06234567901234565,0,0,0.06234567901234565,21.19753086419752,0)" xlink:href="#aL"/><use transform="matrix(0.06234567901234565,0,0,0.06234567901234565,33.66666666666665,0)" xlink:href="#aT"/><use transform="matrix(0.06234567901234565,0,0,0.06234567901234565,39.90123456790121,0)" xlink:href="#aM"/><use transform="matrix(0.06234567901234565,0,0,0.06234567901234565,44.82654320987652,0)" xlink:href="#aU"/><use transform="matrix(0.06234567901234565,0,0,0.06234567901234565,56.04876543209873,0)" xlink:href="#aT"/><use transform="matrix(0.06234567901234565,0,0,0.06234567901234565,62.283333333333296,0)" xlink:href="#aM"/><use transform="matrix(0.06234567901234565,0,0,0.06234567901234565,67.20864197530861,0)" xlink:href="#aI"/><use transform="matrix(0.06234567901234565,0,0,0.06234567901234565,78.43086419753082,0)" xlink:href="#aL"/><use transform="matrix(0.06234567901234565,0,0,0.06234567901234565,90.89999999999995,0)" xlink:href="#aG"/></g><path fill="#1d262b" d="M205 0l-28-72H64L36 0H1l101-248h38L239 0h-34zm-38-99l-47-123c-12 45-31 82-46 123h93" id="bu"/><g id="E"><use transform="matrix(0.06234567901234565,0,0,0.06234567901234565,0,0)" xlink:href="#bu"/><use transform="matrix(0.06234567901234565,0,0,0.06234567901234565,14.962962962962957,0)" xlink:href="#aN"/><use transform="matrix(0.06234567901234565,0,0,0.06234567901234565,27.432098765432087,0)" xlink:href="#aL"/><use transform="matrix(0.06234567901234565,0,0,0.06234567901234565,39.90123456790122,0)" xlink:href="#aG"/><use transform="matrix(0.06234567901234565,0,0,0.06234567901234565,44.826543209876526,0)" xlink:href="#bj"/><use transform="matrix(0.06234567901234565,0,0,0.06234567901234565,56.04876543209875,0)" xlink:href="#aU"/><use transform="matrix(0.06234567901234565,0,0,0.06234567901234565,67.27098765432096,0)" xlink:href="#aM"/><use transform="matrix(0.06234567901234565,0,0,0.06234567901234565,72.19629629629627,0)" xlink:href="#aU"/></g><g id="F"><use transform="matrix(0.06234567901234565,0,0,0.06234567901234565,0,0)" xlink:href="#bo"/><use transform="matrix(0.06234567901234565,0,0,0.06234567901234565,12.46913580246913,0)" xlink:href="#aE"/><use transform="matrix(0.06234567901234565,0,0,0.06234567901234565,18.703703703703695,0)" xlink:href="#aO"/><use transform="matrix(0.06234567901234565,0,0,0.06234567901234565,31.172839506172828,0)" xlink:href="#aE"/><use transform="matrix(0.06234567901234565,0,0,0.06234567901234565,37.40740740740739,0)" xlink:href="#bc"/></g><g id="G"><use transform="matrix(0.06234567901234565,0,0,0.06234567901234565,0,0)" xlink:href="#bs"/><use transform="matrix(0.06234567901234565,0,0,0.06234567901234565,13.653703703703698,0)" xlink:href="#aK"/><use transform="matrix(0.06234567901234565,0,0,0.06234567901234565,26.12283950617283,0)" xlink:href="#aV"/><use transform="matrix(0.06234567901234565,0,0,0.06234567901234565,33.541975308641966,0)" xlink:href="#aS"/><use transform="matrix(0.06234567901234565,0,0,0.06234567901234565,46.0111111111111,0)" xlink:href="#aU"/><use transform="matrix(0.06234567901234565,0,0,0.06234567901234565,57.23333333333332,0)" xlink:href="#aK"/><use transform="matrix(0.06234567901234565,0,0,0.06234567901234565,69.70246913580245,0)" xlink:href="#aH"/><use transform="matrix(0.06234567901234565,0,0,0.06234567901234565,82.17160493827157,0)" xlink:href="#aG"/><use transform="matrix(0.06234567901234565,0,0,0.06234567901234565,87.09691358024688,0)" xlink:href="#br"/></g><path fill="#1d262b" d="M115-194c53 0 69 39 70 98 0 66-23 100-70 100C84 3 66-7 56-30L54 0H23l1-261h32v101c10-23 28-34 59-34zm-8 174c40 0 45-34 45-75 0-40-5-75-45-74-42 0-51 32-51 76 0 43 10 73 51 73" id="bv"/><g id="H"><use transform="matrix(0.06234567901234565,0,0,0.06234567901234565,0,0)" xlink:href="#bv"/><use transform="matrix(0.06234567901234565,0,0,0.06234567901234565,12.46913580246913,0)" xlink:href="#aL"/><use transform="matrix(0.06234567901234565,0,0,0.06234567901234565,24.93827160493826,0)" xlink:href="#aU"/><use transform="matrix(0.06234567901234565,0,0,0.06234567901234565,36.16049382716048,0)" xlink:href="#aS"/><use transform="matrix(0.06234567901234565,0,0,0.06234567901234565,48.62962962962961,0)" xlink:href="#br"/></g><g id="I"><use transform="matrix(0.06234567901234565,0,0,0.06234567901234565,0,0)" xlink:href="#aL"/><use transform="matrix(0.06234567901234565,0,0,0.06234567901234565,12.46913580246913,0)" xlink:href="#aG"/><use transform="matrix(0.06234567901234565,0,0,0.06234567901234565,17.39444444444444,0)" xlink:href="#aS"/><use transform="matrix(0.06234567901234565,0,0,0.06234567901234565,29.86358024691357,0)" xlink:href="#aV"/><use transform="matrix(0.06234567901234565,0,0,0.06234567901234565,37.28271604938271,0)" xlink:href="#aT"/><use transform="matrix(0.06234567901234565,0,0,0.06234567901234565,43.51728395061727,0)" xlink:href="#aU"/></g><g id="J"><use transform="matrix(0.06234567901234565,0,0,0.06234567901234565,0,0)" xlink:href="#bo"/><use transform="matrix(0.06234567901234565,0,0,0.06234567901234565,12.46913580246913,0)" xlink:href="#aE"/><use transform="matrix(0.06234567901234565,0,0,0.06234567901234565,18.703703703703695,0)" xlink:href="#aO"/><use transform="matrix(0.06234567901234565,0,0,0.06234567901234565,31.172839506172828,0)" xlink:href="#aE"/><use transform="matrix(0.06234567901234565,0,0,0.06234567901234565,37.40740740740739,0)" xlink:href="#aO"/></g><g id="K"><use transform="matrix(0.06234567901234565,0,0,0.06234567901234565,0,0)" xlink:href="#bk"/><use transform="matrix(0.06234567901234565,0,0,0.06234567901234565,14.962962962962957,0)" xlink:href="#aV"/><use transform="matrix(0.06234567901234565,0,0,0.06234567901234565,22.38209876543209,0)" xlink:href="#aS"/><use transform="matrix(0.06234567901234565,0,0,0.06234567901234565,34.85123456790122,0)" xlink:href="#br"/><use transform="matrix(0.06234567901234565,0,0,0.06234567901234565,47.320370370370355,0)" xlink:href="#aM"/><use transform="matrix(0.06234567901234565,0,0,0.06234567901234565,52.24567901234566,0)" xlink:href="#aI"/><use transform="matrix(0.06234567901234565,0,0,0.06234567901234565,63.467901234567876,0)" xlink:href="#aT"/><use transform="matrix(0.06234567901234565,0,0,0.06234567901234565,69.70246913580245,0)" xlink:href="#aM"/><use transform="matrix(0.06234567901234565,0,0,0.06234567901234565,74.62777777777775,0)" xlink:href="#aR"/><use transform="matrix(0.06234567901234565,0,0,0.06234567901234565,85.84999999999997,0)" xlink:href="#aS"/></g><path fill="#1d262b" d="M240 0l2-218c-23 76-54 145-80 218h-23L58-218 59 0H30v-248h44l77 211c21-75 51-140 76-211h43V0h-30" id="bw"/><path fill="#1d262b" d="M30 0v-248h33v221h125V0H30" id="bx"/><g id="L"><use transform="matrix(0.06234567901234565,0,0,0.06234567901234565,0,0)" xlink:href="#bw"/><use transform="matrix(0.06234567901234565,0,0,0.06234567901234565,18.64135802469135,0)" xlink:href="#bx"/></g><path fill="#1d262b" d="M54-142c48-35 137-8 131 61C196 18 31 33 14-55l32-4c7 23 22 37 52 37 35-1 51-22 54-58 4-55-73-65-99-34H22l8-134h141v27H59" id="by"/><g id="M"><use transform="matrix(0.06234567901234565,0,0,0.06234567901234565,0,0)" xlink:href="#by"/><use transform="matrix(0.06234567901234565,0,0,0.06234567901234565,12.46913580246913,0)" xlink:href="#aE"/><use transform="matrix(0.06234567901234565,0,0,0.06234567901234565,18.703703703703695,0)" xlink:href="#bc"/><use transform="matrix(0.06234567901234565,0,0,0.06234567901234565,31.172839506172828,0)" xlink:href="#aE"/><use transform="matrix(0.06234567901234565,0,0,0.06234567901234565,37.40740740740739,0)" xlink:href="#aP"/></g><g id="N"><use transform="matrix(0.06234567901234565,0,0,0.06234567901234565,0,0)" xlink:href="#aW"/><use transform="matrix(0.06234567901234565,0,0,0.06234567901234565,17.456790123456784,0)" xlink:href="#aS"/><use transform="matrix(0.06234567901234565,0,0,0.06234567901234565,29.925925925925917,0)" xlink:href="#aN"/><use transform="matrix(0.06234567901234565,0,0,0.06234567901234565,42.39506172839505,0)" xlink:href="#aS"/><use transform="matrix(0.06234567901234565,0,0,0.06234567901234565,54.86419753086418,0)" xlink:href="#aV"/><use transform="matrix(0.06234567901234565,0,0,0.06234567901234565,62.28333333333332,0)" xlink:href="#aL"/><use transform="matrix(0.06234567901234565,0,0,0.06234567901234565,74.75246913580244,0)" xlink:href="#aT"/><use transform="matrix(0.06234567901234565,0,0,0.06234567901234565,80.98703703703701,0)" xlink:href="#aS"/></g><g id="O"><use transform="matrix(0.06234567901234565,0,0,0.06234567901234565,0,0)" xlink:href="#aL"/><use transform="matrix(0.06234567901234565,0,0,0.06234567901234565,12.46913580246913,0)" xlink:href="#aG"/><use transform="matrix(0.06234567901234565,0,0,0.06234567901234565,17.39444444444444,0)" xlink:href="#aS"/><use transform="matrix(0.06234567901234565,0,0,0.06234567901234565,29.86358024691357,0)" xlink:href="#aV"/><use transform="matrix(0.06234567901234565,0,0,0.06234567901234565,37.28271604938271,0)" xlink:href="#aT"/></g><g id="P"><use transform="matrix(0.06234567901234565,0,0,0.06234567901234565,0,0)" xlink:href="#aH"/><use transform="matrix(0.06234567901234565,0,0,0.06234567901234565,12.46913580246913,0)" xlink:href="#bq"/></g><g id="Q"><use transform="matrix(0.06234567901234565,0,0,0.06234567901234565,0,0)" xlink:href="#aG"/><use transform="matrix(0.06234567901234565,0,0,0.06234567901234565,4.925308641975307,0)" xlink:href="#aS"/><use transform="matrix(0.06234567901234565,0,0,0.06234567901234565,17.39444444444444,0)" xlink:href="#aL"/><use transform="matrix(0.06234567901234565,0,0,0.06234567901234565,29.86358024691357,0)" xlink:href="#aJ"/><use transform="matrix(0.06234567901234565,0,0,0.06234567901234565,41.085802469135785,0)" xlink:href="#aL"/><use transform="matrix(0.06234567901234565,0,0,0.06234567901234565,53.55493827160492,0)" xlink:href="#bn"/><use transform="matrix(0.06234567901234565,0,0,0.06234567901234565,66.02407407407405,0)" xlink:href="#aS"/></g><g id="R"><use transform="matrix(0.06234567901234565,0,0,0.06234567901234565,0,0)" xlink:href="#aH"/><use transform="matrix(0.06234567901234565,0,0,0.06234567901234565,12.46913580246913,0)" xlink:href="#aV"/></g><g id="S"><use transform="matrix(0.06234567901234565,0,0,0.06234567901234565,0,0)" xlink:href="#aH"/><use transform="matrix(0.06234567901234565,0,0,0.06234567901234565,12.46913580246913,0)" xlink:href="#aR"/><use transform="matrix(0.06234567901234565,0,0,0.06234567901234565,23.691358024691347,0)" xlink:href="#aS"/><use transform="matrix(0.06234567901234565,0,0,0.06234567901234565,36.16049382716048,0)" xlink:href="#aV"/><use transform="matrix(0.06234567901234565,0,0,0.06234567901234565,43.579629629629615,0)" xlink:href="#bi"/><use transform="matrix(0.06234567901234565,0,0,0.06234567901234565,56.04876543209875,0)" xlink:href="#aU"/><use transform="matrix(0.06234567901234565,0,0,0.06234567901234565,67.27098765432096,0)" xlink:href="#aL"/><use transform="matrix(0.06234567901234565,0,0,0.06234567901234565,79.74012345679009,0)" xlink:href="#bn"/><use transform="matrix(0.06234567901234565,0,0,0.06234567901234565,92.20925925925921,0)" xlink:href="#aS"/></g><g id="T"><use transform="matrix(0.06234567901234565,0,0,0.06234567901234565,0,0)" xlink:href="#bn"/><use transform="matrix(0.06234567901234565,0,0,0.06234567901234565,12.46913580246913,0)" xlink:href="#aS"/><use transform="matrix(0.06234567901234565,0,0,0.06234567901234565,24.93827160493826,0)" xlink:href="#aT"/><use transform="matrix(0.06234567901234565,0,0,0.06234567901234565,31.172839506172828,0)" xlink:href="#bx"/><use transform="matrix(0.06234567901234565,0,0,0.06234567901234565,43.64197530864196,0)" xlink:href="#aH"/><use transform="matrix(0.06234567901234565,0,0,0.06234567901234565,56.11111111111109,0)" xlink:href="#aI"/><use transform="matrix(0.06234567901234565,0,0,0.06234567901234565,67.33333333333331,0)" xlink:href="#aL"/><use transform="matrix(0.06234567901234565,0,0,0.06234567901234565,79.80246913580244,0)" xlink:href="#aT"/><use transform="matrix(0.06234567901234565,0,0,0.06234567901234565,86.03703703703701,0)" xlink:href="#aM"/><use transform="matrix(0.06234567901234565,0,0,0.06234567901234565,90.96234567901232,0)" xlink:href="#aH"/><use transform="matrix(0.06234567901234565,0,0,0.06234567901234565,103.43148148148144,0)" xlink:href="#aN"/><use transform="matrix(0.06234567901234565,0,0,0.06234567901234565,115.90061728395057,0)" xlink:href="#ba"/><use transform="matrix(0.06234567901234565,0,0,0.06234567901234565,123.3197530864197,0)" xlink:href="#bb"/><use transform="matrix(0.06234567901234565,0,0,0.06234567901234565,130.73888888888882,0)" xlink:href="#be"/></g><path fill="#1d262b" d="M206 0h-36l-40-164L89 0H53L-1-190h32L70-26l43-164h34l41 164 42-164h31" id="bz"/><g id="U"><use transform="matrix(0.06234567901234565,0,0,0.06234567901234565,0,0)" xlink:href="#bn"/><use transform="matrix(0.06234567901234565,0,0,0.06234567901234565,12.46913580246913,0)" xlink:href="#aS"/><use transform="matrix(0.06234567901234565,0,0,0.06234567901234565,24.93827160493826,0)" xlink:href="#aT"/><use transform="matrix(0.06234567901234565,0,0,0.06234567901234565,31.172839506172828,0)" xlink:href="#bl"/><use transform="matrix(0.06234567901234565,0,0,0.06234567901234565,44.826543209876526,0)" xlink:href="#aG"/><use transform="matrix(0.06234567901234565,0,0,0.06234567901234565,49.75185185185183,0)" xlink:href="#aH"/><use transform="matrix(0.06234567901234565,0,0,0.06234567901234565,62.220987654320965,0)" xlink:href="#bz"/><use transform="matrix(0.06234567901234565,0,0,0.06234567901234565,78.36851851851848,0)" xlink:href="#ba"/><use transform="matrix(0.06234567901234565,0,0,0.06234567901234565,85.78765432098761,0)" xlink:href="#bb"/></g><g id="V"><use transform="matrix(0.06234567901234565,0,0,0.06234567901234565,0,0)" xlink:href="#by"/><use transform="matrix(0.06234567901234565,0,0,0.06234567901234565,12.46913580246913,0)" xlink:href="#aE"/><use transform="matrix(0.06234567901234565,0,0,0.06234567901234565,18.703703703703695,0)" xlink:href="#aP"/></g><g id="W"><use transform="matrix(0.06234567901234565,0,0,0.06234567901234565,0,0)" xlink:href="#bu"/><use transform="matrix(0.06234567901234565,0,0,0.06234567901234565,14.962962962962957,0)" xlink:href="#bf"/><use transform="matrix(0.06234567901234565,0,0,0.06234567901234565,33.604320987654305,0)" xlink:href="#aH"/><use transform="matrix(0.06234567901234565,0,0,0.06234567901234565,46.07345679012344,0)" xlink:href="#bi"/><use transform="matrix(0.06234567901234565,0,0,0.06234567901234565,58.54259259259257,0)" xlink:href="#aN"/><use transform="matrix(0.06234567901234565,0,0,0.06234567901234565,71.0117283950617,0)" xlink:href="#aT"/></g><g id="X"><use transform="matrix(0.06234567901234565,0,0,0.06234567901234565,0,0)" xlink:href="#aH"/><use transform="matrix(0.06234567901234565,0,0,0.06234567901234565,12.46913580246913,0)" xlink:href="#bq"/></g><g id="Y"><use transform="matrix(0.06234567901234565,0,0,0.06234567901234565,0,0)" xlink:href="#bz"/><use transform="matrix(0.06234567901234565,0,0,0.06234567901234565,16.147530864197524,0)" xlink:href="#aL"/><use transform="matrix(0.06234567901234565,0,0,0.06234567901234565,28.616666666666653,0)" xlink:href="#aT"/><use transform="matrix(0.06234567901234565,0,0,0.06234567901234565,34.851234567901216,0)" xlink:href="#aS"/><use transform="matrix(0.06234567901234565,0,0,0.06234567901234565,47.32037037037035,0)" xlink:href="#aV"/></g><g id="Z"><use transform="matrix(0.06234567901234565,0,0,0.06234567901234565,0,0)" xlink:href="#bi"/><use transform="matrix(0.06234567901234565,0,0,0.06234567901234565,12.46913580246913,0)" xlink:href="#aU"/><use transform="matrix(0.06234567901234565,0,0,0.06234567901234565,23.691358024691347,0)" xlink:href="#aS"/><use transform="matrix(0.06234567901234565,0,0,0.06234567901234565,36.16049382716048,0)" xlink:href="#br"/></g><g id="aa"><use transform="matrix(0.06234567901234565,0,0,0.06234567901234565,0,0)" xlink:href="#bn"/><use transform="matrix(0.06234567901234565,0,0,0.06234567901234565,12.46913580246913,0)" xlink:href="#aS"/><use transform="matrix(0.06234567901234565,0,0,0.06234567901234565,24.93827160493826,0)" xlink:href="#aT"/><use transform="matrix(0.06234567901234565,0,0,0.06234567901234565,31.172839506172828,0)" xlink:href="#bl"/><use transform="matrix(0.06234567901234565,0,0,0.06234567901234565,44.826543209876526,0)" xlink:href="#aG"/><use transform="matrix(0.06234567901234565,0,0,0.06234567901234565,49.75185185185183,0)" xlink:href="#aH"/><use transform="matrix(0.06234567901234565,0,0,0.06234567901234565,62.220987654320965,0)" xlink:href="#bz"/><use transform="matrix(0.06234567901234565,0,0,0.06234567901234565,78.36851851851848,0)" xlink:href="#ba"/><use transform="matrix(0.06234567901234565,0,0,0.06234567901234565,85.78765432098761,0)" xlink:href="#bb"/></g><g id="ab"><use transform="matrix(0.06234567901234565,0,0,0.06234567901234565,0,0)" xlink:href="#bn"/><use transform="matrix(0.06234567901234565,0,0,0.06234567901234565,12.46913580246913,0)" xlink:href="#aS"/><use transform="matrix(0.06234567901234565,0,0,0.06234567901234565,24.93827160493826,0)" xlink:href="#aT"/><use transform="matrix(0.06234567901234565,0,0,0.06234567901234565,31.172839506172828,0)" xlink:href="#bh"/><use transform="matrix(0.06234567901234565,0,0,0.06234567901234565,48.62962962962961,0)" xlink:href="#bi"/><use transform="matrix(0.06234567901234565,0,0,0.06234567901234565,61.098765432098745,0)" xlink:href="#aL"/><use transform="matrix(0.06234567901234565,0,0,0.06234567901234565,73.56790123456787,0)" xlink:href="#aG"/><use transform="matrix(0.06234567901234565,0,0,0.06234567901234565,78.49320987654318,0)" xlink:href="#aM"/><use transform="matrix(0.06234567901234565,0,0,0.06234567901234565,83.41851851851848,0)" xlink:href="#aT"/><use transform="matrix(0.06234567901234565,0,0,0.06234567901234565,89.65308641975305,0)" xlink:href="#bj"/><use transform="matrix(0.06234567901234565,0,0,0.06234567901234565,100.87530864197527,0)" xlink:href="#ba"/><use transform="matrix(0.06234567901234565,0,0,0.06234567901234565,108.2944444444444,0)" xlink:href="#bb"/></g><g id="ac"><use transform="matrix(0.06234567901234565,0,0,0.06234567901234565,0,0)" xlink:href="#by"/><use transform="matrix(0.06234567901234565,0,0,0.06234567901234565,12.46913580246913,0)" xlink:href="#aE"/><use transform="matrix(0.06234567901234565,0,0,0.06234567901234565,18.703703703703695,0)" xlink:href="#bc"/><use transform="matrix(0.06234567901234565,0,0,0.06234567901234565,31.172839506172828,0)" xlink:href="#aE"/><use transform="matrix(0.06234567901234565,0,0,0.06234567901234565,37.40740740740739,0)" xlink:href="#bc"/></g><g id="ad"><use transform="matrix(0.06234567901234565,0,0,0.06234567901234565,0,0)" xlink:href="#br"/><use transform="matrix(0.06234567901234565,0,0,0.06234567901234565,12.46913580246913,0)" xlink:href="#aV"/><use transform="matrix(0.06234567901234565,0,0,0.06234567901234565,19.888271604938264,0)" xlink:href="#aH"/><use transform="matrix(0.06234567901234565,0,0,0.06234567901234565,32.35740740740739,0)" xlink:href="#bg"/></g><g id="ae"><use transform="matrix(0.06234567901234565,0,0,0.06234567901234565,0,0)" xlink:href="#aM"/><use transform="matrix(0.06234567901234565,0,0,0.06234567901234565,4.925308641975307,0)" xlink:href="#aN"/></g><path fill="#1d262b" d="M145-31C134-9 116 4 85 4 32 4 16-35 15-94c0-59 17-99 70-100 32-1 48 14 60 33 0-11-1-24 2-32h30l-1 268h-32zM93-21c41 0 51-33 51-76s-8-73-50-73c-40 0-46 35-46 75s5 74 45 74" id="bA"/><g id="af"><use transform="matrix(0.06234567901234565,0,0,0.06234567901234565,0,0)" xlink:href="#bA"/><use transform="matrix(0.06234567901234565,0,0,0.06234567901234565,12.46913580246913,0)" xlink:href="#bi"/><use transform="matrix(0.06234567901234565,0,0,0.06234567901234565,24.93827160493826,0)" xlink:href="#aL"/><use transform="matrix(0.06234567901234565,0,0,0.06234567901234565,37.40740740740739,0)" xlink:href="#aG"/><use transform="matrix(0.06234567901234565,0,0,0.06234567901234565,42.3327160493827,0)" xlink:href="#aM"/><use transform="matrix(0.06234567901234565,0,0,0.06234567901234565,47.258024691358,0)" xlink:href="#aT"/><use transform="matrix(0.06234567901234565,0,0,0.06234567901234565,53.492592592592565,0)" xlink:href="#bj"/></g><g id="ag"><use transform="matrix(0.06234567901234565,0,0,0.06234567901234565,0,0)" xlink:href="#bn"/><use transform="matrix(0.06234567901234565,0,0,0.06234567901234565,12.46913580246913,0)" xlink:href="#aS"/><use transform="matrix(0.06234567901234565,0,0,0.06234567901234565,24.93827160493826,0)" xlink:href="#aT"/><use transform="matrix(0.06234567901234565,0,0,0.06234567901234565,31.172839506172828,0)" xlink:href="#bl"/><use transform="matrix(0.06234567901234565,0,0,0.06234567901234565,44.826543209876526,0)" xlink:href="#aG"/><use transform="matrix(0.06234567901234565,0,0,0.06234567901234565,49.75185185185183,0)" xlink:href="#aH"/><use transform="matrix(0.06234567901234565,0,0,0.06234567901234565,62.220987654320965,0)" xlink:href="#bz"/><use transform="matrix(0.06234567901234565,0,0,0.06234567901234565,78.36851851851848,0)" xlink:href="#ba"/><use transform="matrix(0.06234567901234565,0,0,0.06234567901234565,85.78765432098761,0)" xlink:href="#bb"/><use transform="matrix(0.06234567901234565,0,0,0.06234567901234565,93.20679012345674,0)" xlink:href="#be"/></g><g id="ah"><use transform="matrix(0.06234567901234565,0,0,0.06234567901234565,0,0)" xlink:href="#bn"/><use transform="matrix(0.06234567901234565,0,0,0.06234567901234565,12.46913580246913,0)" xlink:href="#aS"/><use transform="matrix(0.06234567901234565,0,0,0.06234567901234565,24.93827160493826,0)" xlink:href="#aT"/><use transform="matrix(0.06234567901234565,0,0,0.06234567901234565,31.172839506172828,0)" xlink:href="#bs"/><use transform="matrix(0.06234567901234565,0,0,0.06234567901234565,44.016049382716034,0)" xlink:href="#aM"/><use transform="matrix(0.06234567901234565,0,0,0.06234567901234565,48.94135802469134,0)" xlink:href="#bf"/><use transform="matrix(0.06234567901234565,0,0,0.06234567901234565,67.5827160493827,0)" xlink:href="#aS"/><use transform="matrix(0.06234567901234565,0,0,0.06234567901234565,80.05185185185182,0)" xlink:href="#bm"/><use transform="matrix(0.06234567901234565,0,0,0.06234567901234565,95.01481481481478,0)" xlink:href="#aT"/><use transform="matrix(0.06234567901234565,0,0,0.06234567901234565,101.24938271604935,0)" xlink:href="#aL"/><use transform="matrix(0.06234567901234565,0,0,0.06234567901234565,113.71851851851848,0)" xlink:href="#bf"/><use transform="matrix(0.06234567901234565,0,0,0.06234567901234565,132.35987654320982,0)" xlink:href="#bg"/><use transform="matrix(0.06234567901234565,0,0,0.06234567901234565,144.82901234567896,0)" xlink:href="#ba"/><use transform="matrix(0.06234567901234565,0,0,0.06234567901234565,152.2481481481481,0)" xlink:href="#bb"/></g><g id="ai"><use transform="matrix(0.06234567901234565,0,0,0.06234567901234565,0,0)" xlink:href="#by"/><use transform="matrix(0.06234567901234565,0,0,0.06234567901234565,12.46913580246913,0)" xlink:href="#aE"/><use transform="matrix(0.06234567901234565,0,0,0.06234567901234565,18.703703703703695,0)" xlink:href="#aO"/></g><g id="aj"><use transform="matrix(0.06234567901234565,0,0,0.06234567901234565,0,0)" xlink:href="#bl"/><use transform="matrix(0.06234567901234565,0,0,0.06234567901234565,13.653703703703698,0)" xlink:href="#aG"/><use transform="matrix(0.06234567901234565,0,0,0.06234567901234565,18.579012345679004,0)" xlink:href="#aH"/><use transform="matrix(0.06234567901234565,0,0,0.06234567901234565,31.048148148148137,0)" xlink:href="#aH"/><use transform="matrix(0.06234567901234565,0,0,0.06234567901234565,43.51728395061727,0)" xlink:href="#br"/><use transform="matrix(0.06234567901234565,0,0,0.06234567901234565,55.9864197530864,0)" xlink:href="#aM"/><use transform="matrix(0.06234567901234565,0,0,0.06234567901234565,60.91172839506171,0)" xlink:href="#aN"/><use transform="matrix(0.06234567901234565,0,0,0.06234567901234565,73.38086419753084,0)" xlink:href="#bn"/></g><g id="ak"><use transform="matrix(0.06234567901234565,0,0,0.06234567901234565,0,0)" xlink:href="#aZ"/><use transform="matrix(0.06234567901234565,0,0,0.06234567901234565,16.147530864197524,0)" xlink:href="#aV"/><use transform="matrix(0.06234567901234565,0,0,0.06234567901234565,23.566666666666656,0)" xlink:href="#aH"/><use transform="matrix(0.06234567901234565,0,0,0.06234567901234565,36.03580246913579,0)" xlink:href="#bi"/><use transform="matrix(0.06234567901234565,0,0,0.06234567901234565,48.50493827160492,0)" xlink:href="#bn"/><use transform="matrix(0.06234567901234565,0,0,0.06234567901234565,60.97407407407405,0)" xlink:href="#aK"/><use transform="matrix(0.06234567901234565,0,0,0.06234567901234565,73.44320987654318,0)" xlink:href="#aT"/></g><g id="al"><use transform="matrix(0.06234567901234565,0,0,0.06234567901234565,0,0)" xlink:href="#aX"/><use transform="matrix(0.06234567901234565,0,0,0.06234567901234565,16.147530864197524,0)" xlink:href="#aL"/><use transform="matrix(0.06234567901234565,0,0,0.06234567901234565,28.616666666666653,0)" xlink:href="#aV"/><use transform="matrix(0.06234567901234565,0,0,0.06234567901234565,36.03580246913579,0)" xlink:href="#aT"/><use transform="matrix(0.06234567901234565,0,0,0.06234567901234565,42.27037037037035,0)" xlink:href="#aS"/><use transform="matrix(0.06234567901234565,0,0,0.06234567901234565,54.739506172839484,0)" xlink:href="#aU"/><use transform="matrix(0.06234567901234565,0,0,0.06234567901234565,65.9617283950617,0)" xlink:href="#aM"/></g><g id="am"><use transform="matrix(0.06234567901234565,0,0,0.06234567901234565,0,0)" xlink:href="#aZ"/><use transform="matrix(0.06234567901234565,0,0,0.06234567901234565,16.147530864197524,0)" xlink:href="#bu"/><use transform="matrix(0.06234567901234565,0,0,0.06234567901234565,31.110493827160482,0)" xlink:href="#bg"/><use transform="matrix(0.06234567901234565,0,0,0.06234567901234565,43.579629629629615,0)" xlink:href="#bg"/></g><path fill="#1d262b" d="M110-160c48 1 74 30 74 79 0 53-28 85-80 85-65 0-83-55-86-122-5-90 50-162 133-122 14 7 22 21 27 39l-31 6c-5-40-67-38-82-6-9 19-15 44-15 74 11-20 30-34 60-33zm-7 138c34 0 49-23 49-58s-16-56-50-56c-29 0-50 16-49 49 1 36 15 65 50 65" id="bB"/><g id="an"><use transform="matrix(0.06234567901234565,0,0,0.06234567901234565,0,0)" xlink:href="#bB"/><use transform="matrix(0.06234567901234565,0,0,0.06234567901234565,12.46913580246913,0)" xlink:href="#aE"/><use transform="matrix(0.06234567901234565,0,0,0.06234567901234565,18.703703703703695,0)" xlink:href="#aP"/></g><g id="ao"><use transform="matrix(0.06234567901234565,0,0,0.06234567901234565,0,0)" xlink:href="#aX"/><use transform="matrix(0.06234567901234565,0,0,0.06234567901234565,16.147530864197524,0)" xlink:href="#aH"/><use transform="matrix(0.06234567901234565,0,0,0.06234567901234565,28.616666666666653,0)" xlink:href="#aG"/><use transform="matrix(0.06234567901234565,0,0,0.06234567901234565,33.54197530864196,0)" xlink:href="#aG"/><use transform="matrix(0.06234567901234565,0,0,0.06234567901234565,38.467283950617265,0)" xlink:href="#aS"/><use transform="matrix(0.06234567901234565,0,0,0.06234567901234565,50.9364197530864,0)" xlink:href="#aI"/><use transform="matrix(0.06234567901234565,0,0,0.06234567901234565,62.15864197530861,0)" xlink:href="#aT"/></g><g id="ap"><use transform="matrix(0.06234567901234565,0,0,0.06234567901234565,0,0)" xlink:href="#aV"/><use transform="matrix(0.06234567901234565,0,0,0.06234567901234565,7.419135802469133,0)" xlink:href="#aS"/><use transform="matrix(0.06234567901234565,0,0,0.06234567901234565,19.888271604938264,0)" xlink:href="#aU"/><use transform="matrix(0.06234567901234565,0,0,0.06234567901234565,31.110493827160482,0)" xlink:href="#bi"/><use transform="matrix(0.06234567901234565,0,0,0.06234567901234565,43.579629629629615,0)" xlink:href="#aG"/><use transform="matrix(0.06234567901234565,0,0,0.06234567901234565,48.50493827160492,0)" xlink:href="#aT"/><use transform="matrix(0.06234567901234565,0,0,0.06234567901234565,54.739506172839484,0)" xlink:href="#aU"/></g><path fill="#1d262b" d="M233-177c-1 41-23 64-60 70L243 0h-38l-65-103H63V0H30v-248c88 3 205-21 203 71zM63-129c60-2 137 13 137-47 0-61-80-42-137-45v92" id="bC"/><path fill="#1d262b" d="M-5 72V49h209v23H-5" id="bD"/><g id="aq"><use transform="matrix(0.06234567901234565,0,0,0.06234567901234565,0,0)" xlink:href="#bn"/><use transform="matrix(0.06234567901234565,0,0,0.06234567901234565,12.46913580246913,0)" xlink:href="#aS"/><use transform="matrix(0.06234567901234565,0,0,0.06234567901234565,24.93827160493826,0)" xlink:href="#aT"/><use transform="matrix(0.06234567901234565,0,0,0.06234567901234565,31.172839506172828,0)" xlink:href="#bk"/><use transform="matrix(0.06234567901234565,0,0,0.06234567901234565,46.13580246913578,0)" xlink:href="#aH"/><use transform="matrix(0.06234567901234565,0,0,0.06234567901234565,58.604938271604915,0)" xlink:href="#aU"/><use transform="matrix(0.06234567901234565,0,0,0.06234567901234565,69.82716049382714,0)" xlink:href="#aT"/><use transform="matrix(0.06234567901234565,0,0,0.06234567901234565,76.0617283950617,0)" xlink:href="#aX"/><use transform="matrix(0.06234567901234565,0,0,0.06234567901234565,92.20925925925923,0)" xlink:href="#aH"/><use transform="matrix(0.06234567901234565,0,0,0.06234567901234565,104.67839506172835,0)" xlink:href="#bf"/><use transform="matrix(0.06234567901234565,0,0,0.06234567901234565,123.3197530864197,0)" xlink:href="#bg"/><use transform="matrix(0.06234567901234565,0,0,0.06234567901234565,135.78888888888883,0)" xlink:href="#bC"/><use transform="matrix(0.06234567901234565,0,0,0.06234567901234565,151.93641975308637,0)" xlink:href="#aS"/><use transform="matrix(0.06234567901234565,0,0,0.06234567901234565,164.4055555555555,0)" xlink:href="#aU"/><use transform="matrix(0.06234567901234565,0,0,0.06234567901234565,175.62777777777774,0)" xlink:href="#bD"/><use transform="matrix(0.06234567901234565,0,0,0.06234567901234565,188.09691358024688,0)" xlink:href="#bu"/><use transform="matrix(0.06234567901234565,0,0,0.06234567901234565,203.05987654320984,0)" xlink:href="#bf"/><use transform="matrix(0.06234567901234565,0,0,0.06234567901234565,221.7012345679012,0)" xlink:href="#aH"/><use transform="matrix(0.06234567901234565,0,0,0.06234567901234565,234.17037037037034,0)" xlink:href="#bi"/><use transform="matrix(0.06234567901234565,0,0,0.06234567901234565,246.63950617283948,0)" xlink:href="#aN"/><use transform="matrix(0.06234567901234565,0,0,0.06234567901234565,259.1086419753086,0)" xlink:href="#aT"/><use transform="matrix(0.06234567901234565,0,0,0.06234567901234565,265.3432098765432,0)" xlink:href="#ba"/><use transform="matrix(0.06234567901234565,0,0,0.06234567901234565,272.76234567901236,0)" xlink:href="#bb"/></g><g id="ar"><use transform="matrix(0.06234567901234565,0,0,0.06234567901234565,0,0)" xlink:href="#bn"/><use transform="matrix(0.06234567901234565,0,0,0.06234567901234565,12.46913580246913,0)" xlink:href="#aS"/><use transform="matrix(0.06234567901234565,0,0,0.06234567901234565,24.93827160493826,0)" xlink:href="#aT"/><use transform="matrix(0.06234567901234565,0,0,0.06234567901234565,31.172839506172828,0)" xlink:href="#bk"/><use transform="matrix(0.06234567901234565,0,0,0.06234567901234565,46.13580246913578,0)" xlink:href="#aH"/><use transform="matrix(0.06234567901234565,0,0,0.06234567901234565,58.604938271604915,0)" xlink:href="#aU"/><use transform="matrix(0.06234567901234565,0,0,0.06234567901234565,69.82716049382714,0)" xlink:href="#aT"/><use transform="matrix(0.06234567901234565,0,0,0.06234567901234565,76.0617283950617,0)" xlink:href="#aX"/><use transform="matrix(0.06234567901234565,0,0,0.06234567901234565,92.20925925925923,0)" xlink:href="#aH"/><use transform="matrix(0.06234567901234565,0,0,0.06234567901234565,104.67839506172835,0)" xlink:href="#bf"/><use transform="matrix(0.06234567901234565,0,0,0.06234567901234565,123.3197530864197,0)" xlink:href="#bg"/><use transform="matrix(0.06234567901234565,0,0,0.06234567901234565,135.78888888888883,0)" xlink:href="#bC"/><use transform="matrix(0.06234567901234565,0,0,0.06234567901234565,151.93641975308637,0)" xlink:href="#aS"/><use transform="matrix(0.06234567901234565,0,0,0.06234567901234565,164.4055555555555,0)" xlink:href="#aU"/><use transform="matrix(0.06234567901234565,0,0,0.06234567901234565,175.62777777777774,0)" xlink:href="#bD"/><use transform="matrix(0.06234567901234565,0,0,0.06234567901234565,188.09691358024688,0)" xlink:href="#bx"/><use transform="matrix(0.06234567901234565,0,0,0.06234567901234565,200.56604938271602,0)" xlink:href="#aS"/><use transform="matrix(0.06234567901234565,0,0,0.06234567901234565,213.03518518518516,0)" xlink:href="#aL"/><use transform="matrix(0.06234567901234565,0,0,0.06234567901234565,225.5043209876543,0)" xlink:href="#aJ"/><use transform="matrix(0.06234567901234565,0,0,0.06234567901234565,236.72654320987652,0)" xlink:href="#ba"/><use transform="matrix(0.06234567901234565,0,0,0.06234567901234565,244.14567901234565,0)" xlink:href="#bb"/></g><g id="as"><use transform="matrix(0.06234567901234565,0,0,0.06234567901234565,0,0)" xlink:href="#bn"/><use transform="matrix(0.06234567901234565,0,0,0.06234567901234565,12.46913580246913,0)" xlink:href="#aS"/><use transform="matrix(0.06234567901234565,0,0,0.06234567901234565,24.93827160493826,0)" xlink:href="#aT"/><use transform="matrix(0.06234567901234565,0,0,0.06234567901234565,31.172839506172828,0)" xlink:href="#bk"/><use transform="matrix(0.06234567901234565,0,0,0.06234567901234565,46.13580246913578,0)" xlink:href="#aH"/><use transform="matrix(0.06234567901234565,0,0,0.06234567901234565,58.604938271604915,0)" xlink:href="#aU"/><use transform="matrix(0.06234567901234565,0,0,0.06234567901234565,69.82716049382714,0)" xlink:href="#aT"/><use transform="matrix(0.06234567901234565,0,0,0.06234567901234565,76.0617283950617,0)" xlink:href="#aX"/><use transform="matrix(0.06234567901234565,0,0,0.06234567901234565,92.20925925925923,0)" xlink:href="#aH"/><use transform="matrix(0.06234567901234565,0,0,0.06234567901234565,104.67839506172835,0)" xlink:href="#bf"/><use transform="matrix(0.06234567901234565,0,0,0.06234567901234565,123.3197530864197,0)" xlink:href="#bg"/><use transform="matrix(0.06234567901234565,0,0,0.06234567901234565,135.78888888888883,0)" xlink:href="#bC"/><use transform="matrix(0.06234567901234565,0,0,0.06234567901234565,151.93641975308637,0)" xlink:href="#aS"/><use transform="matrix(0.06234567901234565,0,0,0.06234567901234565,164.4055555555555,0)" xlink:href="#aU"/><use transform="matrix(0.06234567901234565,0,0,0.06234567901234565,175.62777777777774,0)" xlink:href="#bD"/><use transform="matrix(0.06234567901234565,0,0,0.06234567901234565,188.09691358024688,0)" xlink:href="#bh"/><use transform="matrix(0.06234567901234565,0,0,0.06234567901234565,205.55370370370366,0)" xlink:href="#bi"/><use transform="matrix(0.06234567901234565,0,0,0.06234567901234565,218.0228395061728,0)" xlink:href="#aL"/><use transform="matrix(0.06234567901234565,0,0,0.06234567901234565,230.49197530864194,0)" xlink:href="#aG"/><use transform="matrix(0.06234567901234565,0,0,0.06234567901234565,235.41728395061725,0)" xlink:href="#aM"/><use transform="matrix(0.06234567901234565,0,0,0.06234567901234565,240.34259259259255,0)" xlink:href="#aT"/><use transform="matrix(0.06234567901234565,0,0,0.06234567901234565,246.5771604938271,0)" xlink:href="#bj"/><use transform="matrix(0.06234567901234565,0,0,0.06234567901234565,257.7993827160493,0)" xlink:href="#ba"/><use transform="matrix(0.06234567901234565,0,0,0.06234567901234565,265.21851851851847,0)" xlink:href="#bb"/></g><g id="at"><use transform="matrix(0.06234567901234565,0,0,0.06234567901234565,0,0)" xlink:href="#bn"/><use transform="matrix(0.06234567901234565,0,0,0.06234567901234565,12.46913580246913,0)" xlink:href="#aS"/><use transform="matrix(0.06234567901234565,0,0,0.06234567901234565,24.93827160493826,0)" xlink:href="#aT"/><use transform="matrix(0.06234567901234565,0,0,0.06234567901234565,31.172839506172828,0)" xlink:href="#bk"/><use transform="matrix(0.06234567901234565,0,0,0.06234567901234565,46.13580246913578,0)" xlink:href="#aH"/><use transform="matrix(0.06234567901234565,0,0,0.06234567901234565,58.604938271604915,0)" xlink:href="#aU"/><use transform="matrix(0.06234567901234565,0,0,0.06234567901234565,69.82716049382714,0)" xlink:href="#aT"/><use transform="matrix(0.06234567901234565,0,0,0.06234567901234565,76.0617283950617,0)" xlink:href="#aX"/><use transform="matrix(0.06234567901234565,0,0,0.06234567901234565,92.20925925925923,0)" xlink:href="#aH"/><use transform="matrix(0.06234567901234565,0,0,0.06234567901234565,104.67839506172835,0)" xlink:href="#bf"/><use transform="matrix(0.06234567901234565,0,0,0.06234567901234565,123.3197530864197,0)" xlink:href="#bg"/><use transform="matrix(0.06234567901234565,0,0,0.06234567901234565,135.78888888888883,0)" xlink:href="#bC"/><use transform="matrix(0.06234567901234565,0,0,0.06234567901234565,151.93641975308637,0)" xlink:href="#aS"/><use transform="matrix(0.06234567901234565,0,0,0.06234567901234565,164.4055555555555,0)" xlink:href="#aU"/><use transform="matrix(0.06234567901234565,0,0,0.06234567901234565,175.62777777777774,0)" xlink:href="#bD"/><use transform="matrix(0.06234567901234565,0,0,0.06234567901234565,188.09691358024688,0)" xlink:href="#bl"/><use transform="matrix(0.06234567901234565,0,0,0.06234567901234565,201.7506172839506,0)" xlink:href="#aG"/><use transform="matrix(0.06234567901234565,0,0,0.06234567901234565,206.6759259259259,0)" xlink:href="#aH"/><use transform="matrix(0.06234567901234565,0,0,0.06234567901234565,219.14506172839504,0)" xlink:href="#aH"/><use transform="matrix(0.06234567901234565,0,0,0.06234567901234565,231.61419753086417,0)" xlink:href="#br"/><use transform="matrix(0.06234567901234565,0,0,0.06234567901234565,244.08333333333331,0)" xlink:href="#ba"/><use transform="matrix(0.06234567901234565,0,0,0.06234567901234565,251.50246913580244,0)" xlink:href="#bb"/></g><path fill="#1d262b" d="M140-251c81 0 123 46 123 126C263-46 219 4 140 4 59 4 17-45 17-125s42-126 123-126zm0 227c63 0 89-41 89-101s-29-99-89-99c-61 0-89 39-89 99S79-25 140-24" id="bE"/><g id="au"><use transform="matrix(0.06234567901234565,0,0,0.06234567901234565,0,0)" xlink:href="#aK"/><use transform="matrix(0.06234567901234565,0,0,0.06234567901234565,12.46913580246913,0)" xlink:href="#aL"/><use transform="matrix(0.06234567901234565,0,0,0.06234567901234565,24.93827160493826,0)" xlink:href="#aU"/><use transform="matrix(0.06234567901234565,0,0,0.06234567901234565,36.16049382716048,0)" xlink:href="#aK"/><use transform="matrix(0.06234567901234565,0,0,0.06234567901234565,48.62962962962961,0)" xlink:href="#bE"/><use transform="matrix(0.06234567901234565,0,0,0.06234567901234565,66.0864197530864,0)" xlink:href="#bq"/><use transform="matrix(0.06234567901234565,0,0,0.06234567901234565,72.32098765432097,0)" xlink:href="#bC"/><use transform="matrix(0.06234567901234565,0,0,0.06234567901234565,88.4685185185185,0)" xlink:href="#aS"/><use transform="matrix(0.06234567901234565,0,0,0.06234567901234565,100.93765432098762,0)" xlink:href="#aU"/><use transform="matrix(0.06234567901234565,0,0,0.06234567901234565,112.15987654320983,0)" xlink:href="#ba"/><use transform="matrix(0.06234567901234565,0,0,0.06234567901234565,119.57901234567896,0)" xlink:href="#bb"/></g><g id="av"><use transform="matrix(0.06234567901234565,0,0,0.06234567901234565,0,0)" xlink:href="#bB"/><use transform="matrix(0.06234567901234565,0,0,0.06234567901234565,12.46913580246913,0)" xlink:href="#aE"/><use transform="matrix(0.06234567901234565,0,0,0.06234567901234565,18.703703703703695,0)" xlink:href="#bc"/></g><g id="aw"><use transform="matrix(0.06234567901234565,0,0,0.06234567901234565,0,0)" xlink:href="#aK"/><use transform="matrix(0.06234567901234565,0,0,0.06234567901234565,12.46913580246913,0)" xlink:href="#aL"/><use transform="matrix(0.06234567901234565,0,0,0.06234567901234565,24.93827160493826,0)" xlink:href="#aU"/><use transform="matrix(0.06234567901234565,0,0,0.06234567901234565,36.16049382716048,0)" xlink:href="#aK"/></g><g id="ax"><use transform="matrix(0.06234567901234565,0,0,0.06234567901234565,0,0)" xlink:href="#aL"/><use transform="matrix(0.06234567901234565,0,0,0.06234567901234565,12.46913580246913,0)" xlink:href="#aG"/><use transform="matrix(0.06234567901234565,0,0,0.06234567901234565,17.39444444444444,0)" xlink:href="#aG"/></g><g id="ay"><use transform="matrix(0.06234567901234565,0,0,0.06234567901234565,0,0)" xlink:href="#aT"/><use transform="matrix(0.06234567901234565,0,0,0.06234567901234565,6.234567901234565,0)" xlink:href="#aK"/><use transform="matrix(0.06234567901234565,0,0,0.06234567901234565,18.703703703703695,0)" xlink:href="#aS"/></g><g id="az"><use transform="matrix(0.06234567901234565,0,0,0.06234567901234565,0,0)" xlink:href="#aD"/><use transform="matrix(0.06234567901234565,0,0,0.06234567901234565,14.962962962962957,0)" xlink:href="#aE"/><use transform="matrix(0.06234567901234565,0,0,0.06234567901234565,21.19753086419752,0)" xlink:href="#aP"/></g><g id="aA"><use transform="matrix(0.06234567901234565,0,0,0.06234567901234565,0,0)" xlink:href="#bn"/><use transform="matrix(0.06234567901234565,0,0,0.06234567901234565,12.46913580246913,0)" xlink:href="#aS"/><use transform="matrix(0.06234567901234565,0,0,0.06234567901234565,24.93827160493826,0)" xlink:href="#aT"/><use transform="matrix(0.06234567901234565,0,0,0.06234567901234565,31.172839506172828,0)" xlink:href="#aX"/><use transform="matrix(0.06234567901234565,0,0,0.06234567901234565,47.320370370370355,0)" xlink:href="#aH"/><use transform="matrix(0.06234567901234565,0,0,0.06234567901234565,59.78950617283949,0)" xlink:href="#bf"/><use transform="matrix(0.06234567901234565,0,0,0.06234567901234565,78.43086419753084,0)" xlink:href="#bg"/><use transform="matrix(0.06234567901234565,0,0,0.06234567901234565,90.89999999999996,0)" xlink:href="#bi"/><use transform="matrix(0.06234567901234565,0,0,0.06234567901234565,103.36913580246909,0)" xlink:href="#aT"/><use transform="matrix(0.06234567901234565,0,0,0.06234567901234565,109.60370370370366,0)" xlink:href="#aL"/><use transform="matrix(0.06234567901234565,0,0,0.06234567901234565,122.07283950617278,0)" xlink:href="#aT"/><use transform="matrix(0.06234567901234565,0,0,0.06234567901234565,128.30740740740734,0)" xlink:href="#aM"/><use transform="matrix(0.06234567901234565,0,0,0.06234567901234565,133.23271604938265,0)" xlink:href="#aH"/><use transform="matrix(0.06234567901234565,0,0,0.06234567901234565,145.70185185185179,0)" xlink:href="#aN"/><use transform="matrix(0.06234567901234565,0,0,0.06234567901234565,158.17098765432092,0)" xlink:href="#bk"/><use transform="matrix(0.06234567901234565,0,0,0.06234567901234565,173.1339506172839,0)" xlink:href="#aV"/><use transform="matrix(0.06234567901234565,0,0,0.06234567901234565,180.55308641975301,0)" xlink:href="#aH"/><use transform="matrix(0.06234567901234565,0,0,0.06234567901234565,193.02222222222215,0)" xlink:href="#aH"/><use transform="matrix(0.06234567901234565,0,0,0.06234567901234565,205.4913580246913,0)" xlink:href="#bq"/><use transform="matrix(0.06234567901234565,0,0,0.06234567901234565,211.72592592592585,0)" xlink:href="#ba"/><use transform="matrix(0.06234567901234565,0,0,0.06234567901234565,219.14506172839498,0)" xlink:href="#bb"/></g><g id="aB"><use transform="matrix(0.06234567901234565,0,0,0.06234567901234565,0,0)" xlink:href="#bl"/><use transform="matrix(0.06234567901234565,0,0,0.06234567901234565,13.653703703703698,0)" xlink:href="#bm"/><use transform="matrix(0.06234567901234565,0,0,0.06234567901234565,28.616666666666653,0)" xlink:href="#aE"/><use transform="matrix(0.06234567901234565,0,0,0.06234567901234565,34.851234567901216,0)" xlink:href="#aP"/></g><g id="aC"><use transform="matrix(0.06234567901234565,0,0,0.06234567901234565,0,0)" xlink:href="#bn"/><use transform="matrix(0.06234567901234565,0,0,0.06234567901234565,12.46913580246913,0)" xlink:href="#aS"/><use transform="matrix(0.06234567901234565,0,0,0.06234567901234565,24.93827160493826,0)" xlink:href="#aT"/><use transform="matrix(0.06234567901234565,0,0,0.06234567901234565,31.172839506172828,0)" xlink:href="#aX"/><use transform="matrix(0.06234567901234565,0,0,0.06234567901234565,47.320370370370355,0)" xlink:href="#aY"/><use transform="matrix(0.06234567901234565,0,0,0.06234567901234565,53.55493827160492,0)" xlink:href="#aZ"/><use transform="matrix(0.06234567901234565,0,0,0.06234567901234565,69.70246913580245,0)" xlink:href="#ba"/><use transform="matrix(0.06234567901234565,0,0,0.06234567901234565,77.12160493827157,0)" xlink:href="#bb"/></g></defs></g></svg>