<svg xmlns="http://www.w3.org/2000/svg" xmlns:xlink="http://www.w3.org/1999/xlink" xmlns:lucid="lucid" width="1621.5" height="383"><g transform="translate(1521.5000001227825 -8.499999999999986)" lucid:page-tab-id="0_0"><path d="M-3000-1000h4000v3500h-4000z" fill="#fff"/><path d="M-1520 66a6 6 0 0 1 6-6h228a6 6 0 0 1 6 6v48a6 6 0 0 1-6 6h-228a6 6 0 0 1-6-6z" fill="#f5fbff"/><path d="M-1280 60h-234a6 6 0 0 0-6 6v48a6 6 0 0 0 6 6h234M-1472 60v60" stroke="#4881b3" stroke-width="3" fill="none"/><use xlink:href="#a" transform="matrix(1,0,0,1,-1508,71.99999999999999) translate(-4.833333333333325 22.488888888888887)"/><use xlink:href="#b" transform="matrix(1,0,0,1,-1460,71.99999999999999) translate(29.82160493827164 22.488888888888887)"/><path d="M-1216.64 236a6 6 0 0 1 6-6h314.72a6 6 0 0 1 6 6v48a6 6 0 0 1-6 6h-314.72a6 6 0 0 1-6-6z" fill="#f5fbff"/><path d="M-889.92 230h-320.72a6 6 0 0 0-6 6v48a6 6 0 0 0 6 6h320.72M-1151.3 230v60" stroke="#4881b3" stroke-width="3" fill="none"/><use xlink:href="#c" transform="matrix(1,0,0,1,-1200.3046875,242) translate(-7.160185185185174 22.488888888888887)"/><use xlink:href="#d" transform="matrix(1,0,0,1,-1134.9609375,242) translate(89.59290123456792 22.488888888888887)"/><path d="M-969.28 10c8.83 0 16 7.16 16 16v128c0 8.84-7.17 16-16 16h-168c-8.84 0-16-7.16-16-16V26c0-8.84 7.16-16 16-16z" stroke="#4881b3" stroke-width="3" fill="#f5fbff"/><path d="M-1153.28 62h200" stroke="#4881b3" stroke-width="3" fill="none"/><use xlink:href="#e" transform="matrix(1,0,0,1,-1133.28125,9.999999999999986) translate(64.41358024691358 30.488888888888887)"/><use xlink:href="#f" transform="matrix(1,0,0,1,-1133.28125,71.99999999999999) translate(27.099691358024707 48.48888888888889)"/><use xlink:href="#g" transform="matrix(1,0,0,1,-1133.28125,71.99999999999999) translate(94.37067901234568 48.48888888888889)"/><path d="M-1279 90h105.72" stroke="#224c72" stroke-width="2" fill="none"/><path d="M-1278.97 91h-1.03v-2h1.03z" stroke="#224c72" stroke-width=".05" fill="#224c72"/><path d="M-1158.02 90l-14.26 4.64v-9.28z" stroke="#224c72" stroke-width="2" fill="#224c72"/><path d="M-1053.28 172.5V210" stroke="#224c72" stroke-width="2" fill="none"/><path d="M-1052.28 172.53h-2v-1.03h2z" stroke="#224c72" stroke-width=".05" fill="#224c72"/><path d="M-1053.28 225.26l-4.64-14.26h9.27z" stroke="#224c72" stroke-width="2" fill="#224c72"/><path d="M-616 10c8.84 0 16 7.16 16 16v128c0 8.84-7.16 16-16 16h-168c-8.84 0-16-7.16-16-16V26c0-8.84 7.16-16 16-16z" stroke="#4881b3" stroke-width="3" fill="#f5fbff"/><path d="M-800 62h200" stroke="#4881b3" stroke-width="3" fill="none"/><use xlink:href="#h" transform="matrix(1,0,0,1,-780,9.999999999999986) translate(64.41358024691358 30.488888888888887)"/><use xlink:href="#i" transform="matrix(1,0,0,1,-780,71.99999999999999) translate(16.500925925925955 48.48888888888889)"/><path d="M-888.92 260h37.2a6 6 0 0 0 6-6V96a6 6 0 0 1 6-6H-820" stroke="#224c72" stroke-width="2" fill="none"/><path d="M-888.9 261h-1.02v-2h1.02z" stroke="#224c72" stroke-width=".05" fill="#224c72"/><path d="M-804.74 90L-819 94.64v-9.28z" stroke="#224c72" stroke-width="2" fill="#224c72"/><path d="M-700 172.5V210" stroke="#224c72" stroke-width="2" fill="none"/><path d="M-699 172.53h-2v-1.03h2z" stroke="#224c72" stroke-width=".05" fill="#224c72"/><path d="M-700 225.26l-4.63-14.26h9.26z" stroke="#224c72" stroke-width="2" fill="#224c72"/><path d="M-616 230c8.84 0 16 7.16 16 16v128c0 8.84-7.16 16-16 16h-168c-8.84 0-16-7.16-16-16V246c0-8.84 7.16-16 16-16z" stroke="#4881b3" stroke-width="3" fill="#f5fbff"/><path d="M-800 282h200" stroke="#4881b3" stroke-width="3" fill="none"/><use xlink:href="#j" transform="matrix(1,0,0,1,-780,230) translate(64.41358024691358 30.488888888888887)"/><use xlink:href="#k" transform="matrix(1,0,0,1,-780,292) translate(8.395987654321004 48.48888888888889)"/><use xlink:href="#l" transform="matrix(1,0,0,1,-780,292) translate(108.08672839506171 48.48888888888889)"/><path d="M-597.5 90h80.16" stroke="#224c72" stroke-width="2" fill="none"/><path d="M-597.47 91h-1.03v-2h1.03z" stroke="#224c72" stroke-width=".05" fill="#224c72"/><path d="M-502.07 90l-14.27 4.64v-9.28z" stroke="#224c72" stroke-width="2" fill="#224c72"/><path d="M-313.33 10c8.83 0 16 7.16 16 16v128c0 8.84-7.17 16-16 16h-168c-8.84 0-16-7.16-16-16V26c0-8.84 7.16-16 16-16z" stroke="#4881b3" stroke-width="3" fill="#f5fbff"/><path d="M-497.33 62h200" stroke="#4881b3" stroke-width="3" fill="none"/><use xlink:href="#m" transform="matrix(1,0,0,1,-477.33333333333394,9.999999999999986) translate(64.41358024691358 30.488888888888887)"/><use xlink:href="#n" transform="matrix(1,0,0,1,-477.33333333333394,71.99999999999999) translate(0.9456790123457068 35.022222222222226)"/><use xlink:href="#o" transform="matrix(1,0,0,1,-477.33333333333394,71.99999999999999) translate(76.94506172839507 35.022222222222226)"/><use xlink:href="#p" transform="matrix(1,0,0,1,-477.33333333333394,71.99999999999999) translate(17.779012345679043 61.95555555555555)"/><path d="M-257.3 91h-37.53v-2h37.54zm97.3 0h-20.04v-2H-160z" stroke="#224c72" stroke-width=".05" fill="#224c72"/><path d="M-294.8 91h-1.03v-2h1.02z" fill="#224c72"/><path d="M-294.78 91.03h-1.08v-2.06h1.08zm-1.03-2v1.94h.97v-1.94z" stroke="#224c72" stroke-width=".05" fill="#224c72"/><path d="M-144.74 90L-159 94.64v-9.28z" fill="#224c72"/><path d="M-141.5 90l-18.5 6V84zm-16.5 3.26l10.03-3.26-10.03-3.26z" stroke="#224c72" stroke-width=".05" fill="#224c72"/><use xlink:href="#q" transform="matrix(1,0,0,1,-257.28978981481674,63.06666666666666) translate(0.005000000000002558 17.95555555555555)"/><use xlink:href="#r" transform="matrix(1,0,0,1,-257.28978981481674,63.06666666666666) translate(58.54759259259257 17.95555555555555)"/><use xlink:href="#s" transform="matrix(1,0,0,1,-257.28978981481674,63.06666666666666) translate(11.850679012345676 44.88888888888887)"/><path d="M-140 66a6 6 0 0 1 6-6H94a6 6 0 0 1 6 6v48a6 6 0 0 1-6 6h-228a6 6 0 0 1-6-6z" fill="#f5fbff"/><path d="M100 60h-234a6 6 0 0 0-6 6v48a6 6 0 0 0 6 6h234M-92 60v60" stroke="#4881b3" stroke-width="3" fill="none"/><g><use xlink:href="#t" transform="matrix(1,0,0,1,-128,71.99999999999999) translate(-4.833333333333325 22.488888888888887)"/></g><g><use xlink:href="#b" transform="matrix(1,0,0,1,-80,71.99999999999999) translate(29.82160493827164 22.488888888888887)"/></g><defs><path fill="#1d262b" d="M160-131c35 5 61 23 61 61C221 17 115-2 30 0v-248c76 3 177-17 177 60 0 33-19 50-47 57zm-97-11c50-1 110 9 110-42 0-47-63-36-110-37v79zm0 115c55-2 124 14 124-45 0-56-70-42-124-44v89" id="u"/><path fill="#1d262b" d="M33 0v-38h34V0H33" id="v"/><path fill="#1d262b" d="M101-251c68 0 85 55 85 127S166 4 100 4C33 4 14-52 14-124c0-73 17-127 87-127zm-1 229c47 0 54-49 54-102s-4-102-53-102c-51 0-55 48-55 102 0 53 5 102 54 102" id="w"/><g id="a"><use transform="matrix(0.06234567901234565,0,0,0.06234567901234565,0,0)" xlink:href="#u"/><use transform="matrix(0.06234567901234565,0,0,0.06234567901234565,14.962962962962957,0)" xlink:href="#v"/><use transform="matrix(0.06234567901234565,0,0,0.06234567901234565,21.19753086419752,0)" xlink:href="#w"/></g><path fill="#1d262b" d="M24 0v-261h32V0H24" id="x"/><path fill="#1d262b" d="M100-194c62-1 85 37 85 99 1 63-27 99-86 99S16-35 15-95c0-66 28-99 85-99zM99-20c44 1 53-31 53-75 0-43-8-75-51-75s-53 32-53 75 10 74 51 75" id="y"/><path fill="#1d262b" d="M96-169c-40 0-48 33-48 73s9 75 48 75c24 0 41-14 43-38l32 2c-6 37-31 61-74 61-59 0-76-41-82-99-10-93 101-131 147-64 4 7 5 14 7 22l-32 3c-4-21-16-35-41-35" id="z"/><path fill="#1d262b" d="M143 0L79-87 56-68V0H24v-261h32v163l83-92h37l-77 82L181 0h-38" id="A"/><path fill="#1d262b" d="M106-169C34-169 62-67 57 0H25v-261h32l-1 103c12-21 28-36 61-36 89 0 53 116 60 194h-32v-121c2-32-8-49-39-48" id="B"/><path fill="#1d262b" d="M141-36C126-15 110 5 73 4 37 3 15-17 15-53c-1-64 63-63 125-63 3-35-9-54-41-54-24 1-41 7-42 31l-33-3c5-37 33-52 76-52 45 0 72 20 72 64v82c-1 20 7 32 28 27v20c-31 9-61-2-59-35zM48-53c0 20 12 33 32 33 41-3 63-29 60-74-43 2-92-5-92 41" id="C"/><path fill="#1d262b" d="M24-231v-30h32v30H24zM24 0v-190h32V0H24" id="D"/><path fill="#1d262b" d="M117-194c89-4 53 116 60 194h-32v-121c0-31-8-49-39-48C34-167 62-67 57 0H25l-1-190h30c1 10-1 24 2 32 11-22 29-35 61-36" id="E"/><g id="b"><use transform="matrix(0.06234567901234565,0,0,0.06234567901234565,0,0)" xlink:href="#u"/><use transform="matrix(0.06234567901234565,0,0,0.06234567901234565,14.962962962962957,0)" xlink:href="#x"/><use transform="matrix(0.06234567901234565,0,0,0.06234567901234565,19.888271604938264,0)" xlink:href="#y"/><use transform="matrix(0.06234567901234565,0,0,0.06234567901234565,32.35740740740739,0)" xlink:href="#z"/><use transform="matrix(0.06234567901234565,0,0,0.06234567901234565,43.57962962962961,0)" xlink:href="#A"/><use transform="matrix(0.06234567901234565,0,0,0.06234567901234565,54.80185185185182,0)" xlink:href="#z"/><use transform="matrix(0.06234567901234565,0,0,0.06234567901234565,66.02407407407404,0)" xlink:href="#B"/><use transform="matrix(0.06234567901234565,0,0,0.06234567901234565,78.49320987654316,0)" xlink:href="#C"/><use transform="matrix(0.06234567901234565,0,0,0.06234567901234565,90.96234567901229,0)" xlink:href="#D"/><use transform="matrix(0.06234567901234565,0,0,0.06234567901234565,95.8876543209876,0)" xlink:href="#E"/></g><path fill="#1d262b" d="M63-220v92h138v28H63V0H30v-248h175v28H63" id="F"/><path fill="#1d262b" d="M185-189c-5-48-123-54-124 2 14 75 158 14 163 119 3 78-121 87-175 55-17-10-28-26-33-46l33-7c5 56 141 63 141-1 0-78-155-14-162-118-5-82 145-84 179-34 5 7 8 16 11 25" id="G"/><g id="c"><use transform="matrix(0.06234567901234565,0,0,0.06234567901234565,0,0)" xlink:href="#F"/><use transform="matrix(0.06234567901234565,0,0,0.06234567901234565,13.653703703703698,0)" xlink:href="#G"/><use transform="matrix(0.06234567901234565,0,0,0.06234567901234565,28.616666666666653,0)" xlink:href="#v"/><use transform="matrix(0.06234567901234565,0,0,0.06234567901234565,34.851234567901216,0)" xlink:href="#w"/></g><path fill="#1d262b" d="M33 0v-248h34V0H33" id="H"/><path fill="#1d262b" d="M30-248c87 1 191-15 191 75 0 78-77 80-158 76V0H30v-248zm33 125c57 0 124 11 124-50 0-59-68-47-124-48v98" id="I"/><g id="d"><use transform="matrix(0.06234567901234565,0,0,0.06234567901234565,0,0)" xlink:href="#H"/><use transform="matrix(0.06234567901234565,0,0,0.06234567901234565,6.234567901234565,0)" xlink:href="#I"/><use transform="matrix(0.06234567901234565,0,0,0.06234567901234565,21.19753086419752,0)" xlink:href="#F"/><use transform="matrix(0.06234567901234565,0,0,0.06234567901234565,34.851234567901216,0)" xlink:href="#G"/></g><path fill="#1d262b" d="M126-127c33 6 58 20 58 59 0 88-139 92-164 29-3-8-5-16-6-25l32-3c6 27 21 44 54 44 32 0 52-15 52-46 0-38-36-46-79-43v-28c39 1 72-4 72-42 0-27-17-43-46-43-28 0-47 15-49 41l-32-3c6-42 35-63 81-64 48-1 79 21 79 65 0 36-21 52-52 59" id="J"/><g id="e"><use transform="matrix(0.06234567901234565,0,0,0.06234567901234565,0,0)" xlink:href="#J"/><use transform="matrix(0.06234567901234565,0,0,0.06234567901234565,12.46913580246913,0)" xlink:href="#v"/><use transform="matrix(0.06234567901234565,0,0,0.06234567901234565,18.703703703703695,0)" xlink:href="#w"/></g><path fill="#1d262b" d="M140-251c81 0 123 46 123 126C263-53 228-8 163 1c7 30 30 48 69 40v23c-55 16-95-15-103-61C56-3 17-48 17-125c0-80 42-126 123-126zm0 227c63 0 89-41 89-101s-29-99-89-99c-61 0-89 39-89 99S79-25 140-24" id="K"/><path fill="#1d262b" d="M84 4C-5 8 30-112 23-190h32v120c0 31 7 50 39 49 72-2 45-101 50-169h31l1 190h-30c-1-10 1-25-2-33-11 22-28 36-60 37" id="L"/><path fill="#1d262b" d="M100-194c63 0 86 42 84 106H49c0 40 14 67 53 68 26 1 43-12 49-29l28 8c-11 28-37 45-77 45C44 4 14-33 15-96c1-61 26-98 85-98zm52 81c6-60-76-77-97-28-3 7-6 17-6 28h103" id="M"/><path fill="#1d262b" d="M114-163C36-179 61-72 57 0H25l-1-190h30c1 12-1 29 2 39 6-27 23-49 58-41v29" id="N"/><path fill="#1d262b" d="M179-190L93 31C79 59 56 82 12 73V49c39 6 53-20 64-50L1-190h34L92-34l54-156h33" id="O"/><g id="f"><use transform="matrix(0.06234567901234565,0,0,0.06234567901234565,0,0)" xlink:href="#K"/><use transform="matrix(0.06234567901234565,0,0,0.06234567901234565,17.456790123456784,0)" xlink:href="#L"/><use transform="matrix(0.06234567901234565,0,0,0.06234567901234565,29.925925925925917,0)" xlink:href="#M"/><use transform="matrix(0.06234567901234565,0,0,0.06234567901234565,42.39506172839505,0)" xlink:href="#N"/><use transform="matrix(0.06234567901234565,0,0,0.06234567901234565,49.814197530864185,0)" xlink:href="#O"/></g><path fill="#1d262b" d="M212-179c-10-28-35-45-73-45-59 0-87 40-87 99 0 60 29 101 89 101 43 0 62-24 78-52l27 14C228-24 195 4 139 4 59 4 22-46 18-125c-6-104 99-153 187-111 19 9 31 26 39 46" id="P"/><path fill="#1d262b" d="M30-248c118-7 216 8 213 122C240-48 200 0 122 0H30v-248zM63-27c89 8 146-16 146-99s-60-101-146-95v194" id="Q"/><g id="g"><use transform="matrix(0.06234567901234565,0,0,0.06234567901234565,0,0)" xlink:href="#P"/><use transform="matrix(0.06234567901234565,0,0,0.06234567901234565,16.147530864197524,0)" xlink:href="#H"/><use transform="matrix(0.06234567901234565,0,0,0.06234567901234565,22.38209876543209,0)" xlink:href="#Q"/></g><path fill="#1d262b" d="M155-56V0h-30v-56H8v-25l114-167h33v167h35v25h-35zm-30-156c-27 46-58 90-88 131h88v-131" id="R"/><g id="h"><use transform="matrix(0.06234567901234565,0,0,0.06234567901234565,0,0)" xlink:href="#R"/><use transform="matrix(0.06234567901234565,0,0,0.06234567901234565,12.46913580246913,0)" xlink:href="#v"/><use transform="matrix(0.06234567901234565,0,0,0.06234567901234565,18.703703703703695,0)" xlink:href="#w"/></g><path fill="#1d262b" d="M210-169c-67 3-38 105-44 169h-31v-121c0-29-5-50-35-48C34-165 62-65 56 0H25l-1-190h30c1 10-1 24 2 32 10-44 99-50 107 0 11-21 27-35 58-36 85-2 47 119 55 194h-31v-121c0-29-5-49-35-48" id="S"/><path fill="#1d262b" d="M115-194c55 1 70 41 70 98S169 2 115 4C84 4 66-9 55-30l1 105H24l-1-265h31l2 30c10-21 28-34 59-34zm-8 174c40 0 45-34 45-75s-6-73-45-74c-42 0-51 32-51 76 0 43 10 73 51 73" id="T"/><path fill="#1d262b" d="M59-47c-2 24 18 29 38 22v24C64 9 27 4 27-40v-127H5v-23h24l9-43h21v43h35v23H59v120" id="U"/><g id="i"><use transform="matrix(0.06234567901234565,0,0,0.06234567901234565,0,0)" xlink:href="#P"/><use transform="matrix(0.06234567901234565,0,0,0.06234567901234565,16.147530864197524,0)" xlink:href="#y"/><use transform="matrix(0.06234567901234565,0,0,0.06234567901234565,28.616666666666653,0)" xlink:href="#S"/><use transform="matrix(0.06234567901234565,0,0,0.06234567901234565,47.258024691358,0)" xlink:href="#T"/><use transform="matrix(0.06234567901234565,0,0,0.06234567901234565,59.727160493827135,0)" xlink:href="#L"/><use transform="matrix(0.06234567901234565,0,0,0.06234567901234565,72.19629629629627,0)" xlink:href="#U"/><use transform="matrix(0.06234567901234565,0,0,0.06234567901234565,78.43086419753084,0)" xlink:href="#C"/><use transform="matrix(0.06234567901234565,0,0,0.06234567901234565,90.89999999999996,0)" xlink:href="#U"/><use transform="matrix(0.06234567901234565,0,0,0.06234567901234565,97.13456790123453,0)" xlink:href="#D"/><use transform="matrix(0.06234567901234565,0,0,0.06234567901234565,102.05987654320984,0)" xlink:href="#y"/><use transform="matrix(0.06234567901234565,0,0,0.06234567901234565,114.52901234567896,0)" xlink:href="#E"/></g><path fill="#1d262b" d="M54-142c48-35 137-8 131 61C196 18 31 33 14-55l32-4c7 23 22 37 52 37 35-1 51-22 54-58 4-55-73-65-99-34H22l8-134h141v27H59" id="V"/><g id="j"><use transform="matrix(0.06234567901234565,0,0,0.06234567901234565,0,0)" xlink:href="#V"/><use transform="matrix(0.06234567901234565,0,0,0.06234567901234565,12.46913580246913,0)" xlink:href="#v"/><use transform="matrix(0.06234567901234565,0,0,0.06234567901234565,18.703703703703695,0)" xlink:href="#w"/></g><path fill="#1d262b" d="M143 4C61 4 22-44 18-125c-5-107 100-154 193-111 17 8 29 25 37 43l-32 9c-13-25-37-40-76-40-61 0-88 39-88 99 0 61 29 100 91 101 35 0 62-11 79-27v-45h-74v-28h105v86C228-13 192 4 143 4" id="W"/><g id="k"><use transform="matrix(0.06234567901234565,0,0,0.06234567901234565,0,0)" xlink:href="#W"/><use transform="matrix(0.06234567901234565,0,0,0.06234567901234565,17.456790123456784,0)" xlink:href="#M"/><use transform="matrix(0.06234567901234565,0,0,0.06234567901234565,29.925925925925917,0)" xlink:href="#E"/><use transform="matrix(0.06234567901234565,0,0,0.06234567901234565,42.39506172839505,0)" xlink:href="#M"/><use transform="matrix(0.06234567901234565,0,0,0.06234567901234565,54.86419753086418,0)" xlink:href="#N"/><use transform="matrix(0.06234567901234565,0,0,0.06234567901234565,62.28333333333332,0)" xlink:href="#C"/><use transform="matrix(0.06234567901234565,0,0,0.06234567901234565,74.75246913580244,0)" xlink:href="#U"/><use transform="matrix(0.06234567901234565,0,0,0.06234567901234565,80.98703703703701,0)" xlink:href="#M"/></g><g id="l"><use transform="matrix(0.06234567901234565,0,0,0.06234567901234565,0,0)" xlink:href="#C"/><use transform="matrix(0.06234567901234565,0,0,0.06234567901234565,12.46913580246913,0)" xlink:href="#x"/><use transform="matrix(0.06234567901234565,0,0,0.06234567901234565,17.39444444444444,0)" xlink:href="#M"/><use transform="matrix(0.06234567901234565,0,0,0.06234567901234565,29.86358024691357,0)" xlink:href="#N"/><use transform="matrix(0.06234567901234565,0,0,0.06234567901234565,37.28271604938271,0)" xlink:href="#U"/></g><path fill="#1d262b" d="M110-160c48 1 74 30 74 79 0 53-28 85-80 85-65 0-83-55-86-122-5-90 50-162 133-122 14 7 22 21 27 39l-31 6c-5-40-67-38-82-6-9 19-15 44-15 74 11-20 30-34 60-33zm-7 138c34 0 49-23 49-58s-16-56-50-56c-29 0-50 16-49 49 1 36 15 65 50 65" id="X"/><g id="m"><use transform="matrix(0.06234567901234565,0,0,0.06234567901234565,0,0)" xlink:href="#X"/><use transform="matrix(0.06234567901234565,0,0,0.06234567901234565,12.46913580246913,0)" xlink:href="#v"/><use transform="matrix(0.06234567901234565,0,0,0.06234567901234565,18.703703703703695,0)" xlink:href="#w"/></g><path fill="#1d262b" d="M30 0v-248h187v28H63v79h144v27H63v87h162V0H30" id="Y"/><path fill="#1d262b" d="M141 0L90-78 38 0H4l68-98-65-92h35l48 74 47-74h35l-64 92 68 98h-35" id="Z"/><g id="n"><use transform="matrix(0.06234567901234565,0,0,0.06234567901234565,0,0)" xlink:href="#Y"/><use transform="matrix(0.06234567901234565,0,0,0.06234567901234565,14.962962962962957,0)" xlink:href="#Z"/><use transform="matrix(0.06234567901234565,0,0,0.06234567901234565,26.185185185185176,0)" xlink:href="#U"/><use transform="matrix(0.06234567901234565,0,0,0.06234567901234565,32.41975308641974,0)" xlink:href="#N"/><use transform="matrix(0.06234567901234565,0,0,0.06234567901234565,39.838888888888874,0)" xlink:href="#C"/><use transform="matrix(0.06234567901234565,0,0,0.06234567901234565,52.30802469135801,0)" xlink:href="#z"/><use transform="matrix(0.06234567901234565,0,0,0.06234567901234565,63.53024691358023,0)" xlink:href="#U"/></g><path fill="#1d262b" d="M85-194c31 0 48 13 60 33l-1-100h32l1 261h-30c-2-10 0-23-3-31C134-8 116 4 85 4 32 4 16-35 15-94c0-66 23-100 70-100zm9 24c-40 0-46 34-46 75 0 40 6 74 45 74 42 0 51-32 51-76 0-42-9-74-50-73" id="aa"/><path fill="#1d262b" d="M177-190C167-65 218 103 67 71c-23-6-38-20-44-43l32-5c15 47 100 32 89-28v-30C133-14 115 1 83 1 29 1 15-40 15-95c0-56 16-97 71-98 29-1 48 16 59 35 1-10 0-23 2-32h30zM94-22c36 0 50-32 50-73 0-42-14-75-50-75-39 0-46 34-46 75s6 73 46 73" id="ab"/><g id="o"><use transform="matrix(0.06234567901234565,0,0,0.06234567901234565,0,0)" xlink:href="#y"/><use transform="matrix(0.06234567901234565,0,0,0.06234567901234565,12.46913580246913,0)" xlink:href="#N"/><use transform="matrix(0.06234567901234565,0,0,0.06234567901234565,19.888271604938264,0)" xlink:href="#aa"/><use transform="matrix(0.06234567901234565,0,0,0.06234567901234565,32.35740740740739,0)" xlink:href="#M"/><use transform="matrix(0.06234567901234565,0,0,0.06234567901234565,44.826543209876526,0)" xlink:href="#N"/><use transform="matrix(0.06234567901234565,0,0,0.06234567901234565,52.24567901234566,0)" xlink:href="#D"/><use transform="matrix(0.06234567901234565,0,0,0.06234567901234565,57.17098765432097,0)" xlink:href="#E"/><use transform="matrix(0.06234567901234565,0,0,0.06234567901234565,69.64012345679009,0)" xlink:href="#ab"/></g><path fill="#1d262b" d="M101-234c-31-9-42 10-38 44h38v23H63V0H32v-167H5v-23h27c-7-52 17-82 69-68v24" id="ac"/><g id="p"><use transform="matrix(0.06234567901234565,0,0,0.06234567901234565,0,0)" xlink:href="#D"/><use transform="matrix(0.06234567901234565,0,0,0.06234567901234565,4.925308641975307,0)" xlink:href="#aa"/><use transform="matrix(0.06234567901234565,0,0,0.06234567901234565,17.39444444444444,0)" xlink:href="#M"/><use transform="matrix(0.06234567901234565,0,0,0.06234567901234565,29.86358024691357,0)" xlink:href="#E"/><use transform="matrix(0.06234567901234565,0,0,0.06234567901234565,42.332716049382704,0)" xlink:href="#U"/><use transform="matrix(0.06234567901234565,0,0,0.06234567901234565,48.567283950617266,0)" xlink:href="#D"/><use transform="matrix(0.06234567901234565,0,0,0.06234567901234565,53.49259259259257,0)" xlink:href="#ac"/><use transform="matrix(0.06234567901234565,0,0,0.06234567901234565,59.727160493827135,0)" xlink:href="#D"/><use transform="matrix(0.06234567901234565,0,0,0.06234567901234565,64.65246913580245,0)" xlink:href="#z"/><use transform="matrix(0.06234567901234565,0,0,0.06234567901234565,75.87469135802466,0)" xlink:href="#C"/><use transform="matrix(0.06234567901234565,0,0,0.06234567901234565,88.34382716049379,0)" xlink:href="#U"/><use transform="matrix(0.06234567901234565,0,0,0.06234567901234565,94.57839506172836,0)" xlink:href="#D"/><use transform="matrix(0.06234567901234565,0,0,0.06234567901234565,99.50370370370366,0)" xlink:href="#y"/><use transform="matrix(0.06234567901234565,0,0,0.06234567901234565,111.97283950617279,0)" xlink:href="#E"/></g><path fill="#1d262b" d="M197 0v-115H63V0H30v-248h33v105h134v-105h34V0h-34" id="ad"/><path fill="#1d262b" d="M135-143c-3-34-86-38-87 0 15 53 115 12 119 90S17 21 10-45l28-5c4 36 97 45 98 0-10-56-113-15-118-90-4-57 82-63 122-42 12 7 21 19 24 35" id="ae"/><g id="q"><use transform="matrix(0.06234567901234565,0,0,0.06234567901234565,0,0)" xlink:href="#ad"/><use transform="matrix(0.06234567901234565,0,0,0.06234567901234565,16.147530864197524,0)" xlink:href="#C"/><use transform="matrix(0.06234567901234565,0,0,0.06234567901234565,28.616666666666653,0)" xlink:href="#ae"/><use transform="matrix(0.06234567901234565,0,0,0.06234567901234565,39.838888888888874,0)" xlink:href="#B"/></g><g id="r"><use transform="matrix(0.06234567901234565,0,0,0.06234567901234565,0,0)" xlink:href="#y"/><use transform="matrix(0.06234567901234565,0,0,0.06234567901234565,12.46913580246913,0)" xlink:href="#ac"/></g><g id="s"><use transform="matrix(0.06234567901234565,0,0,0.06234567901234565,0,0)" xlink:href="#I"/><use transform="matrix(0.06234567901234565,0,0,0.06234567901234565,14.962962962962957,0)" xlink:href="#N"/><use transform="matrix(0.06234567901234565,0,0,0.06234567901234565,22.38209876543209,0)" xlink:href="#y"/><use transform="matrix(0.06234567901234565,0,0,0.06234567901234565,34.85123456790122,0)" xlink:href="#y"/><use transform="matrix(0.06234567901234565,0,0,0.06234567901234565,47.320370370370355,0)" xlink:href="#ac"/></g><path fill="#1d262b" d="M27 0v-27h64v-190l-56 39v-29l58-41h29v221h61V0H27" id="af"/><g id="t"><use transform="matrix(0.06234567901234565,0,0,0.06234567901234565,0,0)" xlink:href="#u"/><use transform="matrix(0.06234567901234565,0,0,0.06234567901234565,14.962962962962957,0)" xlink:href="#v"/><use transform="matrix(0.06234567901234565,0,0,0.06234567901234565,21.19753086419752,0)" xlink:href="#af"/></g></defs></g></svg>