<svg xmlns="http://www.w3.org/2000/svg" xmlns:xlink="http://www.w3.org/1999/xlink" xmlns:lucid="lucid" width="1271.5" height="353"><g transform="translate(2881.500000048707 1.5)" lucid:page-tab-id="0_0"><path d="M-3000-1000h4000v3500h-4000z" fill="#fff"/><path d="M-2296 0c8.84 0 16 7.16 16 16v128c0 8.84-7.16 16-16 16h-168c-8.84 0-16-7.16-16-16V16c0-8.84 7.16-16 16-16z" stroke="#4881b3" stroke-width="3" fill="#f5fbff"/><path d="M-2480 52h200" stroke="#4881b3" stroke-width="3" fill="none"/><use xlink:href="#a" transform="matrix(1,0,0,1,-2460,0) translate(64.41358024691358 30.488888888888887)"/><use xlink:href="#b" transform="matrix(1,0,0,1,-2460,62) translate(33.27191358024693 35.022222222222226)"/><use xlink:href="#c" transform="matrix(1,0,0,1,-2460,62) translate(0.9768518518518903 61.95555555555555)"/><use xlink:href="#d" transform="matrix(1,0,0,1,-2460,62) translate(111.70277777777775 61.95555555555555)"/><path d="M-2880 16a6 6 0 0 1 6-6h159a6 6 0 0 1 6 6v121a6 6 0 0 1-6 6h-159a6 6 0 0 1-6-6z" stroke="#4881b3" stroke-width="3" fill="#f5fbff"/><path d="M-2871 23a6 6 0 0 1 6-6h159a6 6 0 0 1 6 6v121a6 6 0 0 1-6 6h-159a6 6 0 0 1-6-6z" stroke="#4881b3" stroke-width="3" fill="#f5fbff"/><use xlink:href="#e" transform="matrix(1,0,0,1,-2858,10) translate(12.922530864197562 74.48888888888888)"/><use xlink:href="#f" transform="matrix(1,0,0,1,-2858,10) translate(51.0780864197531 74.48888888888888)"/><path d="M-2646.67 81h-50.83v-2h50.83zm146.67 0h-33.33v-2h33.33z" stroke="#224c72" stroke-width=".05" fill="#224c72"/><path d="M-2697.47 81h-1.03v-2h1.03z" fill="#224c72"/><path d="M-2697.45 81.03h-1.08v-2.06h1.08zm-1.03-2v1.94h.98v-1.94z" stroke="#224c72" stroke-width=".05" fill="#224c72"/><path d="M-2484.74 80l-14.26 4.64v-9.28z" fill="#224c72"/><path d="M-2481.5 80l-18.5 6V74zm-16.5 3.26l10.03-3.26-10.03-3.26z" stroke="#224c72" stroke-width=".05" fill="#224c72"/><use xlink:href="#g" transform="matrix(1,0,0,1,-2646.6722486685026,53.06666666666668) translate(0.005000000000002558 17.95555555555555)"/><use xlink:href="#h" transform="matrix(1,0,0,1,-2646.6722486685026,53.06666666666668) translate(75.94203703703701 17.95555555555555)"/><use xlink:href="#i" transform="matrix(1,0,0,1,-2646.6722486685026,53.06666666666668) translate(14.936790123456788 44.88888888888887)"/><path d="M-1676 0c8.84 0 16 7.16 16 16v128c0 8.84-7.16 16-16 16h-168c-8.84 0-16-7.16-16-16V16c0-8.84 7.16-16 16-16z" stroke="#4881b3" stroke-width="3" fill="#f5fbff"/><path d="M-1860 52h200" stroke="#4881b3" stroke-width="3" fill="none"/><use xlink:href="#j" transform="matrix(1,0,0,1,-1840,0) translate(64.41358024691358 30.488888888888887)"/><use xlink:href="#k" transform="matrix(1,0,0,1,-1840,62) translate(3.3459876543210214 48.48888888888889)"/><use xlink:href="#l" transform="matrix(1,0,0,1,-1840,62) translate(113.01203703703703 48.48888888888889)"/><path d="M-2277.5 80h97.5" stroke="#224c72" stroke-width="2" fill="none"/><path d="M-2277.47 81h-1.03v-2h1.03z" stroke="#224c72" stroke-width=".05" fill="#224c72"/><path d="M-2164.74 80l-14.26 4.64v-9.28z" stroke="#224c72" stroke-width="2" fill="#224c72"/><path d="M-1910 296a6 6 0 0 1 6-6h288a6 6 0 0 1 6 6v48a6 6 0 0 1-6 6h-288a6 6 0 0 1-6-6z" fill="#f5fbff"/><path d="M-1610 290h-294a6 6 0 0 0-6 6v48a6 6 0 0 0 6 6h294M-1850 290v60" stroke="#4881b3" stroke-width="3" fill="none"/><use xlink:href="#m" transform="matrix(1,0,0,1,-1895,302) translate(-8.660185185185174 22.488888888888887)"/><use xlink:href="#n" transform="matrix(1,0,0,1,-1835,302) translate(80.09290123456792 22.488888888888887)"/><path d="M-1760 162.5V270" stroke="#224c72" stroke-width="2" fill="none"/><path d="M-1759 162.53h-2v-1.03h2z" stroke="#224c72" stroke-width=".05" fill="#224c72"/><path d="M-1760 285.26l-4.63-14.26h9.27z" stroke="#224c72" stroke-width="2" fill="#224c72"/><path d="M-1977.5 80h97.5" stroke="#224c72" stroke-width="2" fill="none"/><path d="M-1977.47 81h-1.03v-2h1.03z" stroke="#224c72" stroke-width=".05" fill="#224c72"/><path d="M-1864.74 80l-14.26 4.64v-9.28z" stroke="#224c72" stroke-width="2" fill="#224c72"/><path d="M-2160 16a6 6 0 0 1 6-6h168a6 6 0 0 1 6 6v128a6 6 0 0 1-6 6h-168a6 6 0 0 1-6-6z" stroke="#4881b3" stroke-width="3" fill="#f5fbff"/><g><use xlink:href="#o" transform="matrix(1,0,0,1,-2140,10) translate(10.210493827160526 47.555555555555564)"/><use xlink:href="#p" transform="matrix(1,0,0,1,-2140,10) translate(14.574691358024715 74.48888888888888)"/><use xlink:href="#q" transform="matrix(1,0,0,1,-2140,10) translate(37.61141975308643 101.42222222222222)"/></g><defs><path fill="#1d262b" d="M27 0v-27h64v-190l-56 39v-29l58-41h29v221h61V0H27" id="r"/><path fill="#1d262b" d="M33 0v-38h34V0H33" id="s"/><path fill="#1d262b" d="M101-251c68 0 85 55 85 127S166 4 100 4C33 4 14-52 14-124c0-73 17-127 87-127zm-1 229c47 0 54-49 54-102s-4-102-53-102c-51 0-55 48-55 102 0 53 5 102 54 102" id="t"/><g id="a"><use transform="matrix(0.06234567901234565,0,0,0.06234567901234565,0,0)" xlink:href="#r"/><use transform="matrix(0.06234567901234565,0,0,0.06234567901234565,12.46913580246913,0)" xlink:href="#s"/><use transform="matrix(0.06234567901234565,0,0,0.06234567901234565,18.703703703703695,0)" xlink:href="#t"/></g><path fill="#1d262b" d="M143 4C61 4 22-44 18-125c-5-107 100-154 193-111 17 8 29 25 37 43l-32 9c-13-25-37-40-76-40-61 0-88 39-88 99 0 61 29 100 91 101 35 0 62-11 79-27v-45h-74v-28h105v86C228-13 192 4 143 4" id="u"/><path fill="#1d262b" d="M100-194c63 0 86 42 84 106H49c0 40 14 67 53 68 26 1 43-12 49-29l28 8c-11 28-37 45-77 45C44 4 14-33 15-96c1-61 26-98 85-98zm52 81c6-60-76-77-97-28-3 7-6 17-6 28h103" id="v"/><path fill="#1d262b" d="M117-194c89-4 53 116 60 194h-32v-121c0-31-8-49-39-48C34-167 62-67 57 0H25l-1-190h30c1 10-1 24 2 32 11-22 29-35 61-36" id="w"/><path fill="#1d262b" d="M114-163C36-179 61-72 57 0H25l-1-190h30c1 12-1 29 2 39 6-27 23-49 58-41v29" id="x"/><path fill="#1d262b" d="M141-36C126-15 110 5 73 4 37 3 15-17 15-53c-1-64 63-63 125-63 3-35-9-54-41-54-24 1-41 7-42 31l-33-3c5-37 33-52 76-52 45 0 72 20 72 64v82c-1 20 7 32 28 27v20c-31 9-61-2-59-35zM48-53c0 20 12 33 32 33 41-3 63-29 60-74-43 2-92-5-92 41" id="y"/><path fill="#1d262b" d="M59-47c-2 24 18 29 38 22v24C64 9 27 4 27-40v-127H5v-23h24l9-43h21v43h35v23H59v120" id="z"/><g id="b"><use transform="matrix(0.06234567901234565,0,0,0.06234567901234565,0,0)" xlink:href="#u"/><use transform="matrix(0.06234567901234565,0,0,0.06234567901234565,17.456790123456784,0)" xlink:href="#v"/><use transform="matrix(0.06234567901234565,0,0,0.06234567901234565,29.925925925925917,0)" xlink:href="#w"/><use transform="matrix(0.06234567901234565,0,0,0.06234567901234565,42.39506172839505,0)" xlink:href="#v"/><use transform="matrix(0.06234567901234565,0,0,0.06234567901234565,54.86419753086418,0)" xlink:href="#x"/><use transform="matrix(0.06234567901234565,0,0,0.06234567901234565,62.28333333333332,0)" xlink:href="#y"/><use transform="matrix(0.06234567901234565,0,0,0.06234567901234565,74.75246913580244,0)" xlink:href="#z"/><use transform="matrix(0.06234567901234565,0,0,0.06234567901234565,80.98703703703701,0)" xlink:href="#v"/></g><path fill="#1d262b" d="M240 0l2-218c-23 76-54 145-80 218h-23L58-218 59 0H30v-248h44l77 211c21-75 51-140 76-211h43V0h-30" id="A"/><path fill="#1d262b" d="M100-194c62-1 85 37 85 99 1 63-27 99-86 99S16-35 15-95c0-66 28-99 85-99zM99-20c44 1 53-31 53-75 0-43-8-75-51-75s-53 32-53 75 10 74 51 75" id="B"/><path fill="#1d262b" d="M24-231v-30h32v30H24zM24 0v-190h32V0H24" id="C"/><path fill="#1d262b" d="M177-190C167-65 218 103 67 71c-23-6-38-20-44-43l32-5c15 47 100 32 89-28v-30C133-14 115 1 83 1 29 1 15-40 15-95c0-56 16-97 71-98 29-1 48 16 59 35 1-10 0-23 2-32h30zM94-22c36 0 50-32 50-73 0-42-14-75-50-75-39 0-46 34-46 75s6 73 46 73" id="D"/><g id="c"><use transform="matrix(0.06234567901234565,0,0,0.06234567901234565,0,0)" xlink:href="#A"/><use transform="matrix(0.06234567901234565,0,0,0.06234567901234565,18.64135802469135,0)" xlink:href="#B"/><use transform="matrix(0.06234567901234565,0,0,0.06234567901234565,31.110493827160482,0)" xlink:href="#w"/><use transform="matrix(0.06234567901234565,0,0,0.06234567901234565,43.579629629629615,0)" xlink:href="#C"/><use transform="matrix(0.06234567901234565,0,0,0.06234567901234565,48.50493827160492,0)" xlink:href="#z"/><use transform="matrix(0.06234567901234565,0,0,0.06234567901234565,54.739506172839484,0)" xlink:href="#B"/><use transform="matrix(0.06234567901234565,0,0,0.06234567901234565,67.20864197530861,0)" xlink:href="#x"/><use transform="matrix(0.06234567901234565,0,0,0.06234567901234565,74.62777777777774,0)" xlink:href="#C"/><use transform="matrix(0.06234567901234565,0,0,0.06234567901234565,79.55308641975304,0)" xlink:href="#w"/><use transform="matrix(0.06234567901234565,0,0,0.06234567901234565,92.02222222222217,0)" xlink:href="#D"/></g><path fill="#1d262b" d="M30-248c118-7 216 8 213 122C240-48 200 0 122 0H30v-248zM63-27c89 8 146-16 146-99s-60-101-146-95v194" id="E"/><g id="d"><use transform="matrix(0.06234567901234565,0,0,0.06234567901234565,0,0)" xlink:href="#E"/><use transform="matrix(0.06234567901234565,0,0,0.06234567901234565,16.147530864197524,0)" xlink:href="#y"/><use transform="matrix(0.06234567901234565,0,0,0.06234567901234565,28.616666666666653,0)" xlink:href="#z"/><use transform="matrix(0.06234567901234565,0,0,0.06234567901234565,34.851234567901216,0)" xlink:href="#y"/></g><path fill="#1d262b" d="M33 0v-248h34V0H33" id="F"/><path fill="#1d262b" d="M127-220V0H93v-220H8v-28h204v28h-85" id="G"/><g id="e"><use transform="matrix(0.06234567901234565,0,0,0.06234567901234565,0,0)" xlink:href="#F"/><use transform="matrix(0.06234567901234565,0,0,0.06234567901234565,6.234567901234565,0)" xlink:href="#B"/><use transform="matrix(0.06234567901234565,0,0,0.06234567901234565,18.703703703703695,0)" xlink:href="#G"/></g><path fill="#1d262b" d="M85-194c31 0 48 13 60 33l-1-100h32l1 261h-30c-2-10 0-23-3-31C134-8 116 4 85 4 32 4 16-35 15-94c0-66 23-100 70-100zm9 24c-40 0-46 34-46 75 0 40 6 74 45 74 42 0 51-32 51-76 0-42-9-74-50-73" id="H"/><path fill="#1d262b" d="M108 0H70L1-190h34L89-25l56-165h34" id="I"/><path fill="#1d262b" d="M96-169c-40 0-48 33-48 73s9 75 48 75c24 0 41-14 43-38l32 2c-6 37-31 61-74 61-59 0-76-41-82-99-10-93 101-131 147-64 4 7 5 14 7 22l-32 3c-4-21-16-35-41-35" id="J"/><path fill="#1d262b" d="M135-143c-3-34-86-38-87 0 15 53 115 12 119 90S17 21 10-45l28-5c4 36 97 45 98 0-10-56-113-15-118-90-4-57 82-63 122-42 12 7 21 19 24 35" id="K"/><g id="f"><use transform="matrix(0.06234567901234565,0,0,0.06234567901234565,0,0)" xlink:href="#H"/><use transform="matrix(0.06234567901234565,0,0,0.06234567901234565,12.46913580246913,0)" xlink:href="#v"/><use transform="matrix(0.06234567901234565,0,0,0.06234567901234565,24.93827160493826,0)" xlink:href="#I"/><use transform="matrix(0.06234567901234565,0,0,0.06234567901234565,36.16049382716048,0)" xlink:href="#C"/><use transform="matrix(0.06234567901234565,0,0,0.06234567901234565,41.085802469135785,0)" xlink:href="#J"/><use transform="matrix(0.06234567901234565,0,0,0.06234567901234565,52.308024691358,0)" xlink:href="#v"/><use transform="matrix(0.06234567901234565,0,0,0.06234567901234565,64.77716049382713,0)" xlink:href="#K"/></g><path fill="#1d262b" d="M140-251c81 0 123 46 123 126C263-53 228-8 163 1c7 30 30 48 69 40v23c-55 16-95-15-103-61C56-3 17-48 17-125c0-80 42-126 123-126zm0 227c63 0 89-41 89-101s-29-99-89-99c-61 0-89 39-89 99S79-25 140-24" id="L"/><path fill="#1d262b" d="M84 4C-5 8 30-112 23-190h32v120c0 31 7 50 39 49 72-2 45-101 50-169h31l1 190h-30c-1-10 1-25-2-33-11 22-28 36-60 37" id="M"/><path fill="#1d262b" d="M24 0v-261h32V0H24" id="N"/><path fill="#1d262b" d="M179-190L93 31C79 59 56 82 12 73V49c39 6 53-20 64-50L1-190h34L92-34l54-156h33" id="O"/><g id="g"><use transform="matrix(0.06234567901234565,0,0,0.06234567901234565,0,0)" xlink:href="#L"/><use transform="matrix(0.06234567901234565,0,0,0.06234567901234565,17.456790123456784,0)" xlink:href="#M"/><use transform="matrix(0.06234567901234565,0,0,0.06234567901234565,29.925925925925917,0)" xlink:href="#y"/><use transform="matrix(0.06234567901234565,0,0,0.06234567901234565,42.39506172839505,0)" xlink:href="#N"/><use transform="matrix(0.06234567901234565,0,0,0.06234567901234565,47.320370370370355,0)" xlink:href="#C"/><use transform="matrix(0.06234567901234565,0,0,0.06234567901234565,52.24567901234566,0)" xlink:href="#z"/><use transform="matrix(0.06234567901234565,0,0,0.06234567901234565,58.480246913580224,0)" xlink:href="#O"/></g><g id="h"><use transform="matrix(0.06234567901234565,0,0,0.06234567901234565,0,0)" xlink:href="#y"/><use transform="matrix(0.06234567901234565,0,0,0.06234567901234565,12.46913580246913,0)" xlink:href="#w"/><use transform="matrix(0.06234567901234565,0,0,0.06234567901234565,24.93827160493826,0)" xlink:href="#H"/></g><g id="i"><use transform="matrix(0.06234567901234565,0,0,0.06234567901234565,0,0)" xlink:href="#L"/><use transform="matrix(0.06234567901234565,0,0,0.06234567901234565,17.456790123456784,0)" xlink:href="#M"/><use transform="matrix(0.06234567901234565,0,0,0.06234567901234565,29.925925925925917,0)" xlink:href="#y"/><use transform="matrix(0.06234567901234565,0,0,0.06234567901234565,42.39506172839505,0)" xlink:href="#w"/><use transform="matrix(0.06234567901234565,0,0,0.06234567901234565,54.86419753086418,0)" xlink:href="#z"/><use transform="matrix(0.06234567901234565,0,0,0.06234567901234565,61.098765432098745,0)" xlink:href="#C"/><use transform="matrix(0.06234567901234565,0,0,0.06234567901234565,66.02407407407405,0)" xlink:href="#z"/><use transform="matrix(0.06234567901234565,0,0,0.06234567901234565,72.25864197530862,0)" xlink:href="#O"/></g><path fill="#1d262b" d="M101-251c82-7 93 87 43 132L82-64C71-53 59-42 53-27h129V0H18c2-99 128-94 128-182 0-28-16-43-45-43s-46 15-49 41l-32-3c6-41 34-60 81-64" id="P"/><g id="j"><use transform="matrix(0.06234567901234565,0,0,0.06234567901234565,0,0)" xlink:href="#P"/><use transform="matrix(0.06234567901234565,0,0,0.06234567901234565,12.46913580246913,0)" xlink:href="#s"/><use transform="matrix(0.06234567901234565,0,0,0.06234567901234565,18.703703703703695,0)" xlink:href="#t"/></g><path fill="#1d262b" d="M205 0l-28-72H64L36 0H1l101-248h38L239 0h-34zm-38-99l-47-123c-12 45-31 82-46 123h93" id="Q"/><g id="k"><use transform="matrix(0.06234567901234565,0,0,0.06234567901234565,0,0)" xlink:href="#Q"/><use transform="matrix(0.06234567901234565,0,0,0.06234567901234565,14.962962962962957,0)" xlink:href="#D"/><use transform="matrix(0.06234567901234565,0,0,0.06234567901234565,27.432098765432087,0)" xlink:href="#D"/><use transform="matrix(0.06234567901234565,0,0,0.06234567901234565,39.90123456790122,0)" xlink:href="#x"/><use transform="matrix(0.06234567901234565,0,0,0.06234567901234565,47.320370370370355,0)" xlink:href="#v"/><use transform="matrix(0.06234567901234565,0,0,0.06234567901234565,59.78950617283949,0)" xlink:href="#D"/><use transform="matrix(0.06234567901234565,0,0,0.06234567901234565,72.25864197530862,0)" xlink:href="#y"/><use transform="matrix(0.06234567901234565,0,0,0.06234567901234565,84.72777777777775,0)" xlink:href="#z"/><use transform="matrix(0.06234567901234565,0,0,0.06234567901234565,90.96234567901232,0)" xlink:href="#v"/></g><g id="l"><use transform="matrix(0.06234567901234565,0,0,0.06234567901234565,0,0)" xlink:href="#H"/><use transform="matrix(0.06234567901234565,0,0,0.06234567901234565,12.46913580246913,0)" xlink:href="#y"/><use transform="matrix(0.06234567901234565,0,0,0.06234567901234565,24.93827160493826,0)" xlink:href="#z"/><use transform="matrix(0.06234567901234565,0,0,0.06234567901234565,31.172839506172828,0)" xlink:href="#y"/></g><path fill="#1d262b" d="M63-220v92h138v28H63V0H30v-248h175v28H63" id="R"/><path fill="#1d262b" d="M185-189c-5-48-123-54-124 2 14 75 158 14 163 119 3 78-121 87-175 55-17-10-28-26-33-46l33-7c5 56 141 63 141-1 0-78-155-14-162-118-5-82 145-84 179-34 5 7 8 16 11 25" id="S"/><g id="m"><use transform="matrix(0.06234567901234565,0,0,0.06234567901234565,0,0)" xlink:href="#R"/><use transform="matrix(0.06234567901234565,0,0,0.06234567901234565,13.653703703703698,0)" xlink:href="#S"/><use transform="matrix(0.06234567901234565,0,0,0.06234567901234565,28.616666666666653,0)" xlink:href="#s"/><use transform="matrix(0.06234567901234565,0,0,0.06234567901234565,34.851234567901216,0)" xlink:href="#t"/></g><path fill="#1d262b" d="M30-248c87 1 191-15 191 75 0 78-77 80-158 76V0H30v-248zm33 125c57 0 124 11 124-50 0-59-68-47-124-48v98" id="T"/><g id="n"><use transform="matrix(0.06234567901234565,0,0,0.06234567901234565,0,0)" xlink:href="#F"/><use transform="matrix(0.06234567901234565,0,0,0.06234567901234565,6.234567901234565,0)" xlink:href="#T"/><use transform="matrix(0.06234567901234565,0,0,0.06234567901234565,21.19753086419752,0)" xlink:href="#R"/><use transform="matrix(0.06234567901234565,0,0,0.06234567901234565,34.851234567901216,0)" xlink:href="#S"/></g><path fill="#1d262b" d="M143 0L79-87 56-68V0H24v-261h32v163l83-92h37l-77 82L181 0h-38" id="U"/><path fill="#1d262b" d="M106-169C34-169 62-67 57 0H25v-261h32l-1 103c12-21 28-36 61-36 89 0 53 116 60 194h-32v-121c2-32-8-49-39-48" id="V"/><g id="o"><use transform="matrix(0.06234567901234565,0,0,0.06234567901234565,0,0)" xlink:href="#S"/><use transform="matrix(0.06234567901234565,0,0,0.06234567901234565,14.962962962962957,0)" xlink:href="#z"/><use transform="matrix(0.06234567901234565,0,0,0.06234567901234565,21.19753086419752,0)" xlink:href="#y"/><use transform="matrix(0.06234567901234565,0,0,0.06234567901234565,33.66666666666665,0)" xlink:href="#U"/><use transform="matrix(0.06234567901234565,0,0,0.06234567901234565,44.88888888888887,0)" xlink:href="#v"/><use transform="matrix(0.06234567901234565,0,0,0.06234567901234565,57.358024691358004,0)" xlink:href="#V"/><use transform="matrix(0.06234567901234565,0,0,0.06234567901234565,69.82716049382714,0)" xlink:href="#B"/><use transform="matrix(0.06234567901234565,0,0,0.06234567901234565,82.29629629629626,0)" xlink:href="#N"/><use transform="matrix(0.06234567901234565,0,0,0.06234567901234565,87.22160493827157,0)" xlink:href="#H"/><use transform="matrix(0.06234567901234565,0,0,0.06234567901234565,99.6907407407407,0)" xlink:href="#v"/><use transform="matrix(0.06234567901234565,0,0,0.06234567901234565,112.15987654320982,0)" xlink:href="#x"/></g><g id="p"><use transform="matrix(0.06234567901234565,0,0,0.06234567901234565,0,0)" xlink:href="#Q"/><use transform="matrix(0.06234567901234565,0,0,0.06234567901234565,14.962962962962957,0)" xlink:href="#D"/><use transform="matrix(0.06234567901234565,0,0,0.06234567901234565,27.432098765432087,0)" xlink:href="#D"/><use transform="matrix(0.06234567901234565,0,0,0.06234567901234565,39.90123456790122,0)" xlink:href="#x"/><use transform="matrix(0.06234567901234565,0,0,0.06234567901234565,47.320370370370355,0)" xlink:href="#v"/><use transform="matrix(0.06234567901234565,0,0,0.06234567901234565,59.78950617283949,0)" xlink:href="#D"/><use transform="matrix(0.06234567901234565,0,0,0.06234567901234565,72.25864197530862,0)" xlink:href="#y"/><use transform="matrix(0.06234567901234565,0,0,0.06234567901234565,84.72777777777775,0)" xlink:href="#z"/><use transform="matrix(0.06234567901234565,0,0,0.06234567901234565,90.96234567901232,0)" xlink:href="#B"/><use transform="matrix(0.06234567901234565,0,0,0.06234567901234565,103.43148148148144,0)" xlink:href="#x"/></g><path fill="#1d262b" d="M190 0L58-211 59 0H30v-248h39L202-35l-2-213h31V0h-41" id="W"/><g id="q"><use transform="matrix(0.06234567901234565,0,0,0.06234567901234565,0,0)" xlink:href="#W"/><use transform="matrix(0.06234567901234565,0,0,0.06234567901234565,16.147530864197524,0)" xlink:href="#B"/><use transform="matrix(0.06234567901234565,0,0,0.06234567901234565,28.616666666666653,0)" xlink:href="#H"/><use transform="matrix(0.06234567901234565,0,0,0.06234567901234565,41.085802469135785,0)" xlink:href="#v"/><use transform="matrix(0.06234567901234565,0,0,0.06234567901234565,53.55493827160492,0)" xlink:href="#K"/></g></defs></g></svg>